<mxfile host="app.diagrams.net" agent="Mozilla/5.0 (Windows NT 10.0; Win64; x64) AppleWebKit/537.36 (KHTML, like Gecko) Chrome/139.0.0.0 Safari/537.36 Edg/139.0.0.0" version="28.1.2">
  <diagram name="Page-1" id="jTFZHMdVAsBmmox6OsFt">
    <mxGraphModel dx="2522" dy="1640" grid="1" gridSize="1" guides="1" tooltips="1" connect="1" arrows="1" fold="1" page="1" pageScale="1" pageWidth="4000" pageHeight="5000" math="0" shadow="0">
      <root>
        <mxCell id="0" />
        <mxCell id="1" parent="0" />
        <mxCell id="mRb1OIuVPLRvODav_sjw-1" style="edgeStyle=orthogonalEdgeStyle;rounded=0;orthogonalLoop=1;jettySize=auto;html=1;entryX=0.5;entryY=0;entryDx=0;entryDy=0;strokeWidth=2;" parent="1" source="mRb1OIuVPLRvODav_sjw-2" target="mRb1OIuVPLRvODav_sjw-5" edge="1">
          <mxGeometry relative="1" as="geometry" />
        </mxCell>
        <mxCell id="mRb1OIuVPLRvODav_sjw-2" value="&lt;font style=&quot;font-size: 30px;&quot;&gt;Start&lt;/font&gt;" style="rounded=1;whiteSpace=wrap;html=1;arcSize=50;" parent="1" vertex="1">
          <mxGeometry x="420" y="60" width="144" height="58" as="geometry" />
        </mxCell>
        <mxCell id="mRb1OIuVPLRvODav_sjw-3" value="yes" style="edgeStyle=orthogonalEdgeStyle;rounded=0;orthogonalLoop=1;jettySize=auto;html=1;exitX=1.016;exitY=0.507;exitDx=0;exitDy=0;fontSize=25;strokeWidth=2;exitPerimeter=0;" parent="1" source="mRb1OIuVPLRvODav_sjw-5" target="mRb1OIuVPLRvODav_sjw-7" edge="1">
          <mxGeometry x="-0.2195" relative="1" as="geometry">
            <mxPoint as="offset" />
          </mxGeometry>
        </mxCell>
        <mxCell id="mRb1OIuVPLRvODav_sjw-4" value="no" style="edgeStyle=orthogonalEdgeStyle;rounded=0;orthogonalLoop=1;jettySize=auto;html=1;entryX=0.5;entryY=0;entryDx=0;entryDy=0;strokeWidth=2;fontSize=25;" parent="1" source="mRb1OIuVPLRvODav_sjw-5" target="mRb1OIuVPLRvODav_sjw-12" edge="1">
          <mxGeometry x="-0.1538" relative="1" as="geometry">
            <mxPoint as="offset" />
          </mxGeometry>
        </mxCell>
        <mxCell id="mRb1OIuVPLRvODav_sjw-5" value="&lt;font style=&quot;font-size: 30px;&quot;&gt;code == 1&lt;/font&gt;" style="rhombus;whiteSpace=wrap;html=1;" parent="1" vertex="1">
          <mxGeometry x="361" y="150" width="262" height="88" as="geometry" />
        </mxCell>
        <mxCell id="mRb1OIuVPLRvODav_sjw-6" value="" style="edgeStyle=orthogonalEdgeStyle;rounded=0;orthogonalLoop=1;jettySize=auto;html=1;strokeWidth=2;" parent="1" source="mRb1OIuVPLRvODav_sjw-7" target="mRb1OIuVPLRvODav_sjw-9" edge="1">
          <mxGeometry relative="1" as="geometry" />
        </mxCell>
        <mxCell id="mRb1OIuVPLRvODav_sjw-7" value="display &quot;Junior&quot;" style="shape=parallelogram;perimeter=parallelogramPerimeter;whiteSpace=wrap;html=1;fixedSize=1;fontSize=30;" parent="1" vertex="1">
          <mxGeometry x="726" y="156" width="200" height="76" as="geometry" />
        </mxCell>
        <mxCell id="mRb1OIuVPLRvODav_sjw-8" style="edgeStyle=orthogonalEdgeStyle;rounded=0;orthogonalLoop=1;jettySize=auto;html=1;entryX=0.5;entryY=0;entryDx=0;entryDy=0;strokeWidth=2;" parent="1" source="mRb1OIuVPLRvODav_sjw-9" target="mRb1OIuVPLRvODav_sjw-19" edge="1">
          <mxGeometry relative="1" as="geometry">
            <Array as="points">
              <mxPoint x="826" y="580" />
              <mxPoint x="492" y="580" />
            </Array>
          </mxGeometry>
        </mxCell>
        <mxCell id="mRb1OIuVPLRvODav_sjw-9" value="&lt;font style=&quot;font-size: 30px;&quot;&gt;assign 800.00&lt;/font&gt;&lt;div&gt;&lt;div&gt;&lt;font style=&quot;font-size: 30px;&quot;&gt;to salary&lt;/font&gt;&lt;/div&gt;&lt;/div&gt;" style="rounded=0;whiteSpace=wrap;html=1;" parent="1" vertex="1">
          <mxGeometry x="723" y="270" width="206" height="106" as="geometry" />
        </mxCell>
        <mxCell id="mRb1OIuVPLRvODav_sjw-10" value="" style="edgeStyle=orthogonalEdgeStyle;rounded=0;orthogonalLoop=1;jettySize=auto;html=1;strokeWidth=2;" parent="1" source="mRb1OIuVPLRvODav_sjw-11" target="mRb1OIuVPLRvODav_sjw-14" edge="1">
          <mxGeometry relative="1" as="geometry" />
        </mxCell>
        <mxCell id="mRb1OIuVPLRvODav_sjw-11" value="display &quot;Senior&quot;" style="shape=parallelogram;perimeter=parallelogramPerimeter;whiteSpace=wrap;html=1;fixedSize=1;fontSize=30;" parent="1" vertex="1">
          <mxGeometry x="81" y="316" width="200" height="76" as="geometry" />
        </mxCell>
        <mxCell id="mRb1OIuVPLRvODav_sjw-12" value="&lt;font style=&quot;font-size: 30px;&quot;&gt;code == 2&lt;/font&gt;" style="rhombus;whiteSpace=wrap;html=1;" parent="1" vertex="1">
          <mxGeometry x="361" y="310" width="262" height="88" as="geometry" />
        </mxCell>
        <mxCell id="mRb1OIuVPLRvODav_sjw-13" style="edgeStyle=orthogonalEdgeStyle;rounded=0;orthogonalLoop=1;jettySize=auto;html=1;entryX=0.5;entryY=0;entryDx=0;entryDy=0;strokeWidth=2;" parent="1" source="mRb1OIuVPLRvODav_sjw-14" target="mRb1OIuVPLRvODav_sjw-19" edge="1">
          <mxGeometry relative="1" as="geometry">
            <Array as="points">
              <mxPoint x="181" y="580" />
              <mxPoint x="492" y="580" />
            </Array>
          </mxGeometry>
        </mxCell>
        <mxCell id="mRb1OIuVPLRvODav_sjw-14" value="&lt;font style=&quot;font-size: 30px;&quot;&gt;assign&amp;nbsp;&lt;/font&gt;&lt;font style=&quot;background-color: transparent; color: light-dark(rgb(0, 0, 0), rgb(255, 255, 255)); font-size: 30px;&quot;&gt;12&lt;/font&gt;&lt;span style=&quot;background-color: transparent; color: light-dark(rgb(0, 0, 0), rgb(255, 255, 255)); font-size: 30px;&quot;&gt;00.00&lt;/span&gt;&lt;div&gt;&lt;div&gt;&lt;div&gt;&lt;div&gt;&lt;div&gt;&lt;font style=&quot;font-size: 30px;&quot;&gt;to salary&lt;/font&gt;&lt;/div&gt;&lt;/div&gt;&lt;/div&gt;&lt;/div&gt;&lt;/div&gt;" style="rounded=0;whiteSpace=wrap;html=1;" parent="1" vertex="1">
          <mxGeometry x="60" y="442" width="242" height="82" as="geometry" />
        </mxCell>
        <mxCell id="mRb1OIuVPLRvODav_sjw-15" value="" style="edgeStyle=orthogonalEdgeStyle;rounded=0;orthogonalLoop=1;jettySize=auto;html=1;strokeWidth=2;" parent="1" source="mRb1OIuVPLRvODav_sjw-16" target="mRb1OIuVPLRvODav_sjw-19" edge="1">
          <mxGeometry relative="1" as="geometry" />
        </mxCell>
        <mxCell id="mRb1OIuVPLRvODav_sjw-16" value="display&amp;nbsp;&lt;div&gt;&quot;Wrong code!&quot;&lt;/div&gt;" style="shape=parallelogram;perimeter=parallelogramPerimeter;whiteSpace=wrap;html=1;fixedSize=1;fontSize=30;" parent="1" vertex="1">
          <mxGeometry x="380" y="470" width="224" height="96" as="geometry" />
        </mxCell>
        <mxCell id="mRb1OIuVPLRvODav_sjw-17" value="no" style="edgeStyle=orthogonalEdgeStyle;rounded=0;orthogonalLoop=1;jettySize=auto;html=1;strokeWidth=2;fontSize=25;exitX=0.5;exitY=1;exitDx=0;exitDy=0;" parent="1" source="mRb1OIuVPLRvODav_sjw-12" edge="1">
          <mxGeometry x="-0.1538" relative="1" as="geometry">
            <mxPoint x="491.71000000000004" y="410" as="sourcePoint" />
            <mxPoint x="492" y="470" as="targetPoint" />
            <mxPoint as="offset" />
          </mxGeometry>
        </mxCell>
        <mxCell id="mRb1OIuVPLRvODav_sjw-18" value="no" style="edgeStyle=orthogonalEdgeStyle;rounded=0;orthogonalLoop=1;jettySize=auto;html=1;entryX=1;entryY=0.5;entryDx=0;entryDy=0;strokeWidth=2;fontSize=25;exitX=0;exitY=0.5;exitDx=0;exitDy=0;" parent="1" source="mRb1OIuVPLRvODav_sjw-12" target="mRb1OIuVPLRvODav_sjw-11" edge="1">
          <mxGeometry x="-0.1538" relative="1" as="geometry">
            <mxPoint x="361" y="277" as="sourcePoint" />
            <mxPoint x="361" y="349" as="targetPoint" />
            <mxPoint as="offset" />
          </mxGeometry>
        </mxCell>
        <mxCell id="mRb1OIuVPLRvODav_sjw-19" value="&lt;font style=&quot;font-size: 30px;&quot;&gt;End&lt;/font&gt;" style="rounded=1;whiteSpace=wrap;html=1;arcSize=50;" parent="1" vertex="1">
          <mxGeometry x="420" y="600" width="144" height="58" as="geometry" />
        </mxCell>
        <mxCell id="mRb1OIuVPLRvODav_sjw-22" value="Companies" style="swimlane;fontStyle=1;childLayout=stackLayout;horizontal=1;startSize=30;horizontalStack=0;resizeParent=1;resizeParentMax=0;resizeLast=0;collapsible=1;marginBottom=0;whiteSpace=wrap;html=1;fontSize=30;" parent="1" vertex="1">
          <mxGeometry x="1963" y="195" width="312" height="373" as="geometry">
            <mxRectangle x="2037" y="1091" width="188" height="49" as="alternateBounds" />
          </mxGeometry>
        </mxCell>
        <mxCell id="mRb1OIuVPLRvODav_sjw-52" value="Company ID (PK)" style="text;strokeColor=default;fillColor=none;align=left;verticalAlign=middle;spacingLeft=4;spacingRight=4;overflow=hidden;points=[[0,0.5],[1,0.5]];portConstraint=eastwest;rotatable=0;whiteSpace=wrap;html=1;fontSize=25;strokeWidth=0;fontStyle=5" parent="mRb1OIuVPLRvODav_sjw-22" vertex="1">
          <mxGeometry y="30" width="312" height="43" as="geometry" />
        </mxCell>
        <mxCell id="mRb1OIuVPLRvODav_sjw-68" value="Company name" style="text;strokeColor=default;fillColor=none;align=left;verticalAlign=middle;spacingLeft=4;spacingRight=4;overflow=hidden;points=[[0,0.5],[1,0.5]];portConstraint=eastwest;rotatable=0;whiteSpace=wrap;html=1;fontSize=25;strokeWidth=0;" parent="mRb1OIuVPLRvODav_sjw-22" vertex="1">
          <mxGeometry y="73" width="312" height="43" as="geometry" />
        </mxCell>
        <mxCell id="mRb1OIuVPLRvODav_sjw-56" value="Email" style="text;strokeColor=default;fillColor=none;align=left;verticalAlign=middle;spacingLeft=4;spacingRight=4;overflow=hidden;points=[[0,0.5],[1,0.5]];portConstraint=eastwest;rotatable=0;whiteSpace=wrap;html=1;fontSize=25;strokeWidth=0;" parent="mRb1OIuVPLRvODav_sjw-22" vertex="1">
          <mxGeometry y="116" width="312" height="43" as="geometry" />
        </mxCell>
        <mxCell id="mRb1OIuVPLRvODav_sjw-57" value="Contact number" style="text;strokeColor=default;fillColor=none;align=left;verticalAlign=middle;spacingLeft=4;spacingRight=4;overflow=hidden;points=[[0,0.5],[1,0.5]];portConstraint=eastwest;rotatable=0;whiteSpace=wrap;html=1;fontSize=25;strokeWidth=0;" parent="mRb1OIuVPLRvODav_sjw-22" vertex="1">
          <mxGeometry y="159" width="312" height="43" as="geometry" />
        </mxCell>
        <mxCell id="mRb1OIuVPLRvODav_sjw-53" value="Industry (1NF)" style="text;strokeColor=default;fillColor=none;align=left;verticalAlign=middle;spacingLeft=4;spacingRight=4;overflow=hidden;points=[[0,0.5],[1,0.5]];portConstraint=eastwest;rotatable=0;whiteSpace=wrap;html=1;fontSize=25;strokeWidth=0;" parent="mRb1OIuVPLRvODav_sjw-22" vertex="1">
          <mxGeometry y="202" width="312" height="43" as="geometry" />
        </mxCell>
        <mxCell id="qb0SVvBSAJTuVtsjU_qV-39" value="Staffs" style="text;strokeColor=default;fillColor=none;align=left;verticalAlign=middle;spacingLeft=4;spacingRight=4;overflow=hidden;points=[[0,0.5],[1,0.5]];portConstraint=eastwest;rotatable=0;whiteSpace=wrap;html=1;fontSize=25;strokeWidth=0;" parent="mRb1OIuVPLRvODav_sjw-22" vertex="1">
          <mxGeometry y="245" width="312" height="43" as="geometry" />
        </mxCell>
        <mxCell id="mRb1OIuVPLRvODav_sjw-54" value="&lt;u&gt;Booth ID*&lt;/u&gt;" style="text;strokeColor=default;fillColor=none;align=left;verticalAlign=middle;spacingLeft=4;spacingRight=4;overflow=hidden;points=[[0,0.5],[1,0.5]];portConstraint=eastwest;rotatable=0;whiteSpace=wrap;html=1;fontSize=25;strokeWidth=0;fontStyle=1" parent="mRb1OIuVPLRvODav_sjw-22" vertex="1">
          <mxGeometry y="288" width="312" height="42" as="geometry" />
        </mxCell>
        <mxCell id="qb0SVvBSAJTuVtsjU_qV-31" value="Banner ID*" style="text;strokeColor=default;fillColor=none;align=left;verticalAlign=middle;spacingLeft=4;spacingRight=4;overflow=hidden;points=[[0,0.5],[1,0.5]];portConstraint=eastwest;rotatable=0;whiteSpace=wrap;html=1;fontSize=25;strokeWidth=0;fontStyle=5" parent="mRb1OIuVPLRvODav_sjw-22" vertex="1">
          <mxGeometry y="330" width="312" height="43" as="geometry" />
        </mxCell>
        <mxCell id="mRb1OIuVPLRvODav_sjw-26" value="Applications" style="swimlane;fontStyle=1;childLayout=stackLayout;horizontal=1;startSize=30;horizontalStack=0;resizeParent=1;resizeParentMax=0;resizeLast=0;collapsible=1;marginBottom=0;whiteSpace=wrap;html=1;fontSize=30;" parent="1" vertex="1">
          <mxGeometry x="1585" y="191" width="290.25" height="108" as="geometry" />
        </mxCell>
        <mxCell id="qb0SVvBSAJTuVtsjU_qV-22" value="Visitor ID*" style="text;strokeColor=default;fillColor=none;align=left;verticalAlign=middle;spacingLeft=18;spacingRight=4;overflow=hidden;points=[[0,0.5],[1,0.5]];portConstraint=eastwest;rotatable=0;whiteSpace=wrap;html=1;fontSize=25;strokeWidth=0;fontStyle=5" parent="mRb1OIuVPLRvODav_sjw-26" vertex="1">
          <mxGeometry y="30" width="290.25" height="39" as="geometry" />
        </mxCell>
        <mxCell id="4VbqNcXYIaer9V67sAC--2" value="Company ID*" style="text;strokeColor=default;fillColor=none;align=left;verticalAlign=middle;spacingLeft=18;spacingRight=4;overflow=hidden;points=[[0,0.5],[1,0.5]];portConstraint=eastwest;rotatable=0;whiteSpace=wrap;html=1;fontSize=25;strokeWidth=0;fontStyle=5" parent="mRb1OIuVPLRvODav_sjw-26" vertex="1">
          <mxGeometry y="69" width="290.25" height="39" as="geometry" />
        </mxCell>
        <mxCell id="mRb1OIuVPLRvODav_sjw-30" value="Visitors" style="swimlane;fontStyle=1;childLayout=stackLayout;horizontal=1;startSize=30;horizontalStack=0;resizeParent=1;resizeParentMax=0;resizeLast=0;collapsible=1;marginBottom=0;whiteSpace=wrap;html=1;fontSize=30;" parent="1" vertex="1">
          <mxGeometry x="1227" y="181" width="290.25" height="368" as="geometry">
            <mxRectangle x="1301" y="1077" width="134" height="49" as="alternateBounds" />
          </mxGeometry>
        </mxCell>
        <mxCell id="mRb1OIuVPLRvODav_sjw-31" value="&lt;u&gt;Visitor ID (PK)&lt;/u&gt;" style="text;strokeColor=default;fillColor=none;align=left;verticalAlign=middle;spacingLeft=4;spacingRight=4;overflow=hidden;points=[[0,0.5],[1,0.5]];portConstraint=eastwest;rotatable=0;whiteSpace=wrap;html=1;fontSize=25;strokeWidth=0;fontStyle=1" parent="mRb1OIuVPLRvODav_sjw-30" vertex="1">
          <mxGeometry y="30" width="290.25" height="43" as="geometry" />
        </mxCell>
        <mxCell id="mRb1OIuVPLRvODav_sjw-32" value="Name" style="text;strokeColor=default;fillColor=none;align=left;verticalAlign=middle;spacingLeft=4;spacingRight=4;overflow=hidden;points=[[0,0.5],[1,0.5]];portConstraint=eastwest;rotatable=0;whiteSpace=wrap;html=1;fontSize=25;strokeWidth=0;" parent="mRb1OIuVPLRvODav_sjw-30" vertex="1">
          <mxGeometry y="73" width="290.25" height="43" as="geometry" />
        </mxCell>
        <mxCell id="mRb1OIuVPLRvODav_sjw-33" value="Gender" style="text;strokeColor=default;fillColor=none;align=left;verticalAlign=middle;spacingLeft=4;spacingRight=4;overflow=hidden;points=[[0,0.5],[1,0.5]];portConstraint=eastwest;rotatable=0;whiteSpace=wrap;html=1;fontSize=25;strokeWidth=0;" parent="mRb1OIuVPLRvODav_sjw-30" vertex="1">
          <mxGeometry y="116" width="290.25" height="42" as="geometry" />
        </mxCell>
        <mxCell id="mRb1OIuVPLRvODav_sjw-58" value="Email" style="text;strokeColor=default;fillColor=none;align=left;verticalAlign=middle;spacingLeft=4;spacingRight=4;overflow=hidden;points=[[0,0.5],[1,0.5]];portConstraint=eastwest;rotatable=0;whiteSpace=wrap;html=1;fontSize=25;strokeWidth=0;" parent="mRb1OIuVPLRvODav_sjw-30" vertex="1">
          <mxGeometry y="158" width="290.25" height="42" as="geometry" />
        </mxCell>
        <mxCell id="mRb1OIuVPLRvODav_sjw-59" value="Contact number" style="text;strokeColor=default;fillColor=none;align=left;verticalAlign=middle;spacingLeft=4;spacingRight=4;overflow=hidden;points=[[0,0.5],[1,0.5]];portConstraint=eastwest;rotatable=0;whiteSpace=wrap;html=1;fontSize=25;strokeWidth=0;" parent="mRb1OIuVPLRvODav_sjw-30" vertex="1">
          <mxGeometry y="200" width="290.25" height="42" as="geometry" />
        </mxCell>
        <mxCell id="mRb1OIuVPLRvODav_sjw-60" value="Identities" style="text;strokeColor=default;fillColor=none;align=left;verticalAlign=middle;spacingLeft=4;spacingRight=4;overflow=hidden;points=[[0,0.5],[1,0.5]];portConstraint=eastwest;rotatable=0;whiteSpace=wrap;html=1;fontSize=25;strokeWidth=0;" parent="mRb1OIuVPLRvODav_sjw-30" vertex="1">
          <mxGeometry y="242" width="290.25" height="42" as="geometry" />
        </mxCell>
        <mxCell id="4VbqNcXYIaer9V67sAC--3" value="Address" style="text;strokeColor=default;fillColor=none;align=left;verticalAlign=middle;spacingLeft=4;spacingRight=4;overflow=hidden;points=[[0,0.5],[1,0.5]];portConstraint=eastwest;rotatable=0;whiteSpace=wrap;html=1;fontSize=25;strokeWidth=0;" parent="mRb1OIuVPLRvODav_sjw-30" vertex="1">
          <mxGeometry y="284" width="290.25" height="42" as="geometry" />
        </mxCell>
        <mxCell id="_l7OdToy9iZkOATO9F6o-1" value="Education institution" style="text;strokeColor=default;fillColor=none;align=left;verticalAlign=middle;spacingLeft=4;spacingRight=4;overflow=hidden;points=[[0,0.5],[1,0.5]];portConstraint=eastwest;rotatable=0;whiteSpace=wrap;html=1;fontSize=25;strokeWidth=0;" parent="mRb1OIuVPLRvODav_sjw-30" vertex="1">
          <mxGeometry y="326" width="290.25" height="42" as="geometry" />
        </mxCell>
        <mxCell id="mRb1OIuVPLRvODav_sjw-34" value="Booth" style="swimlane;fontStyle=1;childLayout=stackLayout;horizontal=1;startSize=30;horizontalStack=0;resizeParent=1;resizeParentMax=0;resizeLast=0;collapsible=1;marginBottom=0;whiteSpace=wrap;html=1;fontSize=30;" parent="1" vertex="1">
          <mxGeometry x="2401" y="290" width="290.25" height="244" as="geometry" />
        </mxCell>
        <mxCell id="mRb1OIuVPLRvODav_sjw-35" value="Booth ID (PK)" style="text;strokeColor=default;fillColor=none;align=left;verticalAlign=middle;spacingLeft=18;spacingRight=4;overflow=hidden;points=[[0,0.5],[1,0.5]];portConstraint=eastwest;rotatable=0;whiteSpace=wrap;html=1;fontSize=25;strokeWidth=0;fontStyle=5" parent="mRb1OIuVPLRvODav_sjw-34" vertex="1">
          <mxGeometry y="30" width="290.25" height="43" as="geometry" />
        </mxCell>
        <mxCell id="mRb1OIuVPLRvODav_sjw-37" value="Area" style="text;strokeColor=default;fillColor=none;align=left;verticalAlign=middle;spacingLeft=18;spacingRight=4;overflow=hidden;points=[[0,0.5],[1,0.5]];portConstraint=eastwest;rotatable=0;whiteSpace=wrap;html=1;fontSize=25;strokeWidth=0;" parent="mRb1OIuVPLRvODav_sjw-34" vertex="1">
          <mxGeometry y="73" width="290.25" height="42" as="geometry" />
        </mxCell>
        <mxCell id="mRb1OIuVPLRvODav_sjw-36" value="Staffs" style="text;strokeColor=default;fillColor=none;align=left;verticalAlign=middle;spacingLeft=18;spacingRight=4;overflow=hidden;points=[[0,0.5],[1,0.5]];portConstraint=eastwest;rotatable=0;whiteSpace=wrap;html=1;fontSize=25;strokeWidth=0;" parent="mRb1OIuVPLRvODav_sjw-34" vertex="1">
          <mxGeometry y="115" width="290.25" height="43" as="geometry" />
        </mxCell>
        <mxCell id="qb0SVvBSAJTuVtsjU_qV-1" value="Rental (RM)" style="text;strokeColor=default;fillColor=none;align=left;verticalAlign=middle;spacingLeft=18;spacingRight=4;overflow=hidden;points=[[0,0.5],[1,0.5]];portConstraint=eastwest;rotatable=0;whiteSpace=wrap;html=1;fontSize=25;strokeWidth=0;" parent="mRb1OIuVPLRvODav_sjw-34" vertex="1">
          <mxGeometry y="158" width="290.25" height="43" as="geometry" />
        </mxCell>
        <mxCell id="qb0SVvBSAJTuVtsjU_qV-2" value="Size" style="text;strokeColor=default;fillColor=none;align=left;verticalAlign=middle;spacingLeft=18;spacingRight=4;overflow=hidden;points=[[0,0.5],[1,0.5]];portConstraint=eastwest;rotatable=0;whiteSpace=wrap;html=1;fontSize=25;strokeWidth=0;" parent="mRb1OIuVPLRvODav_sjw-34" vertex="1">
          <mxGeometry y="201" width="290.25" height="43" as="geometry" />
        </mxCell>
        <mxCell id="mRb1OIuVPLRvODav_sjw-38" value="Staffs" style="swimlane;fontStyle=1;childLayout=stackLayout;horizontal=1;startSize=30;horizontalStack=0;resizeParent=1;resizeParentMax=0;resizeLast=0;collapsible=1;marginBottom=0;whiteSpace=wrap;html=1;fontSize=30;" parent="1" vertex="1">
          <mxGeometry x="2037" y="600" width="290.25" height="284" as="geometry" />
        </mxCell>
        <mxCell id="mRb1OIuVPLRvODav_sjw-39" value="Staff ID (PK)" style="text;strokeColor=default;fillColor=none;align=left;verticalAlign=middle;spacingLeft=18;spacingRight=4;overflow=hidden;points=[[0,0.5],[1,0.5]];portConstraint=eastwest;rotatable=0;whiteSpace=wrap;html=1;fontSize=25;strokeWidth=0;fontStyle=5" parent="mRb1OIuVPLRvODav_sjw-38" vertex="1">
          <mxGeometry y="30" width="290.25" height="43" as="geometry" />
        </mxCell>
        <mxCell id="mRb1OIuVPLRvODav_sjw-40" value="Name" style="text;strokeColor=default;fillColor=none;align=left;verticalAlign=middle;spacingLeft=18;spacingRight=4;overflow=hidden;points=[[0,0.5],[1,0.5]];portConstraint=eastwest;rotatable=0;whiteSpace=wrap;html=1;fontSize=25;strokeWidth=0;" parent="mRb1OIuVPLRvODav_sjw-38" vertex="1">
          <mxGeometry y="73" width="290.25" height="43" as="geometry" />
        </mxCell>
        <mxCell id="mRb1OIuVPLRvODav_sjw-41" value="Age" style="text;strokeColor=default;fillColor=none;align=left;verticalAlign=middle;spacingLeft=18;spacingRight=4;overflow=hidden;points=[[0,0.5],[1,0.5]];portConstraint=eastwest;rotatable=0;whiteSpace=wrap;html=1;fontSize=25;strokeWidth=0;" parent="mRb1OIuVPLRvODav_sjw-38" vertex="1">
          <mxGeometry y="116" width="290.25" height="42" as="geometry" />
        </mxCell>
        <mxCell id="qb0SVvBSAJTuVtsjU_qV-3" value="Gender" style="text;strokeColor=default;fillColor=none;align=left;verticalAlign=middle;spacingLeft=18;spacingRight=4;overflow=hidden;points=[[0,0.5],[1,0.5]];portConstraint=eastwest;rotatable=0;whiteSpace=wrap;html=1;fontSize=25;strokeWidth=0;" parent="mRb1OIuVPLRvODav_sjw-38" vertex="1">
          <mxGeometry y="158" width="290.25" height="42" as="geometry" />
        </mxCell>
        <mxCell id="qb0SVvBSAJTuVtsjU_qV-4" value="Email" style="text;strokeColor=default;fillColor=none;align=left;verticalAlign=middle;spacingLeft=18;spacingRight=4;overflow=hidden;points=[[0,0.5],[1,0.5]];portConstraint=eastwest;rotatable=0;whiteSpace=wrap;html=1;fontSize=25;strokeWidth=0;" parent="mRb1OIuVPLRvODav_sjw-38" vertex="1">
          <mxGeometry y="200" width="290.25" height="42" as="geometry" />
        </mxCell>
        <mxCell id="qb0SVvBSAJTuVtsjU_qV-5" value="Contact number" style="text;strokeColor=default;fillColor=none;align=left;verticalAlign=middle;spacingLeft=18;spacingRight=4;overflow=hidden;points=[[0,0.5],[1,0.5]];portConstraint=eastwest;rotatable=0;whiteSpace=wrap;html=1;fontSize=25;strokeWidth=0;" parent="mRb1OIuVPLRvODav_sjw-38" vertex="1">
          <mxGeometry y="242" width="290.25" height="42" as="geometry" />
        </mxCell>
        <mxCell id="mRb1OIuVPLRvODav_sjw-42" value="Advertisement" style="swimlane;fontStyle=1;childLayout=stackLayout;horizontal=1;startSize=54;horizontalStack=0;resizeParent=1;resizeParentMax=0;resizeLast=0;collapsible=1;marginBottom=0;whiteSpace=wrap;html=1;fontSize=30;align=left;spacing=16;spacingBottom=1;" parent="1" vertex="1">
          <mxGeometry x="1597" y="326" width="290.25" height="304" as="geometry" />
        </mxCell>
        <mxCell id="mRb1OIuVPLRvODav_sjw-43" value="Banner ID (PK)" style="text;strokeColor=default;fillColor=none;align=left;verticalAlign=middle;spacingLeft=4;spacingRight=4;overflow=hidden;points=[[0,0.5],[1,0.5]];portConstraint=eastwest;rotatable=0;whiteSpace=wrap;html=1;fontSize=25;strokeWidth=0;fontStyle=5" parent="mRb1OIuVPLRvODav_sjw-42" vertex="1">
          <mxGeometry y="54" width="290.25" height="43" as="geometry" />
        </mxCell>
        <mxCell id="mRb1OIuVPLRvODav_sjw-44" value="Company ID*" style="text;strokeColor=default;fillColor=none;align=left;verticalAlign=middle;spacingLeft=4;spacingRight=4;overflow=hidden;points=[[0,0.5],[1,0.5]];portConstraint=eastwest;rotatable=0;whiteSpace=wrap;html=1;fontSize=25;strokeWidth=0;fontStyle=5" parent="mRb1OIuVPLRvODav_sjw-42" vertex="1">
          <mxGeometry y="97" width="290.25" height="39" as="geometry" />
        </mxCell>
        <mxCell id="mRb1OIuVPLRvODav_sjw-45" value="Types of banner" style="text;strokeColor=default;fillColor=none;align=left;verticalAlign=middle;spacingLeft=4;spacingRight=4;overflow=hidden;points=[[0,0.5],[1,0.5]];portConstraint=eastwest;rotatable=0;whiteSpace=wrap;html=1;fontSize=25;strokeWidth=0;" parent="mRb1OIuVPLRvODav_sjw-42" vertex="1">
          <mxGeometry y="136" width="290.25" height="42" as="geometry" />
        </mxCell>
        <mxCell id="qb0SVvBSAJTuVtsjU_qV-8" value="Rental price (per day)" style="text;strokeColor=default;fillColor=none;align=left;verticalAlign=middle;spacingLeft=4;spacingRight=4;overflow=hidden;points=[[0,0.5],[1,0.5]];portConstraint=eastwest;rotatable=0;whiteSpace=wrap;html=1;fontSize=25;strokeWidth=0;" parent="mRb1OIuVPLRvODav_sjw-42" vertex="1">
          <mxGeometry y="178" width="290.25" height="42" as="geometry" />
        </mxCell>
        <mxCell id="qb0SVvBSAJTuVtsjU_qV-9" value="Banner size" style="text;strokeColor=default;fillColor=none;align=left;verticalAlign=middle;spacingLeft=4;spacingRight=4;overflow=hidden;points=[[0,0.5],[1,0.5]];portConstraint=eastwest;rotatable=0;whiteSpace=wrap;html=1;fontSize=25;strokeWidth=0;" parent="mRb1OIuVPLRvODav_sjw-42" vertex="1">
          <mxGeometry y="220" width="290.25" height="42" as="geometry" />
        </mxCell>
        <mxCell id="qb0SVvBSAJTuVtsjU_qV-32" value="Rental period (days)" style="text;strokeColor=default;fillColor=none;align=left;verticalAlign=middle;spacingLeft=4;spacingRight=4;overflow=hidden;points=[[0,0.5],[1,0.5]];portConstraint=eastwest;rotatable=0;whiteSpace=wrap;html=1;fontSize=25;strokeWidth=0;" parent="mRb1OIuVPLRvODav_sjw-42" vertex="1">
          <mxGeometry y="262" width="290.25" height="42" as="geometry" />
        </mxCell>
        <mxCell id="mRb1OIuVPLRvODav_sjw-65" style="edgeStyle=orthogonalEdgeStyle;rounded=0;orthogonalLoop=1;jettySize=auto;html=1;endArrow=ERmandOne;endFill=0;startArrow=ERmandOne;startFill=0;exitX=0.99;exitY=0.042;exitDx=0;exitDy=0;entryX=0;entryY=0.085;entryDx=0;entryDy=0;strokeWidth=1;startSize=12;endSize=12;entryPerimeter=0;exitPerimeter=0;" parent="1" source="mRb1OIuVPLRvODav_sjw-22" target="mRb1OIuVPLRvODav_sjw-34" edge="1">
          <mxGeometry relative="1" as="geometry">
            <mxPoint x="1943" y="823.5555555555557" as="sourcePoint" />
            <mxPoint x="2230.75" y="603" as="targetPoint" />
          </mxGeometry>
        </mxCell>
        <mxCell id="qb0SVvBSAJTuVtsjU_qV-11" style="edgeStyle=orthogonalEdgeStyle;rounded=0;orthogonalLoop=1;jettySize=auto;html=1;endArrow=ERoneToMany;endFill=0;startArrow=ERmandOne;startFill=0;exitX=1.001;exitY=0.071;exitDx=0;exitDy=0;strokeWidth=1;startSize=12;endSize=12;entryX=1.001;entryY=0.056;entryDx=0;entryDy=0;exitPerimeter=0;entryPerimeter=0;" parent="1" source="mRb1OIuVPLRvODav_sjw-34" target="mRb1OIuVPLRvODav_sjw-38" edge="1">
          <mxGeometry relative="1" as="geometry">
            <mxPoint x="2235" y="831" as="sourcePoint" />
            <mxPoint x="2295" y="897" as="targetPoint" />
          </mxGeometry>
        </mxCell>
        <mxCell id="qb0SVvBSAJTuVtsjU_qV-12" style="edgeStyle=orthogonalEdgeStyle;rounded=0;orthogonalLoop=1;jettySize=auto;html=1;endArrow=ERoneToMany;endFill=0;startArrow=ERmandOne;startFill=0;entryX=1.002;entryY=0.186;entryDx=0;entryDy=0;strokeWidth=1;startSize=12;endSize=12;exitX=-0.001;exitY=0.043;exitDx=0;exitDy=0;exitPerimeter=0;entryPerimeter=0;" parent="1" source="mRb1OIuVPLRvODav_sjw-22" target="mRb1OIuVPLRvODav_sjw-26" edge="1">
          <mxGeometry relative="1" as="geometry">
            <mxPoint x="1987" y="642" as="sourcePoint" />
            <mxPoint x="2047" y="708" as="targetPoint" />
          </mxGeometry>
        </mxCell>
        <mxCell id="qb0SVvBSAJTuVtsjU_qV-24" style="edgeStyle=orthogonalEdgeStyle;rounded=0;orthogonalLoop=1;jettySize=auto;html=1;endArrow=ERoneToMany;endFill=0;startArrow=ERmandOne;startFill=0;strokeWidth=1;startSize=12;endSize=12;exitX=1;exitY=0.067;exitDx=0;exitDy=0;exitPerimeter=0;entryX=-0.004;entryY=0.13;entryDx=0;entryDy=0;entryPerimeter=0;" parent="1" source="mRb1OIuVPLRvODav_sjw-30" target="mRb1OIuVPLRvODav_sjw-26" edge="1">
          <mxGeometry relative="1" as="geometry">
            <mxPoint x="1913" y="384" as="sourcePoint" />
            <mxPoint x="1793" y="304" as="targetPoint" />
          </mxGeometry>
        </mxCell>
        <mxCell id="qb0SVvBSAJTuVtsjU_qV-25" style="edgeStyle=orthogonalEdgeStyle;rounded=0;orthogonalLoop=1;jettySize=auto;html=1;endArrow=ERoneToMany;endFill=0;startArrow=ERmandOne;startFill=0;entryX=1;entryY=0.5;entryDx=0;entryDy=0;strokeWidth=1;startSize=12;endSize=12;" parent="1" source="mRb1OIuVPLRvODav_sjw-52" target="mRb1OIuVPLRvODav_sjw-39" edge="1">
          <mxGeometry relative="1" as="geometry">
            <mxPoint x="1913" y="862" as="sourcePoint" />
            <mxPoint x="1979" y="803" as="targetPoint" />
          </mxGeometry>
        </mxCell>
        <mxCell id="qb0SVvBSAJTuVtsjU_qV-33" style="edgeStyle=orthogonalEdgeStyle;rounded=0;orthogonalLoop=1;jettySize=auto;html=1;endArrow=ERoneToMany;endFill=0;startArrow=ERmandOne;startFill=0;exitX=1.001;exitY=0.112;exitDx=0;exitDy=0;strokeWidth=1;startSize=12;endSize=12;exitPerimeter=0;" parent="1" source="mRb1OIuVPLRvODav_sjw-42" target="mRb1OIuVPLRvODav_sjw-52" edge="1">
          <mxGeometry relative="1" as="geometry">
            <mxPoint x="1349" y="1190" as="sourcePoint" />
            <mxPoint x="1638" y="1150" as="targetPoint" />
          </mxGeometry>
        </mxCell>
        <mxCell id="bLDJNGgqcDWYQL39y-sF-35" value="" style="group" parent="1" connectable="0" vertex="1">
          <mxGeometry x="301" y="797" width="295" height="151" as="geometry" />
        </mxCell>
        <mxCell id="bLDJNGgqcDWYQL39y-sF-36" value="" style="rounded=0;whiteSpace=wrap;html=1;fillColor=none;" parent="bLDJNGgqcDWYQL39y-sF-35" vertex="1">
          <mxGeometry width="295" height="151" as="geometry" />
        </mxCell>
        <mxCell id="bLDJNGgqcDWYQL39y-sF-37" value="&lt;font style=&quot;font-size: 30px;&quot;&gt;&lt;b&gt;List&lt;/b&gt;&lt;/font&gt;" style="rounded=0;whiteSpace=wrap;html=1;" parent="bLDJNGgqcDWYQL39y-sF-35" vertex="1">
          <mxGeometry width="295" height="37" as="geometry" />
        </mxCell>
        <mxCell id="bLDJNGgqcDWYQL39y-sF-38" value="&lt;font style=&quot;font-size: 25px;&quot;&gt;List&lt;/font&gt;" style="rounded=0;whiteSpace=wrap;html=1;fillColor=none;verticalAlign=top;strokeWidth=0.25;" parent="bLDJNGgqcDWYQL39y-sF-35" vertex="1">
          <mxGeometry y="37" width="59" height="38" as="geometry" />
        </mxCell>
        <mxCell id="bLDJNGgqcDWYQL39y-sF-121" value="" style="group" parent="bLDJNGgqcDWYQL39y-sF-35" connectable="0" vertex="1">
          <mxGeometry x="59" y="37" width="236" height="114" as="geometry" />
        </mxCell>
        <mxCell id="bLDJNGgqcDWYQL39y-sF-39" value="&lt;font style=&quot;font-size: 25px;&quot;&gt;List&lt;/font&gt;" style="rounded=0;whiteSpace=wrap;html=1;fillColor=none;verticalAlign=top;align=left;spacingLeft=11;strokeWidth=0.25;" parent="bLDJNGgqcDWYQL39y-sF-121" vertex="1">
          <mxGeometry width="236" height="38" as="geometry" />
        </mxCell>
        <mxCell id="bLDJNGgqcDWYQL39y-sF-68" value="&lt;font style=&quot;font-size: 25px;&quot;&gt;List&lt;/font&gt;" style="rounded=0;whiteSpace=wrap;html=1;fillColor=none;verticalAlign=top;align=left;spacingLeft=11;strokeWidth=0.25;" parent="bLDJNGgqcDWYQL39y-sF-121" vertex="1">
          <mxGeometry y="38" width="236" height="38" as="geometry" />
        </mxCell>
        <mxCell id="bLDJNGgqcDWYQL39y-sF-69" value="&lt;font style=&quot;font-size: 25px;&quot;&gt;List&lt;/font&gt;" style="rounded=0;whiteSpace=wrap;html=1;fillColor=none;verticalAlign=top;align=left;spacingLeft=11;strokeWidth=0.25;" parent="bLDJNGgqcDWYQL39y-sF-121" vertex="1">
          <mxGeometry y="76" width="236" height="38" as="geometry" />
        </mxCell>
        <mxCell id="bLDJNGgqcDWYQL39y-sF-74" value="" style="group" parent="1" connectable="0" vertex="1">
          <mxGeometry x="297" y="986" width="295" height="265" as="geometry" />
        </mxCell>
        <mxCell id="bLDJNGgqcDWYQL39y-sF-75" value="" style="rounded=0;whiteSpace=wrap;html=1;fillColor=none;" parent="bLDJNGgqcDWYQL39y-sF-74" vertex="1">
          <mxGeometry width="295" height="265" as="geometry" />
        </mxCell>
        <mxCell id="bLDJNGgqcDWYQL39y-sF-76" value="&lt;font style=&quot;font-size: 30px;&quot;&gt;&lt;b&gt;Person&lt;/b&gt;&lt;/font&gt;" style="rounded=0;whiteSpace=wrap;html=1;" parent="bLDJNGgqcDWYQL39y-sF-74" vertex="1">
          <mxGeometry width="295" height="37" as="geometry" />
        </mxCell>
        <mxCell id="bLDJNGgqcDWYQL39y-sF-77" value="&lt;font style=&quot;font-size: 25px;&quot;&gt;PK&lt;/font&gt;" style="rounded=0;whiteSpace=wrap;html=1;fillColor=none;verticalAlign=top;strokeWidth=0.25;" parent="bLDJNGgqcDWYQL39y-sF-74" vertex="1">
          <mxGeometry y="37" width="59" height="38" as="geometry" />
        </mxCell>
        <mxCell id="bLDJNGgqcDWYQL39y-sF-78" value="&lt;font style=&quot;font-size: 25px;&quot;&gt;PersonID&lt;/font&gt;" style="rounded=0;whiteSpace=wrap;html=1;fillColor=none;verticalAlign=top;align=left;spacingLeft=11;strokeWidth=0.25;" parent="bLDJNGgqcDWYQL39y-sF-74" vertex="1">
          <mxGeometry x="59" y="37" width="236" height="38" as="geometry" />
        </mxCell>
        <mxCell id="bLDJNGgqcDWYQL39y-sF-79" value="&lt;font style=&quot;font-size: 25px;&quot;&gt;Name&lt;/font&gt;" style="rounded=0;whiteSpace=wrap;html=1;fillColor=none;verticalAlign=top;align=left;spacingLeft=11;strokeWidth=0.25;" parent="bLDJNGgqcDWYQL39y-sF-74" vertex="1">
          <mxGeometry x="59" y="75" width="236" height="38" as="geometry" />
        </mxCell>
        <mxCell id="bLDJNGgqcDWYQL39y-sF-80" value="&lt;font style=&quot;font-size: 25px;&quot;&gt;Gender&lt;/font&gt;" style="rounded=0;whiteSpace=wrap;html=1;fillColor=none;verticalAlign=top;align=left;spacingLeft=11;strokeWidth=0.25;" parent="bLDJNGgqcDWYQL39y-sF-74" vertex="1">
          <mxGeometry x="59" y="113" width="236" height="38" as="geometry" />
        </mxCell>
        <mxCell id="bLDJNGgqcDWYQL39y-sF-83" value="&lt;span style=&quot;font-size: 25px;&quot;&gt;Email&lt;/span&gt;" style="rounded=0;whiteSpace=wrap;html=1;fillColor=none;verticalAlign=top;align=left;spacingLeft=11;strokeWidth=0.25;" parent="1" vertex="1">
          <mxGeometry x="356" y="1213" width="236" height="38" as="geometry" />
        </mxCell>
        <mxCell id="bLDJNGgqcDWYQL39y-sF-82" value="&lt;span style=&quot;font-size: 25px;&quot;&gt;PhoneNumber&lt;/span&gt;" style="rounded=0;whiteSpace=wrap;html=1;fillColor=none;verticalAlign=top;align=left;spacingLeft=11;strokeWidth=0.25;" parent="1" vertex="1">
          <mxGeometry x="356" y="1175" width="236" height="38" as="geometry" />
        </mxCell>
        <mxCell id="bLDJNGgqcDWYQL39y-sF-81" value="&lt;font style=&quot;font-size: 25px;&quot;&gt;Age&lt;/font&gt;" style="rounded=0;whiteSpace=wrap;html=1;fillColor=none;verticalAlign=top;align=left;spacingLeft=11;strokeWidth=0.25;" parent="1" vertex="1">
          <mxGeometry x="356" y="1137" width="236" height="38" as="geometry" />
        </mxCell>
        <mxCell id="bLDJNGgqcDWYQL39y-sF-120" value="" style="group" parent="1" connectable="0" vertex="1">
          <mxGeometry x="653" y="784" width="445" height="189" as="geometry" />
        </mxCell>
        <mxCell id="bLDJNGgqcDWYQL39y-sF-85" value="" style="rounded=0;whiteSpace=wrap;html=1;fillColor=none;" parent="bLDJNGgqcDWYQL39y-sF-120" vertex="1">
          <mxGeometry width="445" height="189" as="geometry" />
        </mxCell>
        <mxCell id="bLDJNGgqcDWYQL39y-sF-86" value="&lt;span style=&quot;font-size: 30px;&quot;&gt;Speakers&lt;/span&gt;" style="rounded=0;whiteSpace=wrap;html=1;fontStyle=1" parent="bLDJNGgqcDWYQL39y-sF-120" vertex="1">
          <mxGeometry width="445" height="37" as="geometry" />
        </mxCell>
        <mxCell id="bLDJNGgqcDWYQL39y-sF-87" value="&lt;font style=&quot;font-size: 25px;&quot;&gt;PK&lt;/font&gt;" style="rounded=0;whiteSpace=wrap;html=1;fillColor=none;verticalAlign=top;strokeWidth=0.25;" parent="bLDJNGgqcDWYQL39y-sF-120" vertex="1">
          <mxGeometry y="37" width="97" height="38" as="geometry" />
        </mxCell>
        <mxCell id="bLDJNGgqcDWYQL39y-sF-91" value="&lt;font style=&quot;font-size: 25px;&quot;&gt;PK, FK1&lt;/font&gt;" style="rounded=0;whiteSpace=wrap;html=1;fillColor=none;verticalAlign=top;strokeWidth=0.25;" parent="bLDJNGgqcDWYQL39y-sF-120" vertex="1">
          <mxGeometry y="75" width="97" height="38" as="geometry" />
        </mxCell>
        <mxCell id="bLDJNGgqcDWYQL39y-sF-104" value="&lt;font style=&quot;font-size: 25px;&quot;&gt;PK, FK2&lt;/font&gt;" style="rounded=0;whiteSpace=wrap;html=1;fillColor=none;verticalAlign=top;strokeWidth=0.25;" parent="bLDJNGgqcDWYQL39y-sF-120" vertex="1">
          <mxGeometry y="113" width="97" height="38" as="geometry" />
        </mxCell>
        <mxCell id="bLDJNGgqcDWYQL39y-sF-107" value="" style="group" parent="bLDJNGgqcDWYQL39y-sF-120" connectable="0" vertex="1">
          <mxGeometry x="97" y="37" width="348" height="152" as="geometry" />
        </mxCell>
        <mxCell id="bLDJNGgqcDWYQL39y-sF-106" value="&lt;font style=&quot;font-size: 25px;&quot;&gt;Affiliation&lt;/font&gt;" style="rounded=0;whiteSpace=wrap;html=1;fillColor=none;verticalAlign=top;align=left;spacingLeft=11;strokeWidth=0.25;" parent="bLDJNGgqcDWYQL39y-sF-107" vertex="1">
          <mxGeometry y="114" width="348" height="38" as="geometry" />
        </mxCell>
        <mxCell id="bLDJNGgqcDWYQL39y-sF-88" value="&lt;font style=&quot;font-size: 25px;&quot;&gt;SpeakerID&lt;/font&gt;" style="rounded=0;whiteSpace=wrap;html=1;fillColor=none;verticalAlign=top;align=left;spacingLeft=11;strokeWidth=0.25;" parent="bLDJNGgqcDWYQL39y-sF-107" vertex="1">
          <mxGeometry width="348" height="38" as="geometry" />
        </mxCell>
        <mxCell id="bLDJNGgqcDWYQL39y-sF-89" value="&lt;span style=&quot;font-size: 25px;&quot;&gt;PersonID&lt;/span&gt;" style="rounded=0;whiteSpace=wrap;html=1;fillColor=none;verticalAlign=top;align=left;spacingLeft=11;strokeWidth=0.25;" parent="bLDJNGgqcDWYQL39y-sF-107" vertex="1">
          <mxGeometry y="38" width="348" height="38" as="geometry" />
        </mxCell>
        <mxCell id="bLDJNGgqcDWYQL39y-sF-90" value="&lt;font style=&quot;font-size: 25px;&quot;&gt;EventID&lt;/font&gt;" style="rounded=0;whiteSpace=wrap;html=1;fillColor=none;verticalAlign=top;align=left;spacingLeft=11;strokeWidth=0.25;" parent="bLDJNGgqcDWYQL39y-sF-107" vertex="1">
          <mxGeometry y="76" width="348" height="38" as="geometry" />
        </mxCell>
        <mxCell id="bLDJNGgqcDWYQL39y-sF-122" value="" style="group" parent="1" connectable="0" vertex="1">
          <mxGeometry x="656" y="1005" width="445" height="227" as="geometry" />
        </mxCell>
        <mxCell id="bLDJNGgqcDWYQL39y-sF-123" value="" style="rounded=0;whiteSpace=wrap;html=1;fillColor=none;" parent="bLDJNGgqcDWYQL39y-sF-122" vertex="1">
          <mxGeometry width="445" height="227" as="geometry" />
        </mxCell>
        <mxCell id="bLDJNGgqcDWYQL39y-sF-124" value="&lt;span style=&quot;font-size: 30px;&quot;&gt;Applicants&lt;/span&gt;" style="rounded=0;whiteSpace=wrap;html=1;fontStyle=1" parent="bLDJNGgqcDWYQL39y-sF-122" vertex="1">
          <mxGeometry width="445" height="37" as="geometry" />
        </mxCell>
        <mxCell id="bLDJNGgqcDWYQL39y-sF-125" value="&lt;font style=&quot;font-size: 25px;&quot;&gt;PK&lt;/font&gt;" style="rounded=0;whiteSpace=wrap;html=1;fillColor=none;verticalAlign=top;strokeWidth=0.25;" parent="bLDJNGgqcDWYQL39y-sF-122" vertex="1">
          <mxGeometry y="37" width="97" height="38" as="geometry" />
        </mxCell>
        <mxCell id="bLDJNGgqcDWYQL39y-sF-133" value="&lt;font style=&quot;font-size: 25px;&quot;&gt;Resume&lt;/font&gt;" style="rounded=0;whiteSpace=wrap;html=1;fillColor=none;verticalAlign=top;align=left;spacingLeft=11;strokeWidth=0.25;" parent="bLDJNGgqcDWYQL39y-sF-122" vertex="1">
          <mxGeometry x="97" y="151" width="348" height="38" as="geometry" />
        </mxCell>
        <mxCell id="bLDJNGgqcDWYQL39y-sF-130" value="&lt;span style=&quot;font-size: 25px;&quot;&gt;PersonID&lt;/span&gt;" style="rounded=0;whiteSpace=wrap;html=1;fillColor=none;verticalAlign=top;align=left;spacingLeft=11;strokeWidth=0.25;" parent="bLDJNGgqcDWYQL39y-sF-122" vertex="1">
          <mxGeometry x="97" y="37" width="348" height="38" as="geometry" />
        </mxCell>
        <mxCell id="bLDJNGgqcDWYQL39y-sF-131" value="&lt;span style=&quot;font-size: 25px;&quot;&gt;EducationLevel&lt;/span&gt;" style="rounded=0;whiteSpace=wrap;html=1;fillColor=none;verticalAlign=top;align=left;spacingLeft=11;strokeWidth=0.25;" parent="bLDJNGgqcDWYQL39y-sF-122" vertex="1">
          <mxGeometry x="97" y="75" width="348" height="38" as="geometry" />
        </mxCell>
        <mxCell id="bLDJNGgqcDWYQL39y-sF-132" value="&lt;font style=&quot;font-size: 25px;&quot;&gt;Major&lt;/font&gt;" style="rounded=0;whiteSpace=wrap;html=1;fillColor=none;verticalAlign=top;align=left;spacingLeft=11;strokeWidth=0.25;" parent="bLDJNGgqcDWYQL39y-sF-122" vertex="1">
          <mxGeometry x="97" y="113" width="348" height="38" as="geometry" />
        </mxCell>
        <mxCell id="bLDJNGgqcDWYQL39y-sF-134" value="&lt;span style=&quot;font-size: 25px;&quot;&gt;Portfolio&lt;/span&gt;" style="rounded=0;whiteSpace=wrap;html=1;fillColor=none;verticalAlign=top;align=left;spacingLeft=11;strokeWidth=0.25;container=0;" parent="1" vertex="1">
          <mxGeometry x="753" y="1194" width="348" height="38" as="geometry" />
        </mxCell>
        <mxCell id="bLDJNGgqcDWYQL39y-sF-140" value="" style="group" parent="1" connectable="0" vertex="1">
          <mxGeometry x="653" y="1272" width="445" height="227" as="geometry" />
        </mxCell>
        <mxCell id="bLDJNGgqcDWYQL39y-sF-141" value="" style="rounded=0;whiteSpace=wrap;html=1;fillColor=none;" parent="bLDJNGgqcDWYQL39y-sF-140" vertex="1">
          <mxGeometry width="445" height="227" as="geometry" />
        </mxCell>
        <mxCell id="bLDJNGgqcDWYQL39y-sF-142" value="&lt;span style=&quot;font-size: 30px;&quot;&gt;Applicants&lt;/span&gt;" style="rounded=0;whiteSpace=wrap;html=1;fontStyle=1" parent="bLDJNGgqcDWYQL39y-sF-140" vertex="1">
          <mxGeometry width="445" height="37" as="geometry" />
        </mxCell>
        <mxCell id="bLDJNGgqcDWYQL39y-sF-143" value="&lt;font style=&quot;font-size: 25px;&quot;&gt;PK&lt;/font&gt;" style="rounded=0;whiteSpace=wrap;html=1;fillColor=none;verticalAlign=top;strokeWidth=0.25;" parent="bLDJNGgqcDWYQL39y-sF-140" vertex="1">
          <mxGeometry y="37" width="97" height="38" as="geometry" />
        </mxCell>
        <mxCell id="bLDJNGgqcDWYQL39y-sF-144" value="&lt;font style=&quot;font-size: 25px;&quot;&gt;Resume&lt;/font&gt;" style="rounded=0;whiteSpace=wrap;html=1;fillColor=none;verticalAlign=top;align=left;spacingLeft=11;strokeWidth=0.25;" parent="bLDJNGgqcDWYQL39y-sF-140" vertex="1">
          <mxGeometry x="97" y="151" width="348" height="38" as="geometry" />
        </mxCell>
        <mxCell id="bLDJNGgqcDWYQL39y-sF-145" value="&lt;span style=&quot;font-size: 25px;&quot;&gt;PersonID&lt;/span&gt;" style="rounded=0;whiteSpace=wrap;html=1;fillColor=none;verticalAlign=top;align=left;spacingLeft=11;strokeWidth=0.25;" parent="bLDJNGgqcDWYQL39y-sF-140" vertex="1">
          <mxGeometry x="97" y="37" width="348" height="38" as="geometry" />
        </mxCell>
        <mxCell id="bLDJNGgqcDWYQL39y-sF-146" value="&lt;span style=&quot;font-size: 25px;&quot;&gt;EducationLevel&lt;/span&gt;" style="rounded=0;whiteSpace=wrap;html=1;fillColor=none;verticalAlign=top;align=left;spacingLeft=11;strokeWidth=0.25;" parent="bLDJNGgqcDWYQL39y-sF-140" vertex="1">
          <mxGeometry x="97" y="75" width="348" height="38" as="geometry" />
        </mxCell>
        <mxCell id="bLDJNGgqcDWYQL39y-sF-147" value="&lt;font style=&quot;font-size: 25px;&quot;&gt;Major&lt;/font&gt;" style="rounded=0;whiteSpace=wrap;html=1;fillColor=none;verticalAlign=top;align=left;spacingLeft=11;strokeWidth=0.25;" parent="bLDJNGgqcDWYQL39y-sF-140" vertex="1">
          <mxGeometry x="97" y="113" width="348" height="38" as="geometry" />
        </mxCell>
        <mxCell id="bLDJNGgqcDWYQL39y-sF-237" value="Speakers" style="shape=table;startSize=49;container=1;collapsible=1;childLayout=tableLayout;fixedRows=1;rowLines=0;fontStyle=1;align=center;resizeLast=1;html=1;whiteSpace=wrap;fontSize=30;" parent="1" vertex="1">
          <mxGeometry x="965" y="2435" width="387" height="409" as="geometry" />
        </mxCell>
        <mxCell id="bLDJNGgqcDWYQL39y-sF-263" value="" style="shape=tableRow;horizontal=0;startSize=0;swimlaneHead=0;swimlaneBody=0;fillColor=none;collapsible=0;dropTarget=0;points=[[0,0.5],[1,0.5]];portConstraint=eastwest;top=0;left=0;right=0;bottom=0;html=1;fontSize=30;" parent="bLDJNGgqcDWYQL39y-sF-237" vertex="1">
          <mxGeometry y="49" width="387" height="40" as="geometry" />
        </mxCell>
        <mxCell id="bLDJNGgqcDWYQL39y-sF-264" value="PK1" style="shape=partialRectangle;connectable=0;fillColor=none;top=0;left=0;bottom=0;right=0;fontStyle=1;overflow=hidden;html=1;whiteSpace=wrap;fontSize=25;" parent="bLDJNGgqcDWYQL39y-sF-263" vertex="1">
          <mxGeometry width="117.99999999999989" height="40" as="geometry">
            <mxRectangle width="117.99999999999989" height="40" as="alternateBounds" />
          </mxGeometry>
        </mxCell>
        <mxCell id="bLDJNGgqcDWYQL39y-sF-265" value="SpeakerID" style="shape=partialRectangle;connectable=0;fillColor=none;top=0;left=0;bottom=0;right=0;align=left;spacingLeft=6;fontStyle=1;overflow=hidden;html=1;whiteSpace=wrap;fontSize=25;" parent="bLDJNGgqcDWYQL39y-sF-263" vertex="1">
          <mxGeometry x="117.99999999999989" width="269.0000000000001" height="40" as="geometry">
            <mxRectangle width="269.0000000000001" height="40" as="alternateBounds" />
          </mxGeometry>
        </mxCell>
        <mxCell id="bLDJNGgqcDWYQL39y-sF-241" value="" style="shape=tableRow;horizontal=0;startSize=0;swimlaneHead=0;swimlaneBody=0;fillColor=none;collapsible=0;dropTarget=0;points=[[0,0.5],[1,0.5]];portConstraint=eastwest;top=0;left=0;right=0;bottom=1;html=1;fontSize=30;" parent="bLDJNGgqcDWYQL39y-sF-237" vertex="1">
          <mxGeometry y="89" width="387" height="40" as="geometry" />
        </mxCell>
        <mxCell id="bLDJNGgqcDWYQL39y-sF-242" value="FK2" style="shape=partialRectangle;connectable=0;fillColor=none;top=0;left=0;bottom=0;right=0;fontStyle=0;overflow=hidden;html=1;whiteSpace=wrap;fontSize=25;" parent="bLDJNGgqcDWYQL39y-sF-241" vertex="1">
          <mxGeometry width="117.99999999999989" height="40" as="geometry">
            <mxRectangle width="117.99999999999989" height="40" as="alternateBounds" />
          </mxGeometry>
        </mxCell>
        <mxCell id="bLDJNGgqcDWYQL39y-sF-243" value="EventID" style="shape=partialRectangle;connectable=0;fillColor=none;top=0;left=0;bottom=0;right=0;align=left;spacingLeft=6;fontStyle=0;overflow=hidden;html=1;whiteSpace=wrap;fontSize=25;" parent="bLDJNGgqcDWYQL39y-sF-241" vertex="1">
          <mxGeometry x="117.99999999999989" width="269.0000000000001" height="40" as="geometry">
            <mxRectangle width="269.0000000000001" height="40" as="alternateBounds" />
          </mxGeometry>
        </mxCell>
        <mxCell id="zMVUV6hLSOokIp0R_ec7-64" value="" style="shape=tableRow;horizontal=0;startSize=0;swimlaneHead=0;swimlaneBody=0;fillColor=none;collapsible=0;dropTarget=0;points=[[0,0.5],[1,0.5]];portConstraint=eastwest;top=0;left=0;right=0;bottom=0;html=1;fontSize=30;" vertex="1" parent="bLDJNGgqcDWYQL39y-sF-237">
          <mxGeometry y="129" width="387" height="40" as="geometry" />
        </mxCell>
        <mxCell id="zMVUV6hLSOokIp0R_ec7-65" value="" style="shape=partialRectangle;connectable=0;fillColor=none;top=0;left=0;bottom=0;right=0;editable=1;overflow=hidden;html=1;whiteSpace=wrap;fontSize=25;" vertex="1" parent="zMVUV6hLSOokIp0R_ec7-64">
          <mxGeometry width="117.99999999999989" height="40" as="geometry">
            <mxRectangle width="117.99999999999989" height="40" as="alternateBounds" />
          </mxGeometry>
        </mxCell>
        <mxCell id="zMVUV6hLSOokIp0R_ec7-66" value="Name" style="shape=partialRectangle;connectable=0;fillColor=none;top=0;left=0;bottom=0;right=0;align=left;spacingLeft=6;overflow=hidden;html=1;whiteSpace=wrap;fontSize=25;" vertex="1" parent="zMVUV6hLSOokIp0R_ec7-64">
          <mxGeometry x="117.99999999999989" width="269.0000000000001" height="40" as="geometry">
            <mxRectangle width="269.0000000000001" height="40" as="alternateBounds" />
          </mxGeometry>
        </mxCell>
        <mxCell id="zMVUV6hLSOokIp0R_ec7-67" value="" style="shape=tableRow;horizontal=0;startSize=0;swimlaneHead=0;swimlaneBody=0;fillColor=none;collapsible=0;dropTarget=0;points=[[0,0.5],[1,0.5]];portConstraint=eastwest;top=0;left=0;right=0;bottom=0;html=1;fontSize=30;" vertex="1" parent="bLDJNGgqcDWYQL39y-sF-237">
          <mxGeometry y="169" width="387" height="40" as="geometry" />
        </mxCell>
        <mxCell id="zMVUV6hLSOokIp0R_ec7-68" value="" style="shape=partialRectangle;connectable=0;fillColor=none;top=0;left=0;bottom=0;right=0;editable=1;overflow=hidden;html=1;whiteSpace=wrap;fontSize=25;" vertex="1" parent="zMVUV6hLSOokIp0R_ec7-67">
          <mxGeometry width="117.99999999999989" height="40" as="geometry">
            <mxRectangle width="117.99999999999989" height="40" as="alternateBounds" />
          </mxGeometry>
        </mxCell>
        <mxCell id="zMVUV6hLSOokIp0R_ec7-69" value="Gender" style="shape=partialRectangle;connectable=0;fillColor=none;top=0;left=0;bottom=0;right=0;align=left;spacingLeft=6;overflow=hidden;html=1;whiteSpace=wrap;fontSize=25;" vertex="1" parent="zMVUV6hLSOokIp0R_ec7-67">
          <mxGeometry x="117.99999999999989" width="269.0000000000001" height="40" as="geometry">
            <mxRectangle width="269.0000000000001" height="40" as="alternateBounds" />
          </mxGeometry>
        </mxCell>
        <mxCell id="zMVUV6hLSOokIp0R_ec7-70" value="" style="shape=tableRow;horizontal=0;startSize=0;swimlaneHead=0;swimlaneBody=0;fillColor=none;collapsible=0;dropTarget=0;points=[[0,0.5],[1,0.5]];portConstraint=eastwest;top=0;left=0;right=0;bottom=0;html=1;fontSize=30;" vertex="1" parent="bLDJNGgqcDWYQL39y-sF-237">
          <mxGeometry y="209" width="387" height="40" as="geometry" />
        </mxCell>
        <mxCell id="zMVUV6hLSOokIp0R_ec7-71" value="&lt;div&gt;&lt;br&gt;&lt;/div&gt;" style="shape=partialRectangle;connectable=0;fillColor=none;top=0;left=0;bottom=0;right=0;editable=1;overflow=hidden;html=1;whiteSpace=wrap;fontSize=25;" vertex="1" parent="zMVUV6hLSOokIp0R_ec7-70">
          <mxGeometry width="117.99999999999989" height="40" as="geometry">
            <mxRectangle width="117.99999999999989" height="40" as="alternateBounds" />
          </mxGeometry>
        </mxCell>
        <mxCell id="zMVUV6hLSOokIp0R_ec7-72" value="Age" style="shape=partialRectangle;connectable=0;fillColor=none;top=0;left=0;bottom=0;right=0;align=left;spacingLeft=6;overflow=hidden;html=1;whiteSpace=wrap;fontSize=25;" vertex="1" parent="zMVUV6hLSOokIp0R_ec7-70">
          <mxGeometry x="117.99999999999989" width="269.0000000000001" height="40" as="geometry">
            <mxRectangle width="269.0000000000001" height="40" as="alternateBounds" />
          </mxGeometry>
        </mxCell>
        <mxCell id="zMVUV6hLSOokIp0R_ec7-73" value="" style="shape=tableRow;horizontal=0;startSize=0;swimlaneHead=0;swimlaneBody=0;fillColor=none;collapsible=0;dropTarget=0;points=[[0,0.5],[1,0.5]];portConstraint=eastwest;top=0;left=0;right=0;bottom=0;html=1;fontSize=30;" vertex="1" parent="bLDJNGgqcDWYQL39y-sF-237">
          <mxGeometry y="249" width="387" height="40" as="geometry" />
        </mxCell>
        <mxCell id="zMVUV6hLSOokIp0R_ec7-74" value="&lt;div&gt;&lt;br&gt;&lt;/div&gt;" style="shape=partialRectangle;connectable=0;fillColor=none;top=0;left=0;bottom=0;right=0;editable=1;overflow=hidden;html=1;whiteSpace=wrap;fontSize=25;" vertex="1" parent="zMVUV6hLSOokIp0R_ec7-73">
          <mxGeometry width="117.99999999999989" height="40" as="geometry">
            <mxRectangle width="117.99999999999989" height="40" as="alternateBounds" />
          </mxGeometry>
        </mxCell>
        <mxCell id="zMVUV6hLSOokIp0R_ec7-75" value="PhoneNumber" style="shape=partialRectangle;connectable=0;fillColor=none;top=0;left=0;bottom=0;right=0;align=left;spacingLeft=6;overflow=hidden;html=1;whiteSpace=wrap;fontSize=25;" vertex="1" parent="zMVUV6hLSOokIp0R_ec7-73">
          <mxGeometry x="117.99999999999989" width="269.0000000000001" height="40" as="geometry">
            <mxRectangle width="269.0000000000001" height="40" as="alternateBounds" />
          </mxGeometry>
        </mxCell>
        <mxCell id="zMVUV6hLSOokIp0R_ec7-76" value="" style="shape=tableRow;horizontal=0;startSize=0;swimlaneHead=0;swimlaneBody=0;fillColor=none;collapsible=0;dropTarget=0;points=[[0,0.5],[1,0.5]];portConstraint=eastwest;top=0;left=0;right=0;bottom=0;html=1;fontSize=30;" vertex="1" parent="bLDJNGgqcDWYQL39y-sF-237">
          <mxGeometry y="289" width="387" height="40" as="geometry" />
        </mxCell>
        <mxCell id="zMVUV6hLSOokIp0R_ec7-77" value="&lt;div&gt;&lt;br&gt;&lt;/div&gt;" style="shape=partialRectangle;connectable=0;fillColor=none;top=0;left=0;bottom=0;right=0;editable=1;overflow=hidden;html=1;whiteSpace=wrap;fontSize=25;" vertex="1" parent="zMVUV6hLSOokIp0R_ec7-76">
          <mxGeometry width="117.99999999999989" height="40" as="geometry">
            <mxRectangle width="117.99999999999989" height="40" as="alternateBounds" />
          </mxGeometry>
        </mxCell>
        <mxCell id="zMVUV6hLSOokIp0R_ec7-78" value="Email" style="shape=partialRectangle;connectable=0;fillColor=none;top=0;left=0;bottom=0;right=0;align=left;spacingLeft=6;overflow=hidden;html=1;whiteSpace=wrap;fontSize=25;" vertex="1" parent="zMVUV6hLSOokIp0R_ec7-76">
          <mxGeometry x="117.99999999999989" width="269.0000000000001" height="40" as="geometry">
            <mxRectangle width="269.0000000000001" height="40" as="alternateBounds" />
          </mxGeometry>
        </mxCell>
        <mxCell id="bLDJNGgqcDWYQL39y-sF-244" value="" style="shape=tableRow;horizontal=0;startSize=0;swimlaneHead=0;swimlaneBody=0;fillColor=none;collapsible=0;dropTarget=0;points=[[0,0.5],[1,0.5]];portConstraint=eastwest;top=0;left=0;right=0;bottom=0;html=1;fontSize=30;" parent="bLDJNGgqcDWYQL39y-sF-237" vertex="1">
          <mxGeometry y="329" width="387" height="40" as="geometry" />
        </mxCell>
        <mxCell id="bLDJNGgqcDWYQL39y-sF-245" value="" style="shape=partialRectangle;connectable=0;fillColor=none;top=0;left=0;bottom=0;right=0;editable=1;overflow=hidden;html=1;whiteSpace=wrap;fontSize=25;" parent="bLDJNGgqcDWYQL39y-sF-244" vertex="1">
          <mxGeometry width="117.99999999999989" height="40" as="geometry">
            <mxRectangle width="117.99999999999989" height="40" as="alternateBounds" />
          </mxGeometry>
        </mxCell>
        <mxCell id="bLDJNGgqcDWYQL39y-sF-246" value="Identity" style="shape=partialRectangle;connectable=0;fillColor=none;top=0;left=0;bottom=0;right=0;align=left;spacingLeft=6;overflow=hidden;html=1;whiteSpace=wrap;fontSize=25;" parent="bLDJNGgqcDWYQL39y-sF-244" vertex="1">
          <mxGeometry x="117.99999999999989" width="269.0000000000001" height="40" as="geometry">
            <mxRectangle width="269.0000000000001" height="40" as="alternateBounds" />
          </mxGeometry>
        </mxCell>
        <mxCell id="zMVUV6hLSOokIp0R_ec7-57" value="" style="shape=tableRow;horizontal=0;startSize=0;swimlaneHead=0;swimlaneBody=0;fillColor=none;collapsible=0;dropTarget=0;points=[[0,0.5],[1,0.5]];portConstraint=eastwest;top=0;left=0;right=0;bottom=0;html=1;fontSize=30;" vertex="1" parent="bLDJNGgqcDWYQL39y-sF-237">
          <mxGeometry y="369" width="387" height="40" as="geometry" />
        </mxCell>
        <mxCell id="zMVUV6hLSOokIp0R_ec7-58" value="" style="shape=partialRectangle;connectable=0;fillColor=none;top=0;left=0;bottom=0;right=0;editable=1;overflow=hidden;html=1;whiteSpace=wrap;fontSize=25;" vertex="1" parent="zMVUV6hLSOokIp0R_ec7-57">
          <mxGeometry width="117.99999999999989" height="40" as="geometry">
            <mxRectangle width="117.99999999999989" height="40" as="alternateBounds" />
          </mxGeometry>
        </mxCell>
        <mxCell id="zMVUV6hLSOokIp0R_ec7-59" value="Affiliation" style="shape=partialRectangle;connectable=0;fillColor=none;top=0;left=0;bottom=0;right=0;align=left;spacingLeft=6;overflow=hidden;html=1;whiteSpace=wrap;fontSize=25;" vertex="1" parent="zMVUV6hLSOokIp0R_ec7-57">
          <mxGeometry x="117.99999999999989" width="269.0000000000001" height="40" as="geometry">
            <mxRectangle width="269.0000000000001" height="40" as="alternateBounds" />
          </mxGeometry>
        </mxCell>
        <mxCell id="bLDJNGgqcDWYQL39y-sF-250" value="Table" style="shape=table;startSize=30;container=1;collapsible=1;childLayout=tableLayout;fixedRows=1;rowLines=0;fontStyle=1;align=center;resizeLast=1;html=1;whiteSpace=wrap;fontSize=30;" parent="1" vertex="1">
          <mxGeometry x="105" y="1318" width="267" height="150" as="geometry" />
        </mxCell>
        <mxCell id="bLDJNGgqcDWYQL39y-sF-251" value="" style="shape=tableRow;horizontal=0;startSize=0;swimlaneHead=0;swimlaneBody=0;fillColor=none;collapsible=0;dropTarget=0;points=[[0,0.5],[1,0.5]];portConstraint=eastwest;top=0;left=0;right=0;bottom=0;html=1;fontSize=30;" parent="bLDJNGgqcDWYQL39y-sF-250" vertex="1">
          <mxGeometry y="30" width="267" height="30" as="geometry" />
        </mxCell>
        <mxCell id="bLDJNGgqcDWYQL39y-sF-252" value="PK,FK1" style="shape=partialRectangle;connectable=0;fillColor=none;top=0;left=0;bottom=0;right=0;fontStyle=1;overflow=hidden;html=1;whiteSpace=wrap;fontSize=25;" parent="bLDJNGgqcDWYQL39y-sF-251" vertex="1">
          <mxGeometry width="117.99999999999989" height="30" as="geometry">
            <mxRectangle width="117.99999999999989" height="30" as="alternateBounds" />
          </mxGeometry>
        </mxCell>
        <mxCell id="bLDJNGgqcDWYQL39y-sF-253" value="Row 1" style="shape=partialRectangle;connectable=0;fillColor=none;top=0;left=0;bottom=0;right=0;align=left;spacingLeft=6;fontStyle=5;overflow=hidden;html=1;whiteSpace=wrap;fontSize=25;" parent="bLDJNGgqcDWYQL39y-sF-251" vertex="1">
          <mxGeometry x="117.99999999999989" width="149.0000000000001" height="30" as="geometry">
            <mxRectangle width="149.0000000000001" height="30" as="alternateBounds" />
          </mxGeometry>
        </mxCell>
        <mxCell id="bLDJNGgqcDWYQL39y-sF-254" value="" style="shape=tableRow;horizontal=0;startSize=0;swimlaneHead=0;swimlaneBody=0;fillColor=none;collapsible=0;dropTarget=0;points=[[0,0.5],[1,0.5]];portConstraint=eastwest;top=0;left=0;right=0;bottom=1;html=1;fontSize=30;" parent="bLDJNGgqcDWYQL39y-sF-250" vertex="1">
          <mxGeometry y="60" width="267" height="30" as="geometry" />
        </mxCell>
        <mxCell id="bLDJNGgqcDWYQL39y-sF-255" value="PK,FK2" style="shape=partialRectangle;connectable=0;fillColor=none;top=0;left=0;bottom=0;right=0;fontStyle=1;overflow=hidden;html=1;whiteSpace=wrap;fontSize=25;" parent="bLDJNGgqcDWYQL39y-sF-254" vertex="1">
          <mxGeometry width="117.99999999999989" height="30" as="geometry">
            <mxRectangle width="117.99999999999989" height="30" as="alternateBounds" />
          </mxGeometry>
        </mxCell>
        <mxCell id="bLDJNGgqcDWYQL39y-sF-256" value="Row 2" style="shape=partialRectangle;connectable=0;fillColor=none;top=0;left=0;bottom=0;right=0;align=left;spacingLeft=6;fontStyle=5;overflow=hidden;html=1;whiteSpace=wrap;fontSize=25;" parent="bLDJNGgqcDWYQL39y-sF-254" vertex="1">
          <mxGeometry x="117.99999999999989" width="149.0000000000001" height="30" as="geometry">
            <mxRectangle width="149.0000000000001" height="30" as="alternateBounds" />
          </mxGeometry>
        </mxCell>
        <mxCell id="bLDJNGgqcDWYQL39y-sF-257" value="" style="shape=tableRow;horizontal=0;startSize=0;swimlaneHead=0;swimlaneBody=0;fillColor=none;collapsible=0;dropTarget=0;points=[[0,0.5],[1,0.5]];portConstraint=eastwest;top=0;left=0;right=0;bottom=0;html=1;fontSize=30;" parent="bLDJNGgqcDWYQL39y-sF-250" vertex="1">
          <mxGeometry y="90" width="267" height="30" as="geometry" />
        </mxCell>
        <mxCell id="bLDJNGgqcDWYQL39y-sF-258" value="" style="shape=partialRectangle;connectable=0;fillColor=none;top=0;left=0;bottom=0;right=0;editable=1;overflow=hidden;html=1;whiteSpace=wrap;fontSize=25;" parent="bLDJNGgqcDWYQL39y-sF-257" vertex="1">
          <mxGeometry width="117.99999999999989" height="30" as="geometry">
            <mxRectangle width="117.99999999999989" height="30" as="alternateBounds" />
          </mxGeometry>
        </mxCell>
        <mxCell id="bLDJNGgqcDWYQL39y-sF-259" value="Row 3" style="shape=partialRectangle;connectable=0;fillColor=none;top=0;left=0;bottom=0;right=0;align=left;spacingLeft=6;overflow=hidden;html=1;whiteSpace=wrap;fontSize=25;" parent="bLDJNGgqcDWYQL39y-sF-257" vertex="1">
          <mxGeometry x="117.99999999999989" width="149.0000000000001" height="30" as="geometry">
            <mxRectangle width="149.0000000000001" height="30" as="alternateBounds" />
          </mxGeometry>
        </mxCell>
        <mxCell id="bLDJNGgqcDWYQL39y-sF-260" value="" style="shape=tableRow;horizontal=0;startSize=0;swimlaneHead=0;swimlaneBody=0;fillColor=none;collapsible=0;dropTarget=0;points=[[0,0.5],[1,0.5]];portConstraint=eastwest;top=0;left=0;right=0;bottom=0;html=1;fontSize=30;" parent="bLDJNGgqcDWYQL39y-sF-250" vertex="1">
          <mxGeometry y="120" width="267" height="30" as="geometry" />
        </mxCell>
        <mxCell id="bLDJNGgqcDWYQL39y-sF-261" value="" style="shape=partialRectangle;connectable=0;fillColor=none;top=0;left=0;bottom=0;right=0;editable=1;overflow=hidden;html=1;whiteSpace=wrap;fontSize=25;" parent="bLDJNGgqcDWYQL39y-sF-260" vertex="1">
          <mxGeometry width="117.99999999999989" height="30" as="geometry">
            <mxRectangle width="117.99999999999989" height="30" as="alternateBounds" />
          </mxGeometry>
        </mxCell>
        <mxCell id="bLDJNGgqcDWYQL39y-sF-262" value="Row 4" style="shape=partialRectangle;connectable=0;fillColor=none;top=0;left=0;bottom=0;right=0;align=left;spacingLeft=6;overflow=hidden;html=1;whiteSpace=wrap;fontSize=25;" parent="bLDJNGgqcDWYQL39y-sF-260" vertex="1">
          <mxGeometry x="117.99999999999989" width="149.0000000000001" height="30" as="geometry">
            <mxRectangle width="149.0000000000001" height="30" as="alternateBounds" />
          </mxGeometry>
        </mxCell>
        <mxCell id="bLDJNGgqcDWYQL39y-sF-269" value="Applicants" style="shape=table;startSize=44;container=1;collapsible=1;childLayout=tableLayout;fixedRows=1;rowLines=0;fontStyle=1;align=center;resizeLast=1;html=1;whiteSpace=wrap;fontSize=30;" parent="1" vertex="1">
          <mxGeometry x="966" y="1654" width="351" height="446" as="geometry" />
        </mxCell>
        <mxCell id="Tg3Lx0oodnG4xRhlfY1d-23" value="" style="shape=tableRow;horizontal=0;startSize=0;swimlaneHead=0;swimlaneBody=0;fillColor=none;collapsible=0;dropTarget=0;points=[[0,0.5],[1,0.5]];portConstraint=eastwest;top=0;left=0;right=0;bottom=1;html=1;fontSize=30;fontStyle=0" parent="bLDJNGgqcDWYQL39y-sF-269" vertex="1">
          <mxGeometry y="44" width="351" height="40" as="geometry" />
        </mxCell>
        <mxCell id="Tg3Lx0oodnG4xRhlfY1d-24" value="&lt;span style=&quot;font-weight: 700;&quot;&gt;PK&lt;/span&gt;" style="shape=partialRectangle;connectable=0;fillColor=none;top=0;left=0;bottom=0;right=0;editable=1;overflow=hidden;html=1;whiteSpace=wrap;fontSize=25;" parent="Tg3Lx0oodnG4xRhlfY1d-23" vertex="1">
          <mxGeometry width="117.99999999999989" height="40" as="geometry">
            <mxRectangle width="117.99999999999989" height="40" as="alternateBounds" />
          </mxGeometry>
        </mxCell>
        <mxCell id="Tg3Lx0oodnG4xRhlfY1d-25" value="&lt;span style=&quot;font-weight: 700;&quot;&gt;ApplicantID&lt;/span&gt;" style="shape=partialRectangle;connectable=0;fillColor=none;top=0;left=0;bottom=0;right=0;align=left;spacingLeft=6;overflow=hidden;html=1;whiteSpace=wrap;fontSize=25;" parent="Tg3Lx0oodnG4xRhlfY1d-23" vertex="1">
          <mxGeometry x="117.99999999999989" width="233.0000000000001" height="40" as="geometry">
            <mxRectangle width="233.0000000000001" height="40" as="alternateBounds" />
          </mxGeometry>
        </mxCell>
        <mxCell id="zMVUV6hLSOokIp0R_ec7-5" value="" style="shape=tableRow;horizontal=0;startSize=0;swimlaneHead=0;swimlaneBody=0;fillColor=none;collapsible=0;dropTarget=0;points=[[0,0.5],[1,0.5]];portConstraint=eastwest;top=0;left=0;right=0;bottom=0;html=1;fontSize=30;" vertex="1" parent="bLDJNGgqcDWYQL39y-sF-269">
          <mxGeometry y="84" width="351" height="40" as="geometry" />
        </mxCell>
        <mxCell id="zMVUV6hLSOokIp0R_ec7-6" value="" style="shape=partialRectangle;connectable=0;fillColor=none;top=0;left=0;bottom=0;right=0;editable=1;overflow=hidden;html=1;whiteSpace=wrap;fontSize=25;" vertex="1" parent="zMVUV6hLSOokIp0R_ec7-5">
          <mxGeometry width="117.99999999999989" height="40" as="geometry">
            <mxRectangle width="117.99999999999989" height="40" as="alternateBounds" />
          </mxGeometry>
        </mxCell>
        <mxCell id="zMVUV6hLSOokIp0R_ec7-7" value="Name" style="shape=partialRectangle;connectable=0;fillColor=none;top=0;left=0;bottom=0;right=0;align=left;spacingLeft=6;overflow=hidden;html=1;whiteSpace=wrap;fontSize=25;" vertex="1" parent="zMVUV6hLSOokIp0R_ec7-5">
          <mxGeometry x="117.99999999999989" width="233.0000000000001" height="40" as="geometry">
            <mxRectangle width="233.0000000000001" height="40" as="alternateBounds" />
          </mxGeometry>
        </mxCell>
        <mxCell id="zMVUV6hLSOokIp0R_ec7-8" value="" style="shape=tableRow;horizontal=0;startSize=0;swimlaneHead=0;swimlaneBody=0;fillColor=none;collapsible=0;dropTarget=0;points=[[0,0.5],[1,0.5]];portConstraint=eastwest;top=0;left=0;right=0;bottom=0;html=1;fontSize=30;" vertex="1" parent="bLDJNGgqcDWYQL39y-sF-269">
          <mxGeometry y="124" width="351" height="40" as="geometry" />
        </mxCell>
        <mxCell id="zMVUV6hLSOokIp0R_ec7-9" value="" style="shape=partialRectangle;connectable=0;fillColor=none;top=0;left=0;bottom=0;right=0;editable=1;overflow=hidden;html=1;whiteSpace=wrap;fontSize=25;" vertex="1" parent="zMVUV6hLSOokIp0R_ec7-8">
          <mxGeometry width="117.99999999999989" height="40" as="geometry">
            <mxRectangle width="117.99999999999989" height="40" as="alternateBounds" />
          </mxGeometry>
        </mxCell>
        <mxCell id="zMVUV6hLSOokIp0R_ec7-10" value="Gender" style="shape=partialRectangle;connectable=0;fillColor=none;top=0;left=0;bottom=0;right=0;align=left;spacingLeft=6;overflow=hidden;html=1;whiteSpace=wrap;fontSize=25;" vertex="1" parent="zMVUV6hLSOokIp0R_ec7-8">
          <mxGeometry x="117.99999999999989" width="233.0000000000001" height="40" as="geometry">
            <mxRectangle width="233.0000000000001" height="40" as="alternateBounds" />
          </mxGeometry>
        </mxCell>
        <mxCell id="zMVUV6hLSOokIp0R_ec7-11" value="" style="shape=tableRow;horizontal=0;startSize=0;swimlaneHead=0;swimlaneBody=0;fillColor=none;collapsible=0;dropTarget=0;points=[[0,0.5],[1,0.5]];portConstraint=eastwest;top=0;left=0;right=0;bottom=0;html=1;fontSize=30;" vertex="1" parent="bLDJNGgqcDWYQL39y-sF-269">
          <mxGeometry y="164" width="351" height="40" as="geometry" />
        </mxCell>
        <mxCell id="zMVUV6hLSOokIp0R_ec7-12" value="&lt;div&gt;&lt;br&gt;&lt;/div&gt;" style="shape=partialRectangle;connectable=0;fillColor=none;top=0;left=0;bottom=0;right=0;editable=1;overflow=hidden;html=1;whiteSpace=wrap;fontSize=25;" vertex="1" parent="zMVUV6hLSOokIp0R_ec7-11">
          <mxGeometry width="117.99999999999989" height="40" as="geometry">
            <mxRectangle width="117.99999999999989" height="40" as="alternateBounds" />
          </mxGeometry>
        </mxCell>
        <mxCell id="zMVUV6hLSOokIp0R_ec7-13" value="Age" style="shape=partialRectangle;connectable=0;fillColor=none;top=0;left=0;bottom=0;right=0;align=left;spacingLeft=6;overflow=hidden;html=1;whiteSpace=wrap;fontSize=25;" vertex="1" parent="zMVUV6hLSOokIp0R_ec7-11">
          <mxGeometry x="117.99999999999989" width="233.0000000000001" height="40" as="geometry">
            <mxRectangle width="233.0000000000001" height="40" as="alternateBounds" />
          </mxGeometry>
        </mxCell>
        <mxCell id="zMVUV6hLSOokIp0R_ec7-14" value="" style="shape=tableRow;horizontal=0;startSize=0;swimlaneHead=0;swimlaneBody=0;fillColor=none;collapsible=0;dropTarget=0;points=[[0,0.5],[1,0.5]];portConstraint=eastwest;top=0;left=0;right=0;bottom=0;html=1;fontSize=30;" vertex="1" parent="bLDJNGgqcDWYQL39y-sF-269">
          <mxGeometry y="204" width="351" height="40" as="geometry" />
        </mxCell>
        <mxCell id="zMVUV6hLSOokIp0R_ec7-15" value="&lt;div&gt;&lt;br&gt;&lt;/div&gt;" style="shape=partialRectangle;connectable=0;fillColor=none;top=0;left=0;bottom=0;right=0;editable=1;overflow=hidden;html=1;whiteSpace=wrap;fontSize=25;" vertex="1" parent="zMVUV6hLSOokIp0R_ec7-14">
          <mxGeometry width="117.99999999999989" height="40" as="geometry">
            <mxRectangle width="117.99999999999989" height="40" as="alternateBounds" />
          </mxGeometry>
        </mxCell>
        <mxCell id="zMVUV6hLSOokIp0R_ec7-16" value="PhoneNumber" style="shape=partialRectangle;connectable=0;fillColor=none;top=0;left=0;bottom=0;right=0;align=left;spacingLeft=6;overflow=hidden;html=1;whiteSpace=wrap;fontSize=25;" vertex="1" parent="zMVUV6hLSOokIp0R_ec7-14">
          <mxGeometry x="117.99999999999989" width="233.0000000000001" height="40" as="geometry">
            <mxRectangle width="233.0000000000001" height="40" as="alternateBounds" />
          </mxGeometry>
        </mxCell>
        <mxCell id="zMVUV6hLSOokIp0R_ec7-17" value="" style="shape=tableRow;horizontal=0;startSize=0;swimlaneHead=0;swimlaneBody=0;fillColor=none;collapsible=0;dropTarget=0;points=[[0,0.5],[1,0.5]];portConstraint=eastwest;top=0;left=0;right=0;bottom=0;html=1;fontSize=30;" vertex="1" parent="bLDJNGgqcDWYQL39y-sF-269">
          <mxGeometry y="244" width="351" height="40" as="geometry" />
        </mxCell>
        <mxCell id="zMVUV6hLSOokIp0R_ec7-18" value="&lt;div&gt;&lt;br&gt;&lt;/div&gt;" style="shape=partialRectangle;connectable=0;fillColor=none;top=0;left=0;bottom=0;right=0;editable=1;overflow=hidden;html=1;whiteSpace=wrap;fontSize=25;" vertex="1" parent="zMVUV6hLSOokIp0R_ec7-17">
          <mxGeometry width="117.99999999999989" height="40" as="geometry">
            <mxRectangle width="117.99999999999989" height="40" as="alternateBounds" />
          </mxGeometry>
        </mxCell>
        <mxCell id="zMVUV6hLSOokIp0R_ec7-19" value="Email" style="shape=partialRectangle;connectable=0;fillColor=none;top=0;left=0;bottom=0;right=0;align=left;spacingLeft=6;overflow=hidden;html=1;whiteSpace=wrap;fontSize=25;" vertex="1" parent="zMVUV6hLSOokIp0R_ec7-17">
          <mxGeometry x="117.99999999999989" width="233.0000000000001" height="40" as="geometry">
            <mxRectangle width="233.0000000000001" height="40" as="alternateBounds" />
          </mxGeometry>
        </mxCell>
        <mxCell id="bLDJNGgqcDWYQL39y-sF-276" value="" style="shape=tableRow;horizontal=0;startSize=0;swimlaneHead=0;swimlaneBody=0;fillColor=none;collapsible=0;dropTarget=0;points=[[0,0.5],[1,0.5]];portConstraint=eastwest;top=0;left=0;right=0;bottom=0;html=1;fontSize=30;" parent="bLDJNGgqcDWYQL39y-sF-269" vertex="1">
          <mxGeometry y="284" width="351" height="40" as="geometry" />
        </mxCell>
        <mxCell id="bLDJNGgqcDWYQL39y-sF-277" value="" style="shape=partialRectangle;connectable=0;fillColor=none;top=0;left=0;bottom=0;right=0;editable=1;overflow=hidden;html=1;whiteSpace=wrap;fontSize=25;" parent="bLDJNGgqcDWYQL39y-sF-276" vertex="1">
          <mxGeometry width="117.99999999999989" height="40" as="geometry">
            <mxRectangle width="117.99999999999989" height="40" as="alternateBounds" />
          </mxGeometry>
        </mxCell>
        <mxCell id="bLDJNGgqcDWYQL39y-sF-278" value="EducationLevel" style="shape=partialRectangle;connectable=0;fillColor=none;top=0;left=0;bottom=0;right=0;align=left;spacingLeft=6;overflow=hidden;html=1;whiteSpace=wrap;fontSize=25;" parent="bLDJNGgqcDWYQL39y-sF-276" vertex="1">
          <mxGeometry x="117.99999999999989" width="233.0000000000001" height="40" as="geometry">
            <mxRectangle width="233.0000000000001" height="40" as="alternateBounds" />
          </mxGeometry>
        </mxCell>
        <mxCell id="bLDJNGgqcDWYQL39y-sF-279" value="" style="shape=tableRow;horizontal=0;startSize=0;swimlaneHead=0;swimlaneBody=0;fillColor=none;collapsible=0;dropTarget=0;points=[[0,0.5],[1,0.5]];portConstraint=eastwest;top=0;left=0;right=0;bottom=0;html=1;fontSize=30;" parent="bLDJNGgqcDWYQL39y-sF-269" vertex="1">
          <mxGeometry y="324" width="351" height="40" as="geometry" />
        </mxCell>
        <mxCell id="bLDJNGgqcDWYQL39y-sF-280" value="" style="shape=partialRectangle;connectable=0;fillColor=none;top=0;left=0;bottom=0;right=0;editable=1;overflow=hidden;html=1;whiteSpace=wrap;fontSize=25;" parent="bLDJNGgqcDWYQL39y-sF-279" vertex="1">
          <mxGeometry width="117.99999999999989" height="40" as="geometry">
            <mxRectangle width="117.99999999999989" height="40" as="alternateBounds" />
          </mxGeometry>
        </mxCell>
        <mxCell id="bLDJNGgqcDWYQL39y-sF-281" value="Major" style="shape=partialRectangle;connectable=0;fillColor=none;top=0;left=0;bottom=0;right=0;align=left;spacingLeft=6;overflow=hidden;html=1;whiteSpace=wrap;fontSize=25;" parent="bLDJNGgqcDWYQL39y-sF-279" vertex="1">
          <mxGeometry x="117.99999999999989" width="233.0000000000001" height="40" as="geometry">
            <mxRectangle width="233.0000000000001" height="40" as="alternateBounds" />
          </mxGeometry>
        </mxCell>
        <mxCell id="bLDJNGgqcDWYQL39y-sF-282" value="" style="shape=tableRow;horizontal=0;startSize=0;swimlaneHead=0;swimlaneBody=0;fillColor=none;collapsible=0;dropTarget=0;points=[[0,0.5],[1,0.5]];portConstraint=eastwest;top=0;left=0;right=0;bottom=0;html=1;fontSize=30;" parent="bLDJNGgqcDWYQL39y-sF-269" vertex="1">
          <mxGeometry y="364" width="351" height="40" as="geometry" />
        </mxCell>
        <mxCell id="bLDJNGgqcDWYQL39y-sF-283" value="" style="shape=partialRectangle;connectable=0;fillColor=none;top=0;left=0;bottom=0;right=0;editable=1;overflow=hidden;html=1;whiteSpace=wrap;fontSize=25;" parent="bLDJNGgqcDWYQL39y-sF-282" vertex="1">
          <mxGeometry width="117.99999999999989" height="40" as="geometry">
            <mxRectangle width="117.99999999999989" height="40" as="alternateBounds" />
          </mxGeometry>
        </mxCell>
        <mxCell id="bLDJNGgqcDWYQL39y-sF-284" value="Resume" style="shape=partialRectangle;connectable=0;fillColor=none;top=0;left=0;bottom=0;right=0;align=left;spacingLeft=6;overflow=hidden;html=1;whiteSpace=wrap;fontSize=25;" parent="bLDJNGgqcDWYQL39y-sF-282" vertex="1">
          <mxGeometry x="117.99999999999989" width="233.0000000000001" height="40" as="geometry">
            <mxRectangle width="233.0000000000001" height="40" as="alternateBounds" />
          </mxGeometry>
        </mxCell>
        <mxCell id="bLDJNGgqcDWYQL39y-sF-285" value="" style="shape=tableRow;horizontal=0;startSize=0;swimlaneHead=0;swimlaneBody=0;fillColor=none;collapsible=0;dropTarget=0;points=[[0,0.5],[1,0.5]];portConstraint=eastwest;top=0;left=0;right=0;bottom=0;html=1;fontSize=30;" parent="bLDJNGgqcDWYQL39y-sF-269" vertex="1">
          <mxGeometry y="404" width="351" height="40" as="geometry" />
        </mxCell>
        <mxCell id="bLDJNGgqcDWYQL39y-sF-286" value="" style="shape=partialRectangle;connectable=0;fillColor=none;top=0;left=0;bottom=0;right=0;editable=1;overflow=hidden;html=1;whiteSpace=wrap;fontSize=25;" parent="bLDJNGgqcDWYQL39y-sF-285" vertex="1">
          <mxGeometry width="117.99999999999989" height="40" as="geometry">
            <mxRectangle width="117.99999999999989" height="40" as="alternateBounds" />
          </mxGeometry>
        </mxCell>
        <mxCell id="bLDJNGgqcDWYQL39y-sF-287" value="Portfolio" style="shape=partialRectangle;connectable=0;fillColor=none;top=0;left=0;bottom=0;right=0;align=left;spacingLeft=6;overflow=hidden;html=1;whiteSpace=wrap;fontSize=25;" parent="bLDJNGgqcDWYQL39y-sF-285" vertex="1">
          <mxGeometry x="117.99999999999989" width="233.0000000000001" height="40" as="geometry">
            <mxRectangle width="233.0000000000001" height="40" as="alternateBounds" />
          </mxGeometry>
        </mxCell>
        <mxCell id="bLDJNGgqcDWYQL39y-sF-288" value="Employees" style="shape=table;startSize=41;container=1;collapsible=1;childLayout=tableLayout;fixedRows=1;rowLines=0;fontStyle=1;align=center;resizeLast=1;html=1;whiteSpace=wrap;fontSize=30;" parent="1" vertex="1">
          <mxGeometry x="605" y="2143" width="329" height="441" as="geometry" />
        </mxCell>
        <mxCell id="bLDJNGgqcDWYQL39y-sF-289" value="" style="shape=tableRow;horizontal=0;startSize=0;swimlaneHead=0;swimlaneBody=0;fillColor=none;collapsible=0;dropTarget=0;points=[[0,0.5],[1,0.5]];portConstraint=eastwest;top=0;left=0;right=0;bottom=0;html=1;fontSize=30;" parent="bLDJNGgqcDWYQL39y-sF-288" vertex="1">
          <mxGeometry y="41" width="329" height="40" as="geometry" />
        </mxCell>
        <mxCell id="bLDJNGgqcDWYQL39y-sF-290" value="PK" style="shape=partialRectangle;connectable=0;fillColor=none;top=0;left=0;bottom=0;right=0;fontStyle=1;overflow=hidden;html=1;whiteSpace=wrap;fontSize=25;" parent="bLDJNGgqcDWYQL39y-sF-289" vertex="1">
          <mxGeometry width="117.99999999999989" height="40" as="geometry">
            <mxRectangle width="117.99999999999989" height="40" as="alternateBounds" />
          </mxGeometry>
        </mxCell>
        <mxCell id="bLDJNGgqcDWYQL39y-sF-291" value="EmployeeID" style="shape=partialRectangle;connectable=0;fillColor=none;top=0;left=0;bottom=0;right=0;align=left;spacingLeft=6;fontStyle=1;overflow=hidden;html=1;whiteSpace=wrap;fontSize=25;" parent="bLDJNGgqcDWYQL39y-sF-289" vertex="1">
          <mxGeometry x="117.99999999999989" width="211.0000000000001" height="40" as="geometry">
            <mxRectangle width="211.0000000000001" height="40" as="alternateBounds" />
          </mxGeometry>
        </mxCell>
        <mxCell id="bLDJNGgqcDWYQL39y-sF-526" value="" style="shape=tableRow;horizontal=0;startSize=0;swimlaneHead=0;swimlaneBody=0;fillColor=none;collapsible=0;dropTarget=0;points=[[0,0.5],[1,0.5]];portConstraint=eastwest;top=0;left=0;right=0;bottom=0;html=1;fontSize=30;fontStyle=0" parent="bLDJNGgqcDWYQL39y-sF-288" vertex="1">
          <mxGeometry y="81" width="329" height="40" as="geometry" />
        </mxCell>
        <mxCell id="bLDJNGgqcDWYQL39y-sF-527" value="PK, FK1" style="shape=partialRectangle;connectable=0;fillColor=none;top=0;left=0;bottom=0;right=0;fontStyle=1;overflow=hidden;html=1;whiteSpace=wrap;fontSize=25;" parent="bLDJNGgqcDWYQL39y-sF-526" vertex="1">
          <mxGeometry width="117.99999999999989" height="40" as="geometry">
            <mxRectangle width="117.99999999999989" height="40" as="alternateBounds" />
          </mxGeometry>
        </mxCell>
        <mxCell id="bLDJNGgqcDWYQL39y-sF-528" value="OrgID" style="shape=partialRectangle;connectable=0;fillColor=none;top=0;left=0;bottom=0;right=0;align=left;spacingLeft=6;fontStyle=1;overflow=hidden;html=1;whiteSpace=wrap;fontSize=25;" parent="bLDJNGgqcDWYQL39y-sF-526" vertex="1">
          <mxGeometry x="117.99999999999989" width="211.0000000000001" height="40" as="geometry">
            <mxRectangle width="211.0000000000001" height="40" as="alternateBounds" />
          </mxGeometry>
        </mxCell>
        <mxCell id="bLDJNGgqcDWYQL39y-sF-292" value="" style="shape=tableRow;horizontal=0;startSize=0;swimlaneHead=0;swimlaneBody=0;fillColor=none;collapsible=0;dropTarget=0;points=[[0,0.5],[1,0.5]];portConstraint=eastwest;top=0;left=0;right=0;bottom=1;html=1;fontSize=30;" parent="bLDJNGgqcDWYQL39y-sF-288" vertex="1">
          <mxGeometry y="121" width="329" height="40" as="geometry" />
        </mxCell>
        <mxCell id="bLDJNGgqcDWYQL39y-sF-293" value="FK2" style="shape=partialRectangle;connectable=0;fillColor=none;top=0;left=0;bottom=0;right=0;fontStyle=0;overflow=hidden;html=1;whiteSpace=wrap;fontSize=25;" parent="bLDJNGgqcDWYQL39y-sF-292" vertex="1">
          <mxGeometry width="117.99999999999989" height="40" as="geometry">
            <mxRectangle width="117.99999999999989" height="40" as="alternateBounds" />
          </mxGeometry>
        </mxCell>
        <mxCell id="bLDJNGgqcDWYQL39y-sF-294" value="JobPostID" style="shape=partialRectangle;connectable=0;fillColor=none;top=0;left=0;bottom=0;right=0;align=left;spacingLeft=6;fontStyle=0;overflow=hidden;html=1;whiteSpace=wrap;fontSize=25;" parent="bLDJNGgqcDWYQL39y-sF-292" vertex="1">
          <mxGeometry x="117.99999999999989" width="211.0000000000001" height="40" as="geometry">
            <mxRectangle width="211.0000000000001" height="40" as="alternateBounds" />
          </mxGeometry>
        </mxCell>
        <mxCell id="zMVUV6hLSOokIp0R_ec7-24" value="" style="shape=tableRow;horizontal=0;startSize=0;swimlaneHead=0;swimlaneBody=0;fillColor=none;collapsible=0;dropTarget=0;points=[[0,0.5],[1,0.5]];portConstraint=eastwest;top=0;left=0;right=0;bottom=0;html=1;fontSize=30;" vertex="1" parent="bLDJNGgqcDWYQL39y-sF-288">
          <mxGeometry y="161" width="329" height="40" as="geometry" />
        </mxCell>
        <mxCell id="zMVUV6hLSOokIp0R_ec7-25" value="" style="shape=partialRectangle;connectable=0;fillColor=none;top=0;left=0;bottom=0;right=0;editable=1;overflow=hidden;html=1;whiteSpace=wrap;fontSize=25;" vertex="1" parent="zMVUV6hLSOokIp0R_ec7-24">
          <mxGeometry width="117.99999999999989" height="40" as="geometry">
            <mxRectangle width="117.99999999999989" height="40" as="alternateBounds" />
          </mxGeometry>
        </mxCell>
        <mxCell id="zMVUV6hLSOokIp0R_ec7-26" value="Name" style="shape=partialRectangle;connectable=0;fillColor=none;top=0;left=0;bottom=0;right=0;align=left;spacingLeft=6;overflow=hidden;html=1;whiteSpace=wrap;fontSize=25;" vertex="1" parent="zMVUV6hLSOokIp0R_ec7-24">
          <mxGeometry x="117.99999999999989" width="211.0000000000001" height="40" as="geometry">
            <mxRectangle width="211.0000000000001" height="40" as="alternateBounds" />
          </mxGeometry>
        </mxCell>
        <mxCell id="zMVUV6hLSOokIp0R_ec7-27" value="" style="shape=tableRow;horizontal=0;startSize=0;swimlaneHead=0;swimlaneBody=0;fillColor=none;collapsible=0;dropTarget=0;points=[[0,0.5],[1,0.5]];portConstraint=eastwest;top=0;left=0;right=0;bottom=0;html=1;fontSize=30;" vertex="1" parent="bLDJNGgqcDWYQL39y-sF-288">
          <mxGeometry y="201" width="329" height="40" as="geometry" />
        </mxCell>
        <mxCell id="zMVUV6hLSOokIp0R_ec7-28" value="" style="shape=partialRectangle;connectable=0;fillColor=none;top=0;left=0;bottom=0;right=0;editable=1;overflow=hidden;html=1;whiteSpace=wrap;fontSize=25;" vertex="1" parent="zMVUV6hLSOokIp0R_ec7-27">
          <mxGeometry width="117.99999999999989" height="40" as="geometry">
            <mxRectangle width="117.99999999999989" height="40" as="alternateBounds" />
          </mxGeometry>
        </mxCell>
        <mxCell id="zMVUV6hLSOokIp0R_ec7-29" value="Gender" style="shape=partialRectangle;connectable=0;fillColor=none;top=0;left=0;bottom=0;right=0;align=left;spacingLeft=6;overflow=hidden;html=1;whiteSpace=wrap;fontSize=25;" vertex="1" parent="zMVUV6hLSOokIp0R_ec7-27">
          <mxGeometry x="117.99999999999989" width="211.0000000000001" height="40" as="geometry">
            <mxRectangle width="211.0000000000001" height="40" as="alternateBounds" />
          </mxGeometry>
        </mxCell>
        <mxCell id="zMVUV6hLSOokIp0R_ec7-30" value="" style="shape=tableRow;horizontal=0;startSize=0;swimlaneHead=0;swimlaneBody=0;fillColor=none;collapsible=0;dropTarget=0;points=[[0,0.5],[1,0.5]];portConstraint=eastwest;top=0;left=0;right=0;bottom=0;html=1;fontSize=30;" vertex="1" parent="bLDJNGgqcDWYQL39y-sF-288">
          <mxGeometry y="241" width="329" height="40" as="geometry" />
        </mxCell>
        <mxCell id="zMVUV6hLSOokIp0R_ec7-31" value="&lt;div&gt;&lt;br&gt;&lt;/div&gt;" style="shape=partialRectangle;connectable=0;fillColor=none;top=0;left=0;bottom=0;right=0;editable=1;overflow=hidden;html=1;whiteSpace=wrap;fontSize=25;" vertex="1" parent="zMVUV6hLSOokIp0R_ec7-30">
          <mxGeometry width="117.99999999999989" height="40" as="geometry">
            <mxRectangle width="117.99999999999989" height="40" as="alternateBounds" />
          </mxGeometry>
        </mxCell>
        <mxCell id="zMVUV6hLSOokIp0R_ec7-32" value="Age" style="shape=partialRectangle;connectable=0;fillColor=none;top=0;left=0;bottom=0;right=0;align=left;spacingLeft=6;overflow=hidden;html=1;whiteSpace=wrap;fontSize=25;" vertex="1" parent="zMVUV6hLSOokIp0R_ec7-30">
          <mxGeometry x="117.99999999999989" width="211.0000000000001" height="40" as="geometry">
            <mxRectangle width="211.0000000000001" height="40" as="alternateBounds" />
          </mxGeometry>
        </mxCell>
        <mxCell id="zMVUV6hLSOokIp0R_ec7-33" value="" style="shape=tableRow;horizontal=0;startSize=0;swimlaneHead=0;swimlaneBody=0;fillColor=none;collapsible=0;dropTarget=0;points=[[0,0.5],[1,0.5]];portConstraint=eastwest;top=0;left=0;right=0;bottom=0;html=1;fontSize=30;" vertex="1" parent="bLDJNGgqcDWYQL39y-sF-288">
          <mxGeometry y="281" width="329" height="40" as="geometry" />
        </mxCell>
        <mxCell id="zMVUV6hLSOokIp0R_ec7-34" value="&lt;div&gt;&lt;br&gt;&lt;/div&gt;" style="shape=partialRectangle;connectable=0;fillColor=none;top=0;left=0;bottom=0;right=0;editable=1;overflow=hidden;html=1;whiteSpace=wrap;fontSize=25;" vertex="1" parent="zMVUV6hLSOokIp0R_ec7-33">
          <mxGeometry width="117.99999999999989" height="40" as="geometry">
            <mxRectangle width="117.99999999999989" height="40" as="alternateBounds" />
          </mxGeometry>
        </mxCell>
        <mxCell id="zMVUV6hLSOokIp0R_ec7-35" value="PhoneNumber" style="shape=partialRectangle;connectable=0;fillColor=none;top=0;left=0;bottom=0;right=0;align=left;spacingLeft=6;overflow=hidden;html=1;whiteSpace=wrap;fontSize=25;" vertex="1" parent="zMVUV6hLSOokIp0R_ec7-33">
          <mxGeometry x="117.99999999999989" width="211.0000000000001" height="40" as="geometry">
            <mxRectangle width="211.0000000000001" height="40" as="alternateBounds" />
          </mxGeometry>
        </mxCell>
        <mxCell id="zMVUV6hLSOokIp0R_ec7-36" value="" style="shape=tableRow;horizontal=0;startSize=0;swimlaneHead=0;swimlaneBody=0;fillColor=none;collapsible=0;dropTarget=0;points=[[0,0.5],[1,0.5]];portConstraint=eastwest;top=0;left=0;right=0;bottom=0;html=1;fontSize=30;" vertex="1" parent="bLDJNGgqcDWYQL39y-sF-288">
          <mxGeometry y="321" width="329" height="40" as="geometry" />
        </mxCell>
        <mxCell id="zMVUV6hLSOokIp0R_ec7-37" value="&lt;div&gt;&lt;br&gt;&lt;/div&gt;" style="shape=partialRectangle;connectable=0;fillColor=none;top=0;left=0;bottom=0;right=0;editable=1;overflow=hidden;html=1;whiteSpace=wrap;fontSize=25;" vertex="1" parent="zMVUV6hLSOokIp0R_ec7-36">
          <mxGeometry width="117.99999999999989" height="40" as="geometry">
            <mxRectangle width="117.99999999999989" height="40" as="alternateBounds" />
          </mxGeometry>
        </mxCell>
        <mxCell id="zMVUV6hLSOokIp0R_ec7-38" value="Email" style="shape=partialRectangle;connectable=0;fillColor=none;top=0;left=0;bottom=0;right=0;align=left;spacingLeft=6;overflow=hidden;html=1;whiteSpace=wrap;fontSize=25;" vertex="1" parent="zMVUV6hLSOokIp0R_ec7-36">
          <mxGeometry x="117.99999999999989" width="211.0000000000001" height="40" as="geometry">
            <mxRectangle width="211.0000000000001" height="40" as="alternateBounds" />
          </mxGeometry>
        </mxCell>
        <mxCell id="bLDJNGgqcDWYQL39y-sF-544" value="" style="shape=tableRow;horizontal=0;startSize=0;swimlaneHead=0;swimlaneBody=0;fillColor=none;collapsible=0;dropTarget=0;points=[[0,0.5],[1,0.5]];portConstraint=eastwest;top=0;left=0;right=0;bottom=0;html=1;fontSize=30;fontStyle=0" parent="bLDJNGgqcDWYQL39y-sF-288" vertex="1">
          <mxGeometry y="361" width="329" height="40" as="geometry" />
        </mxCell>
        <mxCell id="bLDJNGgqcDWYQL39y-sF-545" value="" style="shape=partialRectangle;connectable=0;fillColor=none;top=0;left=0;bottom=0;right=0;fontStyle=0;overflow=hidden;html=1;whiteSpace=wrap;fontSize=25;" parent="bLDJNGgqcDWYQL39y-sF-544" vertex="1">
          <mxGeometry width="117.99999999999989" height="40" as="geometry">
            <mxRectangle width="117.99999999999989" height="40" as="alternateBounds" />
          </mxGeometry>
        </mxCell>
        <mxCell id="bLDJNGgqcDWYQL39y-sF-546" value="EXP" style="shape=partialRectangle;connectable=0;fillColor=none;top=0;left=0;bottom=0;right=0;align=left;spacingLeft=6;fontStyle=0;overflow=hidden;html=1;whiteSpace=wrap;fontSize=25;" parent="bLDJNGgqcDWYQL39y-sF-544" vertex="1">
          <mxGeometry x="117.99999999999989" width="211.0000000000001" height="40" as="geometry">
            <mxRectangle width="211.0000000000001" height="40" as="alternateBounds" />
          </mxGeometry>
        </mxCell>
        <mxCell id="bLDJNGgqcDWYQL39y-sF-547" value="" style="shape=tableRow;horizontal=0;startSize=0;swimlaneHead=0;swimlaneBody=0;fillColor=none;collapsible=0;dropTarget=0;points=[[0,0.5],[1,0.5]];portConstraint=eastwest;top=0;left=0;right=0;bottom=0;html=1;fontSize=30;fontStyle=0" parent="bLDJNGgqcDWYQL39y-sF-288" vertex="1">
          <mxGeometry y="401" width="329" height="40" as="geometry" />
        </mxCell>
        <mxCell id="bLDJNGgqcDWYQL39y-sF-548" value="" style="shape=partialRectangle;connectable=0;fillColor=none;top=0;left=0;bottom=0;right=0;fontStyle=0;overflow=hidden;html=1;whiteSpace=wrap;fontSize=25;" parent="bLDJNGgqcDWYQL39y-sF-547" vertex="1">
          <mxGeometry width="117.99999999999989" height="40" as="geometry">
            <mxRectangle width="117.99999999999989" height="40" as="alternateBounds" />
          </mxGeometry>
        </mxCell>
        <mxCell id="bLDJNGgqcDWYQL39y-sF-549" value="Qualifications" style="shape=partialRectangle;connectable=0;fillColor=none;top=0;left=0;bottom=0;right=0;align=left;spacingLeft=6;fontStyle=0;overflow=hidden;html=1;whiteSpace=wrap;fontSize=25;" parent="bLDJNGgqcDWYQL39y-sF-547" vertex="1">
          <mxGeometry x="117.99999999999989" width="211.0000000000001" height="40" as="geometry">
            <mxRectangle width="211.0000000000001" height="40" as="alternateBounds" />
          </mxGeometry>
        </mxCell>
        <mxCell id="bLDJNGgqcDWYQL39y-sF-340" value="Industries" style="shape=table;startSize=30;container=1;collapsible=1;childLayout=tableLayout;fixedRows=1;rowLines=0;fontStyle=1;align=center;resizeLast=1;html=1;whiteSpace=wrap;fontSize=30;" parent="1" vertex="1">
          <mxGeometry x="2080" y="2059" width="267" height="120" as="geometry" />
        </mxCell>
        <mxCell id="bLDJNGgqcDWYQL39y-sF-344" value="" style="shape=tableRow;horizontal=0;startSize=0;swimlaneHead=0;swimlaneBody=0;fillColor=none;collapsible=0;dropTarget=0;points=[[0,0.5],[1,0.5]];portConstraint=eastwest;top=0;left=0;right=0;bottom=1;html=1;fontSize=30;" parent="bLDJNGgqcDWYQL39y-sF-340" vertex="1">
          <mxGeometry y="30" width="267" height="30" as="geometry" />
        </mxCell>
        <mxCell id="bLDJNGgqcDWYQL39y-sF-345" value="PK" style="shape=partialRectangle;connectable=0;fillColor=none;top=0;left=0;bottom=0;right=0;fontStyle=1;overflow=hidden;html=1;whiteSpace=wrap;fontSize=25;" parent="bLDJNGgqcDWYQL39y-sF-344" vertex="1">
          <mxGeometry width="117.99999999999989" height="30" as="geometry">
            <mxRectangle width="117.99999999999989" height="30" as="alternateBounds" />
          </mxGeometry>
        </mxCell>
        <mxCell id="bLDJNGgqcDWYQL39y-sF-346" value="IndustryID" style="shape=partialRectangle;connectable=0;fillColor=none;top=0;left=0;bottom=0;right=0;align=left;spacingLeft=6;fontStyle=1;overflow=hidden;html=1;whiteSpace=wrap;fontSize=25;" parent="bLDJNGgqcDWYQL39y-sF-344" vertex="1">
          <mxGeometry x="117.99999999999989" width="149.0000000000001" height="30" as="geometry">
            <mxRectangle width="149.0000000000001" height="30" as="alternateBounds" />
          </mxGeometry>
        </mxCell>
        <mxCell id="bLDJNGgqcDWYQL39y-sF-347" value="" style="shape=tableRow;horizontal=0;startSize=0;swimlaneHead=0;swimlaneBody=0;fillColor=none;collapsible=0;dropTarget=0;points=[[0,0.5],[1,0.5]];portConstraint=eastwest;top=0;left=0;right=0;bottom=0;html=1;fontSize=30;" parent="bLDJNGgqcDWYQL39y-sF-340" vertex="1">
          <mxGeometry y="60" width="267" height="30" as="geometry" />
        </mxCell>
        <mxCell id="bLDJNGgqcDWYQL39y-sF-348" value="" style="shape=partialRectangle;connectable=0;fillColor=none;top=0;left=0;bottom=0;right=0;editable=1;overflow=hidden;html=1;whiteSpace=wrap;fontSize=25;" parent="bLDJNGgqcDWYQL39y-sF-347" vertex="1">
          <mxGeometry width="117.99999999999989" height="30" as="geometry">
            <mxRectangle width="117.99999999999989" height="30" as="alternateBounds" />
          </mxGeometry>
        </mxCell>
        <mxCell id="bLDJNGgqcDWYQL39y-sF-349" value="Title" style="shape=partialRectangle;connectable=0;fillColor=none;top=0;left=0;bottom=0;right=0;align=left;spacingLeft=6;overflow=hidden;html=1;whiteSpace=wrap;fontSize=25;" parent="bLDJNGgqcDWYQL39y-sF-347" vertex="1">
          <mxGeometry x="117.99999999999989" width="149.0000000000001" height="30" as="geometry">
            <mxRectangle width="149.0000000000001" height="30" as="alternateBounds" />
          </mxGeometry>
        </mxCell>
        <mxCell id="bLDJNGgqcDWYQL39y-sF-350" value="" style="shape=tableRow;horizontal=0;startSize=0;swimlaneHead=0;swimlaneBody=0;fillColor=none;collapsible=0;dropTarget=0;points=[[0,0.5],[1,0.5]];portConstraint=eastwest;top=0;left=0;right=0;bottom=0;html=1;fontSize=30;" parent="bLDJNGgqcDWYQL39y-sF-340" vertex="1">
          <mxGeometry y="90" width="267" height="30" as="geometry" />
        </mxCell>
        <mxCell id="bLDJNGgqcDWYQL39y-sF-351" value="" style="shape=partialRectangle;connectable=0;fillColor=none;top=0;left=0;bottom=0;right=0;editable=1;overflow=hidden;html=1;whiteSpace=wrap;fontSize=25;" parent="bLDJNGgqcDWYQL39y-sF-350" vertex="1">
          <mxGeometry width="117.99999999999989" height="30" as="geometry">
            <mxRectangle width="117.99999999999989" height="30" as="alternateBounds" />
          </mxGeometry>
        </mxCell>
        <mxCell id="bLDJNGgqcDWYQL39y-sF-352" value="Desc" style="shape=partialRectangle;connectable=0;fillColor=none;top=0;left=0;bottom=0;right=0;align=left;spacingLeft=6;overflow=hidden;html=1;whiteSpace=wrap;fontSize=25;" parent="bLDJNGgqcDWYQL39y-sF-350" vertex="1">
          <mxGeometry x="117.99999999999989" width="149.0000000000001" height="30" as="geometry">
            <mxRectangle width="149.0000000000001" height="30" as="alternateBounds" />
          </mxGeometry>
        </mxCell>
        <mxCell id="bLDJNGgqcDWYQL39y-sF-366" value="Applications" style="shape=table;startSize=41;container=1;collapsible=1;childLayout=tableLayout;fixedRows=1;rowLines=0;fontStyle=1;align=center;resizeLast=1;html=1;whiteSpace=wrap;fontSize=30;fillColor=#1ba1e2;fontColor=#ffffff;strokeColor=#006EAF;" parent="1" vertex="1">
          <mxGeometry x="1534" y="1800" width="345" height="288" as="geometry" />
        </mxCell>
        <mxCell id="bLDJNGgqcDWYQL39y-sF-367" value="" style="shape=tableRow;horizontal=0;startSize=0;swimlaneHead=0;swimlaneBody=0;fillColor=none;collapsible=0;dropTarget=0;points=[[0,0.5],[1,0.5]];portConstraint=eastwest;top=0;left=0;right=0;bottom=0;html=1;fontSize=30;fontStyle=0" parent="bLDJNGgqcDWYQL39y-sF-366" vertex="1">
          <mxGeometry y="41" width="345" height="40" as="geometry" />
        </mxCell>
        <mxCell id="bLDJNGgqcDWYQL39y-sF-368" value="PK,FK1" style="shape=partialRectangle;connectable=0;fillColor=none;top=0;left=0;bottom=0;right=0;fontStyle=1;overflow=hidden;html=1;whiteSpace=wrap;fontSize=25;" parent="bLDJNGgqcDWYQL39y-sF-367" vertex="1">
          <mxGeometry width="117.99999999999989" height="40" as="geometry">
            <mxRectangle width="117.99999999999989" height="40" as="alternateBounds" />
          </mxGeometry>
        </mxCell>
        <mxCell id="bLDJNGgqcDWYQL39y-sF-369" value="OrgID" style="shape=partialRectangle;connectable=0;fillColor=none;top=0;left=0;bottom=0;right=0;align=left;spacingLeft=6;fontStyle=1;overflow=hidden;html=1;whiteSpace=wrap;fontSize=25;" parent="bLDJNGgqcDWYQL39y-sF-367" vertex="1">
          <mxGeometry x="117.99999999999989" width="227.0000000000001" height="40" as="geometry">
            <mxRectangle width="227.0000000000001" height="40" as="alternateBounds" />
          </mxGeometry>
        </mxCell>
        <mxCell id="bLDJNGgqcDWYQL39y-sF-470" value="" style="shape=tableRow;horizontal=0;startSize=0;swimlaneHead=0;swimlaneBody=0;fillColor=none;collapsible=0;dropTarget=0;points=[[0,0.5],[1,0.5]];portConstraint=eastwest;top=0;left=0;right=0;bottom=0;html=1;fontSize=30;fontStyle=0" parent="bLDJNGgqcDWYQL39y-sF-366" vertex="1">
          <mxGeometry y="81" width="345" height="40" as="geometry" />
        </mxCell>
        <mxCell id="bLDJNGgqcDWYQL39y-sF-471" value="PK,FK2" style="shape=partialRectangle;connectable=0;fillColor=none;top=0;left=0;bottom=0;right=0;fontStyle=1;overflow=hidden;html=1;whiteSpace=wrap;fontSize=25;" parent="bLDJNGgqcDWYQL39y-sF-470" vertex="1">
          <mxGeometry width="117.99999999999989" height="40" as="geometry">
            <mxRectangle width="117.99999999999989" height="40" as="alternateBounds" />
          </mxGeometry>
        </mxCell>
        <mxCell id="bLDJNGgqcDWYQL39y-sF-472" value="&lt;span style=&quot;&quot;&gt;PersonID&lt;/span&gt;" style="shape=partialRectangle;connectable=0;fillColor=none;top=0;left=0;bottom=0;right=0;align=left;spacingLeft=6;fontStyle=1;overflow=hidden;html=1;whiteSpace=wrap;fontSize=25;" parent="bLDJNGgqcDWYQL39y-sF-470" vertex="1">
          <mxGeometry x="117.99999999999989" width="227.0000000000001" height="40" as="geometry">
            <mxRectangle width="227.0000000000001" height="40" as="alternateBounds" />
          </mxGeometry>
        </mxCell>
        <mxCell id="bLDJNGgqcDWYQL39y-sF-370" value="" style="shape=tableRow;horizontal=0;startSize=0;swimlaneHead=0;swimlaneBody=0;fillColor=none;collapsible=0;dropTarget=0;points=[[0,0.5],[1,0.5]];portConstraint=eastwest;top=0;left=0;right=0;bottom=1;html=1;fontSize=30;fontStyle=0" parent="bLDJNGgqcDWYQL39y-sF-366" vertex="1">
          <mxGeometry y="121" width="345" height="40" as="geometry" />
        </mxCell>
        <mxCell id="bLDJNGgqcDWYQL39y-sF-371" value="PK,FK3" style="shape=partialRectangle;connectable=0;fillColor=none;top=0;left=0;bottom=0;right=0;fontStyle=1;overflow=hidden;html=1;whiteSpace=wrap;fontSize=25;" parent="bLDJNGgqcDWYQL39y-sF-370" vertex="1">
          <mxGeometry width="117.99999999999989" height="40" as="geometry">
            <mxRectangle width="117.99999999999989" height="40" as="alternateBounds" />
          </mxGeometry>
        </mxCell>
        <mxCell id="bLDJNGgqcDWYQL39y-sF-372" value="JobPostID" style="shape=partialRectangle;connectable=0;fillColor=none;top=0;left=0;bottom=0;right=0;align=left;spacingLeft=6;fontStyle=1;overflow=hidden;html=1;whiteSpace=wrap;fontSize=25;" parent="bLDJNGgqcDWYQL39y-sF-370" vertex="1">
          <mxGeometry x="117.99999999999989" width="227.0000000000001" height="40" as="geometry">
            <mxRectangle width="227.0000000000001" height="40" as="alternateBounds" />
          </mxGeometry>
        </mxCell>
        <mxCell id="bLDJNGgqcDWYQL39y-sF-373" value="" style="shape=tableRow;horizontal=0;startSize=0;swimlaneHead=0;swimlaneBody=0;fillColor=none;collapsible=0;dropTarget=0;points=[[0,0.5],[1,0.5]];portConstraint=eastwest;top=0;left=0;right=0;bottom=0;html=1;fontSize=30;fontStyle=0" parent="bLDJNGgqcDWYQL39y-sF-366" vertex="1">
          <mxGeometry y="161" width="345" height="40" as="geometry" />
        </mxCell>
        <mxCell id="bLDJNGgqcDWYQL39y-sF-374" value="" style="shape=partialRectangle;connectable=0;fillColor=none;top=0;left=0;bottom=0;right=0;editable=1;overflow=hidden;html=1;whiteSpace=wrap;fontSize=25;fontStyle=0" parent="bLDJNGgqcDWYQL39y-sF-373" vertex="1">
          <mxGeometry width="117.99999999999989" height="40" as="geometry">
            <mxRectangle width="117.99999999999989" height="40" as="alternateBounds" />
          </mxGeometry>
        </mxCell>
        <mxCell id="bLDJNGgqcDWYQL39y-sF-375" value="EmploymentTypes" style="shape=partialRectangle;connectable=0;fillColor=none;top=0;left=0;bottom=0;right=0;align=left;spacingLeft=6;overflow=hidden;html=1;whiteSpace=wrap;fontSize=25;fontStyle=0" parent="bLDJNGgqcDWYQL39y-sF-373" vertex="1">
          <mxGeometry x="117.99999999999989" width="227.0000000000001" height="40" as="geometry">
            <mxRectangle width="227.0000000000001" height="40" as="alternateBounds" />
          </mxGeometry>
        </mxCell>
        <mxCell id="bLDJNGgqcDWYQL39y-sF-376" value="" style="shape=tableRow;horizontal=0;startSize=0;swimlaneHead=0;swimlaneBody=0;fillColor=none;collapsible=0;dropTarget=0;points=[[0,0.5],[1,0.5]];portConstraint=eastwest;top=0;left=0;right=0;bottom=0;html=1;fontSize=30;fontStyle=0" parent="bLDJNGgqcDWYQL39y-sF-366" vertex="1">
          <mxGeometry y="201" width="345" height="40" as="geometry" />
        </mxCell>
        <mxCell id="bLDJNGgqcDWYQL39y-sF-377" value="" style="shape=partialRectangle;connectable=0;fillColor=none;top=0;left=0;bottom=0;right=0;editable=1;overflow=hidden;html=1;whiteSpace=wrap;fontSize=25;fontStyle=0" parent="bLDJNGgqcDWYQL39y-sF-376" vertex="1">
          <mxGeometry width="117.99999999999989" height="40" as="geometry">
            <mxRectangle width="117.99999999999989" height="40" as="alternateBounds" />
          </mxGeometry>
        </mxCell>
        <mxCell id="bLDJNGgqcDWYQL39y-sF-378" value="ApplicationStatus" style="shape=partialRectangle;connectable=0;fillColor=none;top=0;left=0;bottom=0;right=0;align=left;spacingLeft=6;overflow=hidden;html=1;whiteSpace=wrap;fontSize=25;fontStyle=0" parent="bLDJNGgqcDWYQL39y-sF-376" vertex="1">
          <mxGeometry x="117.99999999999989" width="227.0000000000001" height="40" as="geometry">
            <mxRectangle width="227.0000000000001" height="40" as="alternateBounds" />
          </mxGeometry>
        </mxCell>
        <mxCell id="Tg3Lx0oodnG4xRhlfY1d-75" value="" style="shape=tableRow;horizontal=0;startSize=0;swimlaneHead=0;swimlaneBody=0;fillColor=none;collapsible=0;dropTarget=0;points=[[0,0.5],[1,0.5]];portConstraint=eastwest;top=0;left=0;right=0;bottom=0;html=1;fontSize=30;fontStyle=0" parent="bLDJNGgqcDWYQL39y-sF-366" vertex="1">
          <mxGeometry y="241" width="345" height="40" as="geometry" />
        </mxCell>
        <mxCell id="Tg3Lx0oodnG4xRhlfY1d-76" value="" style="shape=partialRectangle;connectable=0;fillColor=none;top=0;left=0;bottom=0;right=0;editable=1;overflow=hidden;html=1;whiteSpace=wrap;fontSize=25;fontStyle=0" parent="Tg3Lx0oodnG4xRhlfY1d-75" vertex="1">
          <mxGeometry width="117.99999999999989" height="40" as="geometry">
            <mxRectangle width="117.99999999999989" height="40" as="alternateBounds" />
          </mxGeometry>
        </mxCell>
        <mxCell id="Tg3Lx0oodnG4xRhlfY1d-77" value="Date" style="shape=partialRectangle;connectable=0;fillColor=none;top=0;left=0;bottom=0;right=0;align=left;spacingLeft=6;overflow=hidden;html=1;whiteSpace=wrap;fontSize=25;fontStyle=0" parent="Tg3Lx0oodnG4xRhlfY1d-75" vertex="1">
          <mxGeometry x="117.99999999999989" width="227.0000000000001" height="40" as="geometry">
            <mxRectangle width="227.0000000000001" height="40" as="alternateBounds" />
          </mxGeometry>
        </mxCell>
        <mxCell id="bLDJNGgqcDWYQL39y-sF-379" value="Participations" style="shape=table;startSize=44;container=1;collapsible=1;childLayout=tableLayout;fixedRows=1;rowLines=0;fontStyle=1;align=center;resizeLast=1;html=1;whiteSpace=wrap;fontSize=30;" parent="1" vertex="1">
          <mxGeometry x="2067" y="2283" width="345" height="324" as="geometry" />
        </mxCell>
        <mxCell id="Tg3Lx0oodnG4xRhlfY1d-71" value="" style="shape=tableRow;horizontal=0;startSize=0;swimlaneHead=0;swimlaneBody=0;fillColor=none;collapsible=0;dropTarget=0;points=[[0,0.5],[1,0.5]];portConstraint=eastwest;top=0;left=0;right=0;bottom=0;html=1;fontSize=30;fontStyle=0" parent="bLDJNGgqcDWYQL39y-sF-379" vertex="1">
          <mxGeometry y="44" width="345" height="40" as="geometry" />
        </mxCell>
        <mxCell id="Tg3Lx0oodnG4xRhlfY1d-72" value="PK" style="shape=partialRectangle;connectable=0;fillColor=none;top=0;left=0;bottom=0;right=0;fontStyle=1;overflow=hidden;html=1;whiteSpace=wrap;fontSize=25;" parent="Tg3Lx0oodnG4xRhlfY1d-71" vertex="1">
          <mxGeometry width="117.99999999999989" height="40" as="geometry">
            <mxRectangle width="117.99999999999989" height="40" as="alternateBounds" />
          </mxGeometry>
        </mxCell>
        <mxCell id="Tg3Lx0oodnG4xRhlfY1d-73" value="PartID" style="shape=partialRectangle;connectable=0;fillColor=none;top=0;left=0;bottom=0;right=0;align=left;spacingLeft=6;fontStyle=1;overflow=hidden;html=1;whiteSpace=wrap;fontSize=25;" parent="Tg3Lx0oodnG4xRhlfY1d-71" vertex="1">
          <mxGeometry x="117.99999999999989" width="227.0000000000001" height="40" as="geometry">
            <mxRectangle width="227.0000000000001" height="40" as="alternateBounds" />
          </mxGeometry>
        </mxCell>
        <mxCell id="bLDJNGgqcDWYQL39y-sF-380" value="" style="shape=tableRow;horizontal=0;startSize=0;swimlaneHead=0;swimlaneBody=0;fillColor=none;collapsible=0;dropTarget=0;points=[[0,0.5],[1,0.5]];portConstraint=eastwest;top=0;left=0;right=0;bottom=0;html=1;fontSize=30;fontStyle=0" parent="bLDJNGgqcDWYQL39y-sF-379" vertex="1">
          <mxGeometry y="84" width="345" height="40" as="geometry" />
        </mxCell>
        <mxCell id="bLDJNGgqcDWYQL39y-sF-381" value="FK1" style="shape=partialRectangle;connectable=0;fillColor=none;top=0;left=0;bottom=0;right=0;fontStyle=0;overflow=hidden;html=1;whiteSpace=wrap;fontSize=25;" parent="bLDJNGgqcDWYQL39y-sF-380" vertex="1">
          <mxGeometry width="117.99999999999989" height="40" as="geometry">
            <mxRectangle width="117.99999999999989" height="40" as="alternateBounds" />
          </mxGeometry>
        </mxCell>
        <mxCell id="bLDJNGgqcDWYQL39y-sF-382" value="PersonID" style="shape=partialRectangle;connectable=0;fillColor=none;top=0;left=0;bottom=0;right=0;align=left;spacingLeft=6;fontStyle=0;overflow=hidden;html=1;whiteSpace=wrap;fontSize=25;" parent="bLDJNGgqcDWYQL39y-sF-380" vertex="1">
          <mxGeometry x="117.99999999999989" width="227.0000000000001" height="40" as="geometry">
            <mxRectangle width="227.0000000000001" height="40" as="alternateBounds" />
          </mxGeometry>
        </mxCell>
        <mxCell id="bLDJNGgqcDWYQL39y-sF-383" value="" style="shape=tableRow;horizontal=0;startSize=0;swimlaneHead=0;swimlaneBody=0;fillColor=none;collapsible=0;dropTarget=0;points=[[0,0.5],[1,0.5]];portConstraint=eastwest;top=0;left=0;right=0;bottom=1;html=1;fontSize=30;fontStyle=1" parent="bLDJNGgqcDWYQL39y-sF-379" vertex="1">
          <mxGeometry y="124" width="345" height="40" as="geometry" />
        </mxCell>
        <mxCell id="bLDJNGgqcDWYQL39y-sF-384" value="FK2" style="shape=partialRectangle;connectable=0;fillColor=none;top=0;left=0;bottom=0;right=0;fontStyle=0;overflow=hidden;html=1;whiteSpace=wrap;fontSize=25;" parent="bLDJNGgqcDWYQL39y-sF-383" vertex="1">
          <mxGeometry width="117.99999999999989" height="40" as="geometry">
            <mxRectangle width="117.99999999999989" height="40" as="alternateBounds" />
          </mxGeometry>
        </mxCell>
        <mxCell id="bLDJNGgqcDWYQL39y-sF-385" value="OrgID" style="shape=partialRectangle;connectable=0;fillColor=none;top=0;left=0;bottom=0;right=0;align=left;spacingLeft=6;fontStyle=0;overflow=hidden;html=1;whiteSpace=wrap;fontSize=25;" parent="bLDJNGgqcDWYQL39y-sF-383" vertex="1">
          <mxGeometry x="117.99999999999989" width="227.0000000000001" height="40" as="geometry">
            <mxRectangle width="227.0000000000001" height="40" as="alternateBounds" />
          </mxGeometry>
        </mxCell>
        <mxCell id="bLDJNGgqcDWYQL39y-sF-386" value="" style="shape=tableRow;horizontal=0;startSize=0;swimlaneHead=0;swimlaneBody=0;fillColor=none;collapsible=0;dropTarget=0;points=[[0,0.5],[1,0.5]];portConstraint=eastwest;top=0;left=0;right=0;bottom=0;html=1;fontSize=30;fontStyle=0" parent="bLDJNGgqcDWYQL39y-sF-379" vertex="1">
          <mxGeometry y="164" width="345" height="40" as="geometry" />
        </mxCell>
        <mxCell id="bLDJNGgqcDWYQL39y-sF-387" value="" style="shape=partialRectangle;connectable=0;fillColor=none;top=0;left=0;bottom=0;right=0;editable=1;overflow=hidden;html=1;whiteSpace=wrap;fontSize=25;fontStyle=0" parent="bLDJNGgqcDWYQL39y-sF-386" vertex="1">
          <mxGeometry width="117.99999999999989" height="40" as="geometry">
            <mxRectangle width="117.99999999999989" height="40" as="alternateBounds" />
          </mxGeometry>
        </mxCell>
        <mxCell id="bLDJNGgqcDWYQL39y-sF-388" value="ParticipatedBy" style="shape=partialRectangle;connectable=0;fillColor=none;top=0;left=0;bottom=0;right=0;align=left;spacingLeft=6;overflow=hidden;html=1;whiteSpace=wrap;fontSize=25;fontStyle=0" parent="bLDJNGgqcDWYQL39y-sF-386" vertex="1">
          <mxGeometry x="117.99999999999989" width="227.0000000000001" height="40" as="geometry">
            <mxRectangle width="227.0000000000001" height="40" as="alternateBounds" />
          </mxGeometry>
        </mxCell>
        <mxCell id="bLDJNGgqcDWYQL39y-sF-476" value="" style="shape=tableRow;horizontal=0;startSize=0;swimlaneHead=0;swimlaneBody=0;fillColor=none;collapsible=0;dropTarget=0;points=[[0,0.5],[1,0.5]];portConstraint=eastwest;top=0;left=0;right=0;bottom=0;html=1;fontSize=30;fontStyle=0" parent="bLDJNGgqcDWYQL39y-sF-379" vertex="1">
          <mxGeometry y="204" width="345" height="40" as="geometry" />
        </mxCell>
        <mxCell id="bLDJNGgqcDWYQL39y-sF-477" value="" style="shape=partialRectangle;connectable=0;fillColor=none;top=0;left=0;bottom=0;right=0;editable=1;overflow=hidden;html=1;whiteSpace=wrap;fontSize=25;fontStyle=0" parent="bLDJNGgqcDWYQL39y-sF-476" vertex="1">
          <mxGeometry width="117.99999999999989" height="40" as="geometry">
            <mxRectangle width="117.99999999999989" height="40" as="alternateBounds" />
          </mxGeometry>
        </mxCell>
        <mxCell id="bLDJNGgqcDWYQL39y-sF-478" value="Status" style="shape=partialRectangle;connectable=0;fillColor=none;top=0;left=0;bottom=0;right=0;align=left;spacingLeft=6;overflow=hidden;html=1;whiteSpace=wrap;fontSize=25;fontStyle=0" parent="bLDJNGgqcDWYQL39y-sF-476" vertex="1">
          <mxGeometry x="117.99999999999989" width="227.0000000000001" height="40" as="geometry">
            <mxRectangle width="227.0000000000001" height="40" as="alternateBounds" />
          </mxGeometry>
        </mxCell>
        <mxCell id="bLDJNGgqcDWYQL39y-sF-389" value="" style="shape=tableRow;horizontal=0;startSize=0;swimlaneHead=0;swimlaneBody=0;fillColor=none;collapsible=0;dropTarget=0;points=[[0,0.5],[1,0.5]];portConstraint=eastwest;top=0;left=0;right=0;bottom=0;html=1;fontSize=30;fontStyle=0" parent="bLDJNGgqcDWYQL39y-sF-379" vertex="1">
          <mxGeometry y="244" width="345" height="40" as="geometry" />
        </mxCell>
        <mxCell id="bLDJNGgqcDWYQL39y-sF-390" value="" style="shape=partialRectangle;connectable=0;fillColor=none;top=0;left=0;bottom=0;right=0;editable=1;overflow=hidden;html=1;whiteSpace=wrap;fontSize=25;fontStyle=0" parent="bLDJNGgqcDWYQL39y-sF-389" vertex="1">
          <mxGeometry width="117.99999999999989" height="40" as="geometry">
            <mxRectangle width="117.99999999999989" height="40" as="alternateBounds" />
          </mxGeometry>
        </mxCell>
        <mxCell id="bLDJNGgqcDWYQL39y-sF-391" value="DateIA" style="shape=partialRectangle;connectable=0;fillColor=none;top=0;left=0;bottom=0;right=0;align=left;spacingLeft=6;overflow=hidden;html=1;whiteSpace=wrap;fontSize=25;fontStyle=0" parent="bLDJNGgqcDWYQL39y-sF-389" vertex="1">
          <mxGeometry x="117.99999999999989" width="227.0000000000001" height="40" as="geometry">
            <mxRectangle width="227.0000000000001" height="40" as="alternateBounds" />
          </mxGeometry>
        </mxCell>
        <mxCell id="bLDJNGgqcDWYQL39y-sF-473" value="" style="shape=tableRow;horizontal=0;startSize=0;swimlaneHead=0;swimlaneBody=0;fillColor=none;collapsible=0;dropTarget=0;points=[[0,0.5],[1,0.5]];portConstraint=eastwest;top=0;left=0;right=0;bottom=0;html=1;fontSize=30;fontStyle=0" parent="bLDJNGgqcDWYQL39y-sF-379" vertex="1">
          <mxGeometry y="284" width="345" height="40" as="geometry" />
        </mxCell>
        <mxCell id="bLDJNGgqcDWYQL39y-sF-474" value="" style="shape=partialRectangle;connectable=0;fillColor=none;top=0;left=0;bottom=0;right=0;editable=1;overflow=hidden;html=1;whiteSpace=wrap;fontSize=25;fontStyle=0" parent="bLDJNGgqcDWYQL39y-sF-473" vertex="1">
          <mxGeometry width="117.99999999999989" height="40" as="geometry">
            <mxRectangle width="117.99999999999989" height="40" as="alternateBounds" />
          </mxGeometry>
        </mxCell>
        <mxCell id="bLDJNGgqcDWYQL39y-sF-475" value="DateConfirmed" style="shape=partialRectangle;connectable=0;fillColor=none;top=0;left=0;bottom=0;right=0;align=left;spacingLeft=6;overflow=hidden;html=1;whiteSpace=wrap;fontSize=25;fontStyle=0" parent="bLDJNGgqcDWYQL39y-sF-473" vertex="1">
          <mxGeometry x="117.99999999999989" width="227.0000000000001" height="40" as="geometry">
            <mxRectangle width="227.0000000000001" height="40" as="alternateBounds" />
          </mxGeometry>
        </mxCell>
        <mxCell id="bLDJNGgqcDWYQL39y-sF-444" value="Events" style="shape=table;startSize=42;container=1;collapsible=1;childLayout=tableLayout;fixedRows=1;rowLines=0;fontStyle=1;align=center;resizeLast=1;html=1;whiteSpace=wrap;fontSize=30;" parent="1" vertex="1">
          <mxGeometry x="1041" y="2902" width="267" height="246" as="geometry" />
        </mxCell>
        <mxCell id="bLDJNGgqcDWYQL39y-sF-445" value="" style="shape=tableRow;horizontal=0;startSize=0;swimlaneHead=0;swimlaneBody=0;fillColor=none;collapsible=0;dropTarget=0;points=[[0,0.5],[1,0.5]];portConstraint=eastwest;top=0;left=0;right=0;bottom=0;html=1;fontSize=30;" parent="bLDJNGgqcDWYQL39y-sF-444" vertex="1">
          <mxGeometry y="42" width="267" height="34" as="geometry" />
        </mxCell>
        <mxCell id="bLDJNGgqcDWYQL39y-sF-446" value="PK" style="shape=partialRectangle;connectable=0;fillColor=none;top=0;left=0;bottom=0;right=0;fontStyle=1;overflow=hidden;html=1;whiteSpace=wrap;fontSize=25;" parent="bLDJNGgqcDWYQL39y-sF-445" vertex="1">
          <mxGeometry width="117.99999999999989" height="34" as="geometry">
            <mxRectangle width="117.99999999999989" height="34" as="alternateBounds" />
          </mxGeometry>
        </mxCell>
        <mxCell id="bLDJNGgqcDWYQL39y-sF-447" value="EventID" style="shape=partialRectangle;connectable=0;fillColor=none;top=0;left=0;bottom=0;right=0;align=left;spacingLeft=6;fontStyle=1;overflow=hidden;html=1;whiteSpace=wrap;fontSize=25;" parent="bLDJNGgqcDWYQL39y-sF-445" vertex="1">
          <mxGeometry x="117.99999999999989" width="149.0000000000001" height="34" as="geometry">
            <mxRectangle width="149.0000000000001" height="34" as="alternateBounds" />
          </mxGeometry>
        </mxCell>
        <mxCell id="bLDJNGgqcDWYQL39y-sF-448" value="" style="shape=tableRow;horizontal=0;startSize=0;swimlaneHead=0;swimlaneBody=0;fillColor=none;collapsible=0;dropTarget=0;points=[[0,0.5],[1,0.5]];portConstraint=eastwest;top=0;left=0;right=0;bottom=1;html=1;fontSize=30;" parent="bLDJNGgqcDWYQL39y-sF-444" vertex="1">
          <mxGeometry y="76" width="267" height="34" as="geometry" />
        </mxCell>
        <mxCell id="bLDJNGgqcDWYQL39y-sF-449" value="FK1" style="shape=partialRectangle;connectable=0;fillColor=none;top=0;left=0;bottom=0;right=0;fontStyle=0;overflow=hidden;html=1;whiteSpace=wrap;fontSize=25;" parent="bLDJNGgqcDWYQL39y-sF-448" vertex="1">
          <mxGeometry width="117.99999999999989" height="34" as="geometry">
            <mxRectangle width="117.99999999999989" height="34" as="alternateBounds" />
          </mxGeometry>
        </mxCell>
        <mxCell id="bLDJNGgqcDWYQL39y-sF-450" value="LocationID" style="shape=partialRectangle;connectable=0;fillColor=none;top=0;left=0;bottom=0;right=0;align=left;spacingLeft=6;fontStyle=0;overflow=hidden;html=1;whiteSpace=wrap;fontSize=25;" parent="bLDJNGgqcDWYQL39y-sF-448" vertex="1">
          <mxGeometry x="117.99999999999989" width="149.0000000000001" height="34" as="geometry">
            <mxRectangle width="149.0000000000001" height="34" as="alternateBounds" />
          </mxGeometry>
        </mxCell>
        <mxCell id="bLDJNGgqcDWYQL39y-sF-451" value="" style="shape=tableRow;horizontal=0;startSize=0;swimlaneHead=0;swimlaneBody=0;fillColor=none;collapsible=0;dropTarget=0;points=[[0,0.5],[1,0.5]];portConstraint=eastwest;top=0;left=0;right=0;bottom=0;html=1;fontSize=30;" parent="bLDJNGgqcDWYQL39y-sF-444" vertex="1">
          <mxGeometry y="110" width="267" height="34" as="geometry" />
        </mxCell>
        <mxCell id="bLDJNGgqcDWYQL39y-sF-452" value="" style="shape=partialRectangle;connectable=0;fillColor=none;top=0;left=0;bottom=0;right=0;editable=1;overflow=hidden;html=1;whiteSpace=wrap;fontSize=25;" parent="bLDJNGgqcDWYQL39y-sF-451" vertex="1">
          <mxGeometry width="117.99999999999989" height="34" as="geometry">
            <mxRectangle width="117.99999999999989" height="34" as="alternateBounds" />
          </mxGeometry>
        </mxCell>
        <mxCell id="bLDJNGgqcDWYQL39y-sF-453" value="Title" style="shape=partialRectangle;connectable=0;fillColor=none;top=0;left=0;bottom=0;right=0;align=left;spacingLeft=6;overflow=hidden;html=1;whiteSpace=wrap;fontSize=25;" parent="bLDJNGgqcDWYQL39y-sF-451" vertex="1">
          <mxGeometry x="117.99999999999989" width="149.0000000000001" height="34" as="geometry">
            <mxRectangle width="149.0000000000001" height="34" as="alternateBounds" />
          </mxGeometry>
        </mxCell>
        <mxCell id="bLDJNGgqcDWYQL39y-sF-454" value="" style="shape=tableRow;horizontal=0;startSize=0;swimlaneHead=0;swimlaneBody=0;fillColor=none;collapsible=0;dropTarget=0;points=[[0,0.5],[1,0.5]];portConstraint=eastwest;top=0;left=0;right=0;bottom=0;html=1;fontSize=30;" parent="bLDJNGgqcDWYQL39y-sF-444" vertex="1">
          <mxGeometry y="144" width="267" height="34" as="geometry" />
        </mxCell>
        <mxCell id="bLDJNGgqcDWYQL39y-sF-455" value="" style="shape=partialRectangle;connectable=0;fillColor=none;top=0;left=0;bottom=0;right=0;editable=1;overflow=hidden;html=1;whiteSpace=wrap;fontSize=25;" parent="bLDJNGgqcDWYQL39y-sF-454" vertex="1">
          <mxGeometry width="117.99999999999989" height="34" as="geometry">
            <mxRectangle width="117.99999999999989" height="34" as="alternateBounds" />
          </mxGeometry>
        </mxCell>
        <mxCell id="bLDJNGgqcDWYQL39y-sF-456" value="Desc" style="shape=partialRectangle;connectable=0;fillColor=none;top=0;left=0;bottom=0;right=0;align=left;spacingLeft=6;overflow=hidden;html=1;whiteSpace=wrap;fontSize=25;" parent="bLDJNGgqcDWYQL39y-sF-454" vertex="1">
          <mxGeometry x="117.99999999999989" width="149.0000000000001" height="34" as="geometry">
            <mxRectangle width="149.0000000000001" height="34" as="alternateBounds" />
          </mxGeometry>
        </mxCell>
        <mxCell id="bLDJNGgqcDWYQL39y-sF-497" value="" style="shape=tableRow;horizontal=0;startSize=0;swimlaneHead=0;swimlaneBody=0;fillColor=none;collapsible=0;dropTarget=0;points=[[0,0.5],[1,0.5]];portConstraint=eastwest;top=0;left=0;right=0;bottom=0;html=1;fontSize=30;" parent="bLDJNGgqcDWYQL39y-sF-444" vertex="1">
          <mxGeometry y="178" width="267" height="34" as="geometry" />
        </mxCell>
        <mxCell id="bLDJNGgqcDWYQL39y-sF-498" value="" style="shape=partialRectangle;connectable=0;fillColor=none;top=0;left=0;bottom=0;right=0;editable=1;overflow=hidden;html=1;whiteSpace=wrap;fontSize=25;" parent="bLDJNGgqcDWYQL39y-sF-497" vertex="1">
          <mxGeometry width="117.99999999999989" height="34" as="geometry">
            <mxRectangle width="117.99999999999989" height="34" as="alternateBounds" />
          </mxGeometry>
        </mxCell>
        <mxCell id="bLDJNGgqcDWYQL39y-sF-499" value="EventType" style="shape=partialRectangle;connectable=0;fillColor=none;top=0;left=0;bottom=0;right=0;align=left;spacingLeft=6;overflow=hidden;html=1;whiteSpace=wrap;fontSize=25;" parent="bLDJNGgqcDWYQL39y-sF-497" vertex="1">
          <mxGeometry x="117.99999999999989" width="149.0000000000001" height="34" as="geometry">
            <mxRectangle width="149.0000000000001" height="34" as="alternateBounds" />
          </mxGeometry>
        </mxCell>
        <mxCell id="bLDJNGgqcDWYQL39y-sF-500" value="" style="shape=tableRow;horizontal=0;startSize=0;swimlaneHead=0;swimlaneBody=0;fillColor=none;collapsible=0;dropTarget=0;points=[[0,0.5],[1,0.5]];portConstraint=eastwest;top=0;left=0;right=0;bottom=0;html=1;fontSize=30;" parent="bLDJNGgqcDWYQL39y-sF-444" vertex="1">
          <mxGeometry y="212" width="267" height="34" as="geometry" />
        </mxCell>
        <mxCell id="bLDJNGgqcDWYQL39y-sF-501" value="" style="shape=partialRectangle;connectable=0;fillColor=none;top=0;left=0;bottom=0;right=0;editable=1;overflow=hidden;html=1;whiteSpace=wrap;fontSize=25;" parent="bLDJNGgqcDWYQL39y-sF-500" vertex="1">
          <mxGeometry width="117.99999999999989" height="34" as="geometry">
            <mxRectangle width="117.99999999999989" height="34" as="alternateBounds" />
          </mxGeometry>
        </mxCell>
        <mxCell id="bLDJNGgqcDWYQL39y-sF-502" value="Time" style="shape=partialRectangle;connectable=0;fillColor=none;top=0;left=0;bottom=0;right=0;align=left;spacingLeft=6;overflow=hidden;html=1;whiteSpace=wrap;fontSize=25;" parent="bLDJNGgqcDWYQL39y-sF-500" vertex="1">
          <mxGeometry x="117.99999999999989" width="149.0000000000001" height="34" as="geometry">
            <mxRectangle width="149.0000000000001" height="34" as="alternateBounds" />
          </mxGeometry>
        </mxCell>
        <mxCell id="bLDJNGgqcDWYQL39y-sF-457" value="Locations" style="shape=table;startSize=50;container=1;collapsible=1;childLayout=tableLayout;fixedRows=1;rowLines=0;fontStyle=1;align=center;resizeLast=1;html=1;whiteSpace=wrap;fontSize=30;" parent="1" vertex="1">
          <mxGeometry x="2068" y="2666" width="335" height="330" as="geometry" />
        </mxCell>
        <mxCell id="bLDJNGgqcDWYQL39y-sF-458" value="" style="shape=tableRow;horizontal=0;startSize=0;swimlaneHead=0;swimlaneBody=0;fillColor=none;collapsible=0;dropTarget=0;points=[[0,0.5],[1,0.5]];portConstraint=eastwest;top=0;left=0;right=0;bottom=0;html=1;fontSize=30;" parent="bLDJNGgqcDWYQL39y-sF-457" vertex="1">
          <mxGeometry y="50" width="335" height="40" as="geometry" />
        </mxCell>
        <mxCell id="bLDJNGgqcDWYQL39y-sF-459" value="PK" style="shape=partialRectangle;connectable=0;fillColor=none;top=0;left=0;bottom=0;right=0;fontStyle=1;overflow=hidden;html=1;whiteSpace=wrap;fontSize=25;" parent="bLDJNGgqcDWYQL39y-sF-458" vertex="1">
          <mxGeometry width="117.99999999999989" height="40" as="geometry">
            <mxRectangle width="117.99999999999989" height="40" as="alternateBounds" />
          </mxGeometry>
        </mxCell>
        <mxCell id="bLDJNGgqcDWYQL39y-sF-460" value="LocationID" style="shape=partialRectangle;connectable=0;fillColor=none;top=0;left=0;bottom=0;right=0;align=left;spacingLeft=6;fontStyle=1;overflow=hidden;html=1;whiteSpace=wrap;fontSize=25;" parent="bLDJNGgqcDWYQL39y-sF-458" vertex="1">
          <mxGeometry x="117.99999999999989" width="217.0000000000001" height="40" as="geometry">
            <mxRectangle width="217.0000000000001" height="40" as="alternateBounds" />
          </mxGeometry>
        </mxCell>
        <mxCell id="bLDJNGgqcDWYQL39y-sF-461" value="" style="shape=tableRow;horizontal=0;startSize=0;swimlaneHead=0;swimlaneBody=0;fillColor=none;collapsible=0;dropTarget=0;points=[[0,0.5],[1,0.5]];portConstraint=eastwest;top=0;left=0;right=0;bottom=1;html=1;fontSize=30;" parent="bLDJNGgqcDWYQL39y-sF-457" vertex="1">
          <mxGeometry y="90" width="335" height="40" as="geometry" />
        </mxCell>
        <mxCell id="bLDJNGgqcDWYQL39y-sF-462" value="FK" style="shape=partialRectangle;connectable=0;fillColor=none;top=0;left=0;bottom=0;right=0;fontStyle=0;overflow=hidden;html=1;whiteSpace=wrap;fontSize=25;" parent="bLDJNGgqcDWYQL39y-sF-461" vertex="1">
          <mxGeometry width="117.99999999999989" height="40" as="geometry">
            <mxRectangle width="117.99999999999989" height="40" as="alternateBounds" />
          </mxGeometry>
        </mxCell>
        <mxCell id="bLDJNGgqcDWYQL39y-sF-463" value="OrgID" style="shape=partialRectangle;connectable=0;fillColor=none;top=0;left=0;bottom=0;right=0;align=left;spacingLeft=6;fontStyle=0;overflow=hidden;html=1;whiteSpace=wrap;fontSize=25;" parent="bLDJNGgqcDWYQL39y-sF-461" vertex="1">
          <mxGeometry x="117.99999999999989" width="217.0000000000001" height="40" as="geometry">
            <mxRectangle width="217.0000000000001" height="40" as="alternateBounds" />
          </mxGeometry>
        </mxCell>
        <mxCell id="bLDJNGgqcDWYQL39y-sF-464" value="" style="shape=tableRow;horizontal=0;startSize=0;swimlaneHead=0;swimlaneBody=0;fillColor=none;collapsible=0;dropTarget=0;points=[[0,0.5],[1,0.5]];portConstraint=eastwest;top=0;left=0;right=0;bottom=0;html=1;fontSize=30;" parent="bLDJNGgqcDWYQL39y-sF-457" vertex="1">
          <mxGeometry y="130" width="335" height="40" as="geometry" />
        </mxCell>
        <mxCell id="bLDJNGgqcDWYQL39y-sF-465" value="" style="shape=partialRectangle;connectable=0;fillColor=none;top=0;left=0;bottom=0;right=0;editable=1;overflow=hidden;html=1;whiteSpace=wrap;fontSize=25;" parent="bLDJNGgqcDWYQL39y-sF-464" vertex="1">
          <mxGeometry width="117.99999999999989" height="40" as="geometry">
            <mxRectangle width="117.99999999999989" height="40" as="alternateBounds" />
          </mxGeometry>
        </mxCell>
        <mxCell id="bLDJNGgqcDWYQL39y-sF-466" value="Floor" style="shape=partialRectangle;connectable=0;fillColor=none;top=0;left=0;bottom=0;right=0;align=left;spacingLeft=6;overflow=hidden;html=1;whiteSpace=wrap;fontSize=25;" parent="bLDJNGgqcDWYQL39y-sF-464" vertex="1">
          <mxGeometry x="117.99999999999989" width="217.0000000000001" height="40" as="geometry">
            <mxRectangle width="217.0000000000001" height="40" as="alternateBounds" />
          </mxGeometry>
        </mxCell>
        <mxCell id="bLDJNGgqcDWYQL39y-sF-467" value="" style="shape=tableRow;horizontal=0;startSize=0;swimlaneHead=0;swimlaneBody=0;fillColor=none;collapsible=0;dropTarget=0;points=[[0,0.5],[1,0.5]];portConstraint=eastwest;top=0;left=0;right=0;bottom=0;html=1;fontSize=30;" parent="bLDJNGgqcDWYQL39y-sF-457" vertex="1">
          <mxGeometry y="170" width="335" height="40" as="geometry" />
        </mxCell>
        <mxCell id="bLDJNGgqcDWYQL39y-sF-468" value="" style="shape=partialRectangle;connectable=0;fillColor=none;top=0;left=0;bottom=0;right=0;editable=1;overflow=hidden;html=1;whiteSpace=wrap;fontSize=25;" parent="bLDJNGgqcDWYQL39y-sF-467" vertex="1">
          <mxGeometry width="117.99999999999989" height="40" as="geometry">
            <mxRectangle width="117.99999999999989" height="40" as="alternateBounds" />
          </mxGeometry>
        </mxCell>
        <mxCell id="bLDJNGgqcDWYQL39y-sF-469" value="Section" style="shape=partialRectangle;connectable=0;fillColor=none;top=0;left=0;bottom=0;right=0;align=left;spacingLeft=6;overflow=hidden;html=1;whiteSpace=wrap;fontSize=25;" parent="bLDJNGgqcDWYQL39y-sF-467" vertex="1">
          <mxGeometry x="117.99999999999989" width="217.0000000000001" height="40" as="geometry">
            <mxRectangle width="217.0000000000001" height="40" as="alternateBounds" />
          </mxGeometry>
        </mxCell>
        <mxCell id="bLDJNGgqcDWYQL39y-sF-509" value="" style="shape=tableRow;horizontal=0;startSize=0;swimlaneHead=0;swimlaneBody=0;fillColor=none;collapsible=0;dropTarget=0;points=[[0,0.5],[1,0.5]];portConstraint=eastwest;top=0;left=0;right=0;bottom=0;html=1;fontSize=30;" parent="bLDJNGgqcDWYQL39y-sF-457" vertex="1">
          <mxGeometry y="210" width="335" height="40" as="geometry" />
        </mxCell>
        <mxCell id="bLDJNGgqcDWYQL39y-sF-510" value="" style="shape=partialRectangle;connectable=0;fillColor=none;top=0;left=0;bottom=0;right=0;editable=1;overflow=hidden;html=1;whiteSpace=wrap;fontSize=25;" parent="bLDJNGgqcDWYQL39y-sF-509" vertex="1">
          <mxGeometry width="117.99999999999989" height="40" as="geometry">
            <mxRectangle width="117.99999999999989" height="40" as="alternateBounds" />
          </mxGeometry>
        </mxCell>
        <mxCell id="bLDJNGgqcDWYQL39y-sF-511" value="LocationType" style="shape=partialRectangle;connectable=0;fillColor=none;top=0;left=0;bottom=0;right=0;align=left;spacingLeft=6;overflow=hidden;html=1;whiteSpace=wrap;fontSize=25;" parent="bLDJNGgqcDWYQL39y-sF-509" vertex="1">
          <mxGeometry x="117.99999999999989" width="217.0000000000001" height="40" as="geometry">
            <mxRectangle width="217.0000000000001" height="40" as="alternateBounds" />
          </mxGeometry>
        </mxCell>
        <mxCell id="bLDJNGgqcDWYQL39y-sF-512" value="" style="shape=tableRow;horizontal=0;startSize=0;swimlaneHead=0;swimlaneBody=0;fillColor=none;collapsible=0;dropTarget=0;points=[[0,0.5],[1,0.5]];portConstraint=eastwest;top=0;left=0;right=0;bottom=0;html=1;fontSize=30;" parent="bLDJNGgqcDWYQL39y-sF-457" vertex="1">
          <mxGeometry y="250" width="335" height="40" as="geometry" />
        </mxCell>
        <mxCell id="bLDJNGgqcDWYQL39y-sF-513" value="" style="shape=partialRectangle;connectable=0;fillColor=none;top=0;left=0;bottom=0;right=0;editable=1;overflow=hidden;html=1;whiteSpace=wrap;fontSize=25;" parent="bLDJNGgqcDWYQL39y-sF-512" vertex="1">
          <mxGeometry width="117.99999999999989" height="40" as="geometry">
            <mxRectangle width="117.99999999999989" height="40" as="alternateBounds" />
          </mxGeometry>
        </mxCell>
        <mxCell id="bLDJNGgqcDWYQL39y-sF-514" value="RentalPrice" style="shape=partialRectangle;connectable=0;fillColor=none;top=0;left=0;bottom=0;right=0;align=left;spacingLeft=6;overflow=hidden;html=1;whiteSpace=wrap;fontSize=25;" parent="bLDJNGgqcDWYQL39y-sF-512" vertex="1">
          <mxGeometry x="117.99999999999989" width="217.0000000000001" height="40" as="geometry">
            <mxRectangle width="217.0000000000001" height="40" as="alternateBounds" />
          </mxGeometry>
        </mxCell>
        <mxCell id="bLDJNGgqcDWYQL39y-sF-515" value="" style="shape=tableRow;horizontal=0;startSize=0;swimlaneHead=0;swimlaneBody=0;fillColor=none;collapsible=0;dropTarget=0;points=[[0,0.5],[1,0.5]];portConstraint=eastwest;top=0;left=0;right=0;bottom=0;html=1;fontSize=30;" parent="bLDJNGgqcDWYQL39y-sF-457" vertex="1">
          <mxGeometry y="290" width="335" height="40" as="geometry" />
        </mxCell>
        <mxCell id="bLDJNGgqcDWYQL39y-sF-516" value="" style="shape=partialRectangle;connectable=0;fillColor=none;top=0;left=0;bottom=0;right=0;editable=1;overflow=hidden;html=1;whiteSpace=wrap;fontSize=25;" parent="bLDJNGgqcDWYQL39y-sF-515" vertex="1">
          <mxGeometry width="117.99999999999989" height="40" as="geometry">
            <mxRectangle width="117.99999999999989" height="40" as="alternateBounds" />
          </mxGeometry>
        </mxCell>
        <mxCell id="bLDJNGgqcDWYQL39y-sF-517" value="Size" style="shape=partialRectangle;connectable=0;fillColor=none;top=0;left=0;bottom=0;right=0;align=left;spacingLeft=6;overflow=hidden;html=1;whiteSpace=wrap;fontSize=25;" parent="bLDJNGgqcDWYQL39y-sF-515" vertex="1">
          <mxGeometry x="117.99999999999989" width="217.0000000000001" height="40" as="geometry">
            <mxRectangle width="217.0000000000001" height="40" as="alternateBounds" />
          </mxGeometry>
        </mxCell>
        <mxCell id="bLDJNGgqcDWYQL39y-sF-525" style="edgeStyle=orthogonalEdgeStyle;shape=connector;rounded=0;orthogonalLoop=1;jettySize=auto;html=1;strokeColor=default;align=center;verticalAlign=middle;fontFamily=Helvetica;fontSize=11;fontColor=default;labelBackgroundColor=default;startArrow=ERmandOne;startFill=0;startSize=25;endArrow=ERmandOne;endFill=0;endSize=25;strokeWidth=2;" parent="1" source="bLDJNGgqcDWYQL39y-sF-485" target="bLDJNGgqcDWYQL39y-sF-292" edge="1">
          <mxGeometry relative="1" as="geometry" />
        </mxCell>
        <mxCell id="bLDJNGgqcDWYQL39y-sF-529" style="edgeStyle=orthogonalEdgeStyle;shape=connector;rounded=0;orthogonalLoop=1;jettySize=auto;html=1;strokeColor=default;align=center;verticalAlign=middle;fontFamily=Helvetica;fontSize=11;fontColor=default;labelBackgroundColor=default;startArrow=ERoneToMany;startFill=0;startSize=25;endArrow=ERmandOne;endFill=0;endSize=25;strokeWidth=2;" parent="1" source="bLDJNGgqcDWYQL39y-sF-315" target="bLDJNGgqcDWYQL39y-sF-526" edge="1">
          <mxGeometry relative="1" as="geometry" />
        </mxCell>
        <mxCell id="bLDJNGgqcDWYQL39y-sF-530" style="edgeStyle=orthogonalEdgeStyle;shape=connector;rounded=0;orthogonalLoop=1;jettySize=auto;html=1;strokeColor=default;align=center;verticalAlign=middle;fontFamily=Helvetica;fontSize=11;fontColor=default;labelBackgroundColor=default;startArrow=ERmandOne;startFill=0;startSize=25;endArrow=ERoneToMany;endFill=0;endSize=25;strokeWidth=2;exitX=1;exitY=0.5;exitDx=0;exitDy=0;" parent="1" source="bLDJNGgqcDWYQL39y-sF-344" target="bLDJNGgqcDWYQL39y-sF-318" edge="1">
          <mxGeometry relative="1" as="geometry">
            <mxPoint x="1941" y="2265" as="targetPoint" />
          </mxGeometry>
        </mxCell>
        <mxCell id="bLDJNGgqcDWYQL39y-sF-538" style="edgeStyle=orthogonalEdgeStyle;shape=connector;rounded=0;orthogonalLoop=1;jettySize=auto;html=1;entryX=0;entryY=0.5;entryDx=0;entryDy=0;strokeColor=default;strokeWidth=2;align=center;verticalAlign=middle;fontFamily=Helvetica;fontSize=11;fontColor=default;labelBackgroundColor=default;startArrow=ERmandOne;startFill=0;startSize=25;endArrow=ERoneToMany;endFill=0;endSize=25;exitX=1;exitY=0.5;exitDx=0;exitDy=0;" parent="1" source="bLDJNGgqcDWYQL39y-sF-491" target="bLDJNGgqcDWYQL39y-sF-344" edge="1">
          <mxGeometry relative="1" as="geometry">
            <Array as="points">
              <mxPoint x="1998" y="2427" />
              <mxPoint x="1998" y="2104" />
            </Array>
          </mxGeometry>
        </mxCell>
        <mxCell id="bLDJNGgqcDWYQL39y-sF-539" style="edgeStyle=elbowEdgeStyle;shape=connector;rounded=0;orthogonalLoop=1;jettySize=auto;html=1;entryX=1;entryY=0.5;entryDx=0;entryDy=0;strokeColor=default;strokeWidth=2;align=center;verticalAlign=middle;fontFamily=Helvetica;fontSize=11;fontColor=default;labelBackgroundColor=default;startArrow=ERmandOne;startFill=0;startSize=25;endArrow=ERoneToMany;endFill=0;endSize=25;exitX=1;exitY=0.5;exitDx=0;exitDy=0;" parent="1" source="bLDJNGgqcDWYQL39y-sF-485" target="Tg3Lx0oodnG4xRhlfY1d-48" edge="1">
          <mxGeometry relative="1" as="geometry">
            <Array as="points">
              <mxPoint x="1968" y="2623" />
            </Array>
          </mxGeometry>
        </mxCell>
        <mxCell id="bLDJNGgqcDWYQL39y-sF-542" style="edgeStyle=orthogonalEdgeStyle;shape=connector;rounded=0;orthogonalLoop=1;jettySize=auto;html=1;strokeColor=default;strokeWidth=2;align=center;verticalAlign=middle;fontFamily=Helvetica;fontSize=11;fontColor=default;labelBackgroundColor=default;startArrow=ERoneToMany;startFill=0;startSize=25;endArrow=ERmandOne;endFill=0;endSize=25;entryX=1;entryY=0.5;entryDx=0;entryDy=0;" parent="1" source="bLDJNGgqcDWYQL39y-sF-458" target="bLDJNGgqcDWYQL39y-sF-448" edge="1">
          <mxGeometry relative="1" as="geometry">
            <Array as="points">
              <mxPoint x="2007" y="2736" />
              <mxPoint x="2007" y="2995" />
            </Array>
            <mxPoint x="2072" y="3148" as="targetPoint" />
          </mxGeometry>
        </mxCell>
        <mxCell id="bLDJNGgqcDWYQL39y-sF-558" style="edgeStyle=orthogonalEdgeStyle;shape=connector;rounded=0;orthogonalLoop=1;jettySize=auto;html=1;strokeColor=default;strokeWidth=2;align=center;verticalAlign=middle;fontFamily=Helvetica;fontSize=11;fontColor=default;labelBackgroundColor=default;startArrow=ERoneToMany;startFill=0;startSize=25;endArrow=ERmandOne;endFill=0;endSize=25;entryX=1;entryY=0.5;entryDx=0;entryDy=0;exitX=1;exitY=0.5;exitDx=0;exitDy=0;" parent="1" source="bLDJNGgqcDWYQL39y-sF-367" target="bLDJNGgqcDWYQL39y-sF-485" edge="1">
          <mxGeometry relative="1" as="geometry">
            <Array as="points">
              <mxPoint x="1984" y="1861" />
              <mxPoint x="1984" y="2387" />
            </Array>
            <mxPoint x="2219" y="2342" as="targetPoint" />
          </mxGeometry>
        </mxCell>
        <mxCell id="bLDJNGgqcDWYQL39y-sF-561" style="edgeStyle=orthogonalEdgeStyle;shape=connector;rounded=0;orthogonalLoop=1;jettySize=auto;html=1;entryX=1;entryY=0.5;entryDx=0;entryDy=0;strokeColor=default;strokeWidth=2;align=center;verticalAlign=middle;fontFamily=Helvetica;fontSize=11;fontColor=default;labelBackgroundColor=default;startArrow=ERmandOne;startFill=0;startSize=25;endArrow=ERmandOne;endFill=0;endSize=25;exitX=0;exitY=0.5;exitDx=0;exitDy=0;" parent="1" source="bLDJNGgqcDWYQL39y-sF-383" target="bLDJNGgqcDWYQL39y-sF-485" edge="1">
          <mxGeometry relative="1" as="geometry" />
        </mxCell>
        <mxCell id="bLDJNGgqcDWYQL39y-sF-392" value="Organizations" style="shape=table;startSize=49;container=1;collapsible=1;childLayout=tableLayout;fixedRows=1;rowLines=0;fontStyle=1;align=center;resizeLast=1;html=1;whiteSpace=wrap;fontSize=30;" parent="1" vertex="1">
          <mxGeometry x="1516" y="2318" width="385" height="369" as="geometry" />
        </mxCell>
        <mxCell id="bLDJNGgqcDWYQL39y-sF-485" value="" style="shape=tableRow;horizontal=0;startSize=0;swimlaneHead=0;swimlaneBody=0;fillColor=none;collapsible=0;dropTarget=0;points=[[0,0.5],[1,0.5]];portConstraint=eastwest;top=0;left=0;right=0;bottom=0;html=1;fontSize=30;" parent="bLDJNGgqcDWYQL39y-sF-392" vertex="1">
          <mxGeometry y="49" width="385" height="40" as="geometry" />
        </mxCell>
        <mxCell id="bLDJNGgqcDWYQL39y-sF-486" value="PK" style="shape=partialRectangle;connectable=0;fillColor=none;top=0;left=0;bottom=0;right=0;editable=1;overflow=hidden;html=1;whiteSpace=wrap;fontSize=25;fontStyle=1" parent="bLDJNGgqcDWYQL39y-sF-485" vertex="1">
          <mxGeometry width="117.99999999999989" height="40" as="geometry">
            <mxRectangle width="117.99999999999989" height="40" as="alternateBounds" />
          </mxGeometry>
        </mxCell>
        <mxCell id="bLDJNGgqcDWYQL39y-sF-487" value="OrgID" style="shape=partialRectangle;connectable=0;fillColor=none;top=0;left=0;bottom=0;right=0;align=left;spacingLeft=6;overflow=hidden;html=1;whiteSpace=wrap;fontSize=25;fontStyle=1" parent="bLDJNGgqcDWYQL39y-sF-485" vertex="1">
          <mxGeometry x="117.99999999999989" width="267.0000000000001" height="40" as="geometry">
            <mxRectangle width="267.0000000000001" height="40" as="alternateBounds" />
          </mxGeometry>
        </mxCell>
        <mxCell id="bLDJNGgqcDWYQL39y-sF-491" value="" style="shape=tableRow;horizontal=0;startSize=0;swimlaneHead=0;swimlaneBody=0;fillColor=none;collapsible=0;dropTarget=0;points=[[0,0.5],[1,0.5]];portConstraint=eastwest;top=0;left=0;right=0;bottom=1;html=1;fontSize=30;fontStyle=1" parent="bLDJNGgqcDWYQL39y-sF-392" vertex="1">
          <mxGeometry y="89" width="385" height="40" as="geometry" />
        </mxCell>
        <mxCell id="bLDJNGgqcDWYQL39y-sF-492" value="FK1" style="shape=partialRectangle;connectable=0;fillColor=none;top=0;left=0;bottom=0;right=0;editable=1;overflow=hidden;html=1;whiteSpace=wrap;fontSize=25;" parent="bLDJNGgqcDWYQL39y-sF-491" vertex="1">
          <mxGeometry width="117.99999999999989" height="40" as="geometry">
            <mxRectangle width="117.99999999999989" height="40" as="alternateBounds" />
          </mxGeometry>
        </mxCell>
        <mxCell id="bLDJNGgqcDWYQL39y-sF-493" value="IndustryID" style="shape=partialRectangle;connectable=0;fillColor=none;top=0;left=0;bottom=0;right=0;align=left;spacingLeft=6;overflow=hidden;html=1;whiteSpace=wrap;fontSize=25;fontStyle=0" parent="bLDJNGgqcDWYQL39y-sF-491" vertex="1">
          <mxGeometry x="117.99999999999989" width="267.0000000000001" height="40" as="geometry">
            <mxRectangle width="267.0000000000001" height="40" as="alternateBounds" />
          </mxGeometry>
        </mxCell>
        <mxCell id="bLDJNGgqcDWYQL39y-sF-402" value="" style="shape=tableRow;horizontal=0;startSize=0;swimlaneHead=0;swimlaneBody=0;fillColor=none;collapsible=0;dropTarget=0;points=[[0,0.5],[1,0.5]];portConstraint=eastwest;top=0;left=0;right=0;bottom=0;html=1;fontSize=30;" parent="bLDJNGgqcDWYQL39y-sF-392" vertex="1">
          <mxGeometry y="129" width="385" height="40" as="geometry" />
        </mxCell>
        <mxCell id="bLDJNGgqcDWYQL39y-sF-403" value="" style="shape=partialRectangle;connectable=0;fillColor=none;top=0;left=0;bottom=0;right=0;editable=1;overflow=hidden;html=1;whiteSpace=wrap;fontSize=25;" parent="bLDJNGgqcDWYQL39y-sF-402" vertex="1">
          <mxGeometry width="117.99999999999989" height="40" as="geometry">
            <mxRectangle width="117.99999999999989" height="40" as="alternateBounds" />
          </mxGeometry>
        </mxCell>
        <mxCell id="bLDJNGgqcDWYQL39y-sF-404" value="Name" style="shape=partialRectangle;connectable=0;fillColor=none;top=0;left=0;bottom=0;right=0;align=left;spacingLeft=6;overflow=hidden;html=1;whiteSpace=wrap;fontSize=25;" parent="bLDJNGgqcDWYQL39y-sF-402" vertex="1">
          <mxGeometry x="117.99999999999989" width="267.0000000000001" height="40" as="geometry">
            <mxRectangle width="267.0000000000001" height="40" as="alternateBounds" />
          </mxGeometry>
        </mxCell>
        <mxCell id="bLDJNGgqcDWYQL39y-sF-399" value="" style="shape=tableRow;horizontal=0;startSize=0;swimlaneHead=0;swimlaneBody=0;fillColor=none;collapsible=0;dropTarget=0;points=[[0,0.5],[1,0.5]];portConstraint=eastwest;top=0;left=0;right=0;bottom=0;html=1;fontSize=30;" parent="bLDJNGgqcDWYQL39y-sF-392" vertex="1">
          <mxGeometry y="169" width="385" height="40" as="geometry" />
        </mxCell>
        <mxCell id="bLDJNGgqcDWYQL39y-sF-400" value="" style="shape=partialRectangle;connectable=0;fillColor=none;top=0;left=0;bottom=0;right=0;editable=1;overflow=hidden;html=1;whiteSpace=wrap;fontSize=25;" parent="bLDJNGgqcDWYQL39y-sF-399" vertex="1">
          <mxGeometry width="117.99999999999989" height="40" as="geometry">
            <mxRectangle width="117.99999999999989" height="40" as="alternateBounds" />
          </mxGeometry>
        </mxCell>
        <mxCell id="bLDJNGgqcDWYQL39y-sF-401" value="OrgType" style="shape=partialRectangle;connectable=0;fillColor=none;top=0;left=0;bottom=0;right=0;align=left;spacingLeft=6;overflow=hidden;html=1;whiteSpace=wrap;fontSize=25;" parent="bLDJNGgqcDWYQL39y-sF-399" vertex="1">
          <mxGeometry x="117.99999999999989" width="267.0000000000001" height="40" as="geometry">
            <mxRectangle width="267.0000000000001" height="40" as="alternateBounds" />
          </mxGeometry>
        </mxCell>
        <mxCell id="bLDJNGgqcDWYQL39y-sF-488" value="" style="shape=tableRow;horizontal=0;startSize=0;swimlaneHead=0;swimlaneBody=0;fillColor=none;collapsible=0;dropTarget=0;points=[[0,0.5],[1,0.5]];portConstraint=eastwest;top=0;left=0;right=0;bottom=0;html=1;fontSize=30;" parent="bLDJNGgqcDWYQL39y-sF-392" vertex="1">
          <mxGeometry y="209" width="385" height="40" as="geometry" />
        </mxCell>
        <mxCell id="bLDJNGgqcDWYQL39y-sF-489" value="" style="shape=partialRectangle;connectable=0;fillColor=none;top=0;left=0;bottom=0;right=0;editable=1;overflow=hidden;html=1;whiteSpace=wrap;fontSize=25;" parent="bLDJNGgqcDWYQL39y-sF-488" vertex="1">
          <mxGeometry width="117.99999999999989" height="40" as="geometry">
            <mxRectangle width="117.99999999999989" height="40" as="alternateBounds" />
          </mxGeometry>
        </mxCell>
        <mxCell id="bLDJNGgqcDWYQL39y-sF-490" value="Role" style="shape=partialRectangle;connectable=0;fillColor=none;top=0;left=0;bottom=0;right=0;align=left;spacingLeft=6;overflow=hidden;html=1;whiteSpace=wrap;fontSize=25;" parent="bLDJNGgqcDWYQL39y-sF-488" vertex="1">
          <mxGeometry x="117.99999999999989" width="267.0000000000001" height="40" as="geometry">
            <mxRectangle width="267.0000000000001" height="40" as="alternateBounds" />
          </mxGeometry>
        </mxCell>
        <mxCell id="bLDJNGgqcDWYQL39y-sF-479" value="" style="shape=tableRow;horizontal=0;startSize=0;swimlaneHead=0;swimlaneBody=0;fillColor=none;collapsible=0;dropTarget=0;points=[[0,0.5],[1,0.5]];portConstraint=eastwest;top=0;left=0;right=0;bottom=0;html=1;fontSize=30;" parent="bLDJNGgqcDWYQL39y-sF-392" vertex="1">
          <mxGeometry y="249" width="385" height="40" as="geometry" />
        </mxCell>
        <mxCell id="bLDJNGgqcDWYQL39y-sF-480" value="" style="shape=partialRectangle;connectable=0;fillColor=none;top=0;left=0;bottom=0;right=0;editable=1;overflow=hidden;html=1;whiteSpace=wrap;fontSize=25;" parent="bLDJNGgqcDWYQL39y-sF-479" vertex="1">
          <mxGeometry width="117.99999999999989" height="40" as="geometry">
            <mxRectangle width="117.99999999999989" height="40" as="alternateBounds" />
          </mxGeometry>
        </mxCell>
        <mxCell id="bLDJNGgqcDWYQL39y-sF-481" value="Email" style="shape=partialRectangle;connectable=0;fillColor=none;top=0;left=0;bottom=0;right=0;align=left;spacingLeft=6;overflow=hidden;html=1;whiteSpace=wrap;fontSize=25;" parent="bLDJNGgqcDWYQL39y-sF-479" vertex="1">
          <mxGeometry x="117.99999999999989" width="267.0000000000001" height="40" as="geometry">
            <mxRectangle width="267.0000000000001" height="40" as="alternateBounds" />
          </mxGeometry>
        </mxCell>
        <mxCell id="bLDJNGgqcDWYQL39y-sF-482" value="" style="shape=tableRow;horizontal=0;startSize=0;swimlaneHead=0;swimlaneBody=0;fillColor=none;collapsible=0;dropTarget=0;points=[[0,0.5],[1,0.5]];portConstraint=eastwest;top=0;left=0;right=0;bottom=0;html=1;fontSize=30;" parent="bLDJNGgqcDWYQL39y-sF-392" vertex="1">
          <mxGeometry y="289" width="385" height="40" as="geometry" />
        </mxCell>
        <mxCell id="bLDJNGgqcDWYQL39y-sF-483" value="" style="shape=partialRectangle;connectable=0;fillColor=none;top=0;left=0;bottom=0;right=0;editable=1;overflow=hidden;html=1;whiteSpace=wrap;fontSize=25;" parent="bLDJNGgqcDWYQL39y-sF-482" vertex="1">
          <mxGeometry width="117.99999999999989" height="40" as="geometry">
            <mxRectangle width="117.99999999999989" height="40" as="alternateBounds" />
          </mxGeometry>
        </mxCell>
        <mxCell id="bLDJNGgqcDWYQL39y-sF-484" value="ContactNumber" style="shape=partialRectangle;connectable=0;fillColor=none;top=0;left=0;bottom=0;right=0;align=left;spacingLeft=6;overflow=hidden;html=1;whiteSpace=wrap;fontSize=25;" parent="bLDJNGgqcDWYQL39y-sF-482" vertex="1">
          <mxGeometry x="117.99999999999989" width="267.0000000000001" height="40" as="geometry">
            <mxRectangle width="267.0000000000001" height="40" as="alternateBounds" />
          </mxGeometry>
        </mxCell>
        <mxCell id="bLDJNGgqcDWYQL39y-sF-494" value="" style="shape=tableRow;horizontal=0;startSize=0;swimlaneHead=0;swimlaneBody=0;fillColor=none;collapsible=0;dropTarget=0;points=[[0,0.5],[1,0.5]];portConstraint=eastwest;top=0;left=0;right=0;bottom=0;html=1;fontSize=30;" parent="bLDJNGgqcDWYQL39y-sF-392" vertex="1">
          <mxGeometry y="329" width="385" height="40" as="geometry" />
        </mxCell>
        <mxCell id="bLDJNGgqcDWYQL39y-sF-495" value="" style="shape=partialRectangle;connectable=0;fillColor=none;top=0;left=0;bottom=0;right=0;editable=1;overflow=hidden;html=1;whiteSpace=wrap;fontSize=25;" parent="bLDJNGgqcDWYQL39y-sF-494" vertex="1">
          <mxGeometry width="117.99999999999989" height="40" as="geometry">
            <mxRectangle width="117.99999999999989" height="40" as="alternateBounds" />
          </mxGeometry>
        </mxCell>
        <mxCell id="bLDJNGgqcDWYQL39y-sF-496" value="nTickets" style="shape=partialRectangle;connectable=0;fillColor=none;top=0;left=0;bottom=0;right=0;align=left;spacingLeft=6;overflow=hidden;html=1;whiteSpace=wrap;fontSize=25;" parent="bLDJNGgqcDWYQL39y-sF-494" vertex="1">
          <mxGeometry x="117.99999999999989" width="267.0000000000001" height="40" as="geometry">
            <mxRectangle width="267.0000000000001" height="40" as="alternateBounds" />
          </mxGeometry>
        </mxCell>
        <mxCell id="bLDJNGgqcDWYQL39y-sF-563" value="" style="edgeStyle=orthogonalEdgeStyle;shape=connector;rounded=0;orthogonalLoop=1;jettySize=auto;html=1;strokeColor=default;strokeWidth=2;align=center;verticalAlign=middle;fontFamily=Helvetica;fontSize=11;fontColor=default;labelBackgroundColor=default;startArrow=ERmandOne;startFill=0;startSize=25;endArrow=ERmandOne;endFill=0;endSize=25;exitX=1;exitY=0.5;exitDx=0;exitDy=0;entryX=1;entryY=0.5;entryDx=0;entryDy=0;" parent="1" source="bLDJNGgqcDWYQL39y-sF-370" target="bLDJNGgqcDWYQL39y-sF-315" edge="1">
          <mxGeometry relative="1" as="geometry">
            <mxPoint x="1954" y="1991" as="sourcePoint" />
            <mxPoint x="1775" y="2307" as="targetPoint" />
            <Array as="points">
              <mxPoint x="1970" y="1941" />
              <mxPoint x="1970" y="2184" />
            </Array>
          </mxGeometry>
        </mxCell>
        <mxCell id="bLDJNGgqcDWYQL39y-sF-314" value="JobPositions" style="shape=table;startSize=42;container=1;collapsible=1;childLayout=tableLayout;fixedRows=1;rowLines=0;fontStyle=1;align=center;resizeLast=1;html=1;whiteSpace=wrap;fontSize=30;" parent="1" vertex="1">
          <mxGeometry x="1508" y="2122" width="392" height="162" as="geometry" />
        </mxCell>
        <mxCell id="bLDJNGgqcDWYQL39y-sF-315" value="" style="shape=tableRow;horizontal=0;startSize=0;swimlaneHead=0;swimlaneBody=0;fillColor=none;collapsible=0;dropTarget=0;points=[[0,0.5],[1,0.5]];portConstraint=eastwest;top=0;left=0;right=0;bottom=0;html=1;fontSize=30;" parent="bLDJNGgqcDWYQL39y-sF-314" vertex="1">
          <mxGeometry y="42" width="392" height="40" as="geometry" />
        </mxCell>
        <mxCell id="bLDJNGgqcDWYQL39y-sF-316" value="PK" style="shape=partialRectangle;connectable=0;fillColor=none;top=0;left=0;bottom=0;right=0;fontStyle=1;overflow=hidden;html=1;whiteSpace=wrap;fontSize=25;" parent="bLDJNGgqcDWYQL39y-sF-315" vertex="1">
          <mxGeometry width="117.99999999999989" height="40" as="geometry">
            <mxRectangle width="117.99999999999989" height="40" as="alternateBounds" />
          </mxGeometry>
        </mxCell>
        <mxCell id="bLDJNGgqcDWYQL39y-sF-317" value="JobPostID" style="shape=partialRectangle;connectable=0;fillColor=none;top=0;left=0;bottom=0;right=0;align=left;spacingLeft=6;fontStyle=1;overflow=hidden;html=1;whiteSpace=wrap;fontSize=25;" parent="bLDJNGgqcDWYQL39y-sF-315" vertex="1">
          <mxGeometry x="117.99999999999989" width="274.0000000000001" height="40" as="geometry">
            <mxRectangle width="274.0000000000001" height="40" as="alternateBounds" />
          </mxGeometry>
        </mxCell>
        <mxCell id="bLDJNGgqcDWYQL39y-sF-318" value="" style="shape=tableRow;horizontal=0;startSize=0;swimlaneHead=0;swimlaneBody=0;fillColor=none;collapsible=0;dropTarget=0;points=[[0,0.5],[1,0.5]];portConstraint=eastwest;top=0;left=0;right=0;bottom=1;html=1;fontSize=30;" parent="bLDJNGgqcDWYQL39y-sF-314" vertex="1">
          <mxGeometry y="82" width="392" height="40" as="geometry" />
        </mxCell>
        <mxCell id="bLDJNGgqcDWYQL39y-sF-319" value="&lt;span style=&quot;font-weight: normal;&quot;&gt;FK&lt;/span&gt;" style="shape=partialRectangle;connectable=0;fillColor=none;top=0;left=0;bottom=0;right=0;fontStyle=1;overflow=hidden;html=1;whiteSpace=wrap;fontSize=25;" parent="bLDJNGgqcDWYQL39y-sF-318" vertex="1">
          <mxGeometry width="117.99999999999989" height="40" as="geometry">
            <mxRectangle width="117.99999999999989" height="40" as="alternateBounds" />
          </mxGeometry>
        </mxCell>
        <mxCell id="bLDJNGgqcDWYQL39y-sF-320" value="IndustryID" style="shape=partialRectangle;connectable=0;fillColor=none;top=0;left=0;bottom=0;right=0;align=left;spacingLeft=6;fontStyle=0;overflow=hidden;html=1;whiteSpace=wrap;fontSize=25;" parent="bLDJNGgqcDWYQL39y-sF-318" vertex="1">
          <mxGeometry x="117.99999999999989" width="274.0000000000001" height="40" as="geometry">
            <mxRectangle width="274.0000000000001" height="40" as="alternateBounds" />
          </mxGeometry>
        </mxCell>
        <mxCell id="bLDJNGgqcDWYQL39y-sF-521" value="" style="shape=tableRow;horizontal=0;startSize=0;swimlaneHead=0;swimlaneBody=0;fillColor=none;collapsible=0;dropTarget=0;points=[[0,0.5],[1,0.5]];portConstraint=eastwest;top=0;left=0;right=0;bottom=0;html=1;fontSize=30;" parent="bLDJNGgqcDWYQL39y-sF-314" vertex="1">
          <mxGeometry y="122" width="392" height="40" as="geometry" />
        </mxCell>
        <mxCell id="bLDJNGgqcDWYQL39y-sF-522" value="" style="shape=partialRectangle;connectable=0;fillColor=none;top=0;left=0;bottom=0;right=0;fontStyle=0;overflow=hidden;html=1;whiteSpace=wrap;fontSize=25;" parent="bLDJNGgqcDWYQL39y-sF-521" vertex="1">
          <mxGeometry width="117.99999999999989" height="40" as="geometry">
            <mxRectangle width="117.99999999999989" height="40" as="alternateBounds" />
          </mxGeometry>
        </mxCell>
        <mxCell id="bLDJNGgqcDWYQL39y-sF-523" value="Position" style="shape=partialRectangle;connectable=0;fillColor=none;top=0;left=0;bottom=0;right=0;align=left;spacingLeft=6;fontStyle=0;overflow=hidden;html=1;whiteSpace=wrap;fontSize=25;" parent="bLDJNGgqcDWYQL39y-sF-521" vertex="1">
          <mxGeometry x="117.99999999999989" width="274.0000000000001" height="40" as="geometry">
            <mxRectangle width="274.0000000000001" height="40" as="alternateBounds" />
          </mxGeometry>
        </mxCell>
        <mxCell id="Tg3Lx0oodnG4xRhlfY1d-3" style="edgeStyle=orthogonalEdgeStyle;shape=connector;rounded=0;orthogonalLoop=1;jettySize=auto;html=1;entryX=1;entryY=0.5;entryDx=0;entryDy=0;strokeColor=default;strokeWidth=2;align=center;verticalAlign=middle;fontFamily=Helvetica;fontSize=11;fontColor=default;labelBackgroundColor=default;startArrow=ERoneToMany;startFill=0;startSize=25;endArrow=ERmandOne;endFill=0;endSize=25;exitX=0;exitY=0.5;exitDx=0;exitDy=0;" parent="1" source="bLDJNGgqcDWYQL39y-sF-470" target="Tg3Lx0oodnG4xRhlfY1d-23" edge="1">
          <mxGeometry relative="1" as="geometry" />
        </mxCell>
        <mxCell id="Tg3Lx0oodnG4xRhlfY1d-10" value="AdCampaign" style="shape=table;startSize=52;container=1;collapsible=1;childLayout=tableLayout;fixedRows=1;rowLines=0;fontStyle=1;align=center;resizeLast=1;html=1;whiteSpace=wrap;fontSize=30;" parent="1" vertex="1">
          <mxGeometry x="2078" y="1662" width="319" height="372" as="geometry" />
        </mxCell>
        <mxCell id="Tg3Lx0oodnG4xRhlfY1d-11" value="" style="shape=tableRow;horizontal=0;startSize=0;swimlaneHead=0;swimlaneBody=0;fillColor=none;collapsible=0;dropTarget=0;points=[[0,0.5],[1,0.5]];portConstraint=eastwest;top=0;left=0;right=0;bottom=0;html=1;fontSize=30;" parent="Tg3Lx0oodnG4xRhlfY1d-10" vertex="1">
          <mxGeometry y="52" width="319" height="40" as="geometry" />
        </mxCell>
        <mxCell id="Tg3Lx0oodnG4xRhlfY1d-12" value="PK" style="shape=partialRectangle;connectable=0;fillColor=none;top=0;left=0;bottom=0;right=0;fontStyle=1;overflow=hidden;html=1;whiteSpace=wrap;fontSize=25;" parent="Tg3Lx0oodnG4xRhlfY1d-11" vertex="1">
          <mxGeometry width="117.99999999999989" height="40" as="geometry">
            <mxRectangle width="117.99999999999989" height="40" as="alternateBounds" />
          </mxGeometry>
        </mxCell>
        <mxCell id="Tg3Lx0oodnG4xRhlfY1d-13" value="CampaignID" style="shape=partialRectangle;connectable=0;fillColor=none;top=0;left=0;bottom=0;right=0;align=left;spacingLeft=6;fontStyle=1;overflow=hidden;html=1;whiteSpace=wrap;fontSize=25;" parent="Tg3Lx0oodnG4xRhlfY1d-11" vertex="1">
          <mxGeometry x="117.99999999999989" width="201.0000000000001" height="40" as="geometry">
            <mxRectangle width="201.0000000000001" height="40" as="alternateBounds" />
          </mxGeometry>
        </mxCell>
        <mxCell id="Tg3Lx0oodnG4xRhlfY1d-14" value="" style="shape=tableRow;horizontal=0;startSize=0;swimlaneHead=0;swimlaneBody=0;fillColor=none;collapsible=0;dropTarget=0;points=[[0,0.5],[1,0.5]];portConstraint=eastwest;top=0;left=0;right=0;bottom=1;html=1;fontSize=30;" parent="Tg3Lx0oodnG4xRhlfY1d-10" vertex="1">
          <mxGeometry y="92" width="319" height="40" as="geometry" />
        </mxCell>
        <mxCell id="Tg3Lx0oodnG4xRhlfY1d-15" value="FK" style="shape=partialRectangle;connectable=0;fillColor=none;top=0;left=0;bottom=0;right=0;fontStyle=0;overflow=hidden;html=1;whiteSpace=wrap;fontSize=25;" parent="Tg3Lx0oodnG4xRhlfY1d-14" vertex="1">
          <mxGeometry width="117.99999999999989" height="40" as="geometry">
            <mxRectangle width="117.99999999999989" height="40" as="alternateBounds" />
          </mxGeometry>
        </mxCell>
        <mxCell id="Tg3Lx0oodnG4xRhlfY1d-16" value="OrgID" style="shape=partialRectangle;connectable=0;fillColor=none;top=0;left=0;bottom=0;right=0;align=left;spacingLeft=6;fontStyle=0;overflow=hidden;html=1;whiteSpace=wrap;fontSize=25;" parent="Tg3Lx0oodnG4xRhlfY1d-14" vertex="1">
          <mxGeometry x="117.99999999999989" width="201.0000000000001" height="40" as="geometry">
            <mxRectangle width="201.0000000000001" height="40" as="alternateBounds" />
          </mxGeometry>
        </mxCell>
        <mxCell id="Tg3Lx0oodnG4xRhlfY1d-17" value="" style="shape=tableRow;horizontal=0;startSize=0;swimlaneHead=0;swimlaneBody=0;fillColor=none;collapsible=0;dropTarget=0;points=[[0,0.5],[1,0.5]];portConstraint=eastwest;top=0;left=0;right=0;bottom=0;html=1;fontSize=30;" parent="Tg3Lx0oodnG4xRhlfY1d-10" vertex="1">
          <mxGeometry y="132" width="319" height="40" as="geometry" />
        </mxCell>
        <mxCell id="Tg3Lx0oodnG4xRhlfY1d-18" value="" style="shape=partialRectangle;connectable=0;fillColor=none;top=0;left=0;bottom=0;right=0;editable=1;overflow=hidden;html=1;whiteSpace=wrap;fontSize=25;" parent="Tg3Lx0oodnG4xRhlfY1d-17" vertex="1">
          <mxGeometry width="117.99999999999989" height="40" as="geometry">
            <mxRectangle width="117.99999999999989" height="40" as="alternateBounds" />
          </mxGeometry>
        </mxCell>
        <mxCell id="Tg3Lx0oodnG4xRhlfY1d-19" value="Title" style="shape=partialRectangle;connectable=0;fillColor=none;top=0;left=0;bottom=0;right=0;align=left;spacingLeft=6;overflow=hidden;html=1;whiteSpace=wrap;fontSize=25;" parent="Tg3Lx0oodnG4xRhlfY1d-17" vertex="1">
          <mxGeometry x="117.99999999999989" width="201.0000000000001" height="40" as="geometry">
            <mxRectangle width="201.0000000000001" height="40" as="alternateBounds" />
          </mxGeometry>
        </mxCell>
        <mxCell id="Tg3Lx0oodnG4xRhlfY1d-20" value="" style="shape=tableRow;horizontal=0;startSize=0;swimlaneHead=0;swimlaneBody=0;fillColor=none;collapsible=0;dropTarget=0;points=[[0,0.5],[1,0.5]];portConstraint=eastwest;top=0;left=0;right=0;bottom=0;html=1;fontSize=30;" parent="Tg3Lx0oodnG4xRhlfY1d-10" vertex="1">
          <mxGeometry y="172" width="319" height="40" as="geometry" />
        </mxCell>
        <mxCell id="Tg3Lx0oodnG4xRhlfY1d-21" value="" style="shape=partialRectangle;connectable=0;fillColor=none;top=0;left=0;bottom=0;right=0;editable=1;overflow=hidden;html=1;whiteSpace=wrap;fontSize=25;" parent="Tg3Lx0oodnG4xRhlfY1d-20" vertex="1">
          <mxGeometry width="117.99999999999989" height="40" as="geometry">
            <mxRectangle width="117.99999999999989" height="40" as="alternateBounds" />
          </mxGeometry>
        </mxCell>
        <mxCell id="Tg3Lx0oodnG4xRhlfY1d-22" value="StartDate" style="shape=partialRectangle;connectable=0;fillColor=none;top=0;left=0;bottom=0;right=0;align=left;spacingLeft=6;overflow=hidden;html=1;whiteSpace=wrap;fontSize=25;" parent="Tg3Lx0oodnG4xRhlfY1d-20" vertex="1">
          <mxGeometry x="117.99999999999989" width="201.0000000000001" height="40" as="geometry">
            <mxRectangle width="201.0000000000001" height="40" as="alternateBounds" />
          </mxGeometry>
        </mxCell>
        <mxCell id="Tg3Lx0oodnG4xRhlfY1d-31" value="" style="shape=tableRow;horizontal=0;startSize=0;swimlaneHead=0;swimlaneBody=0;fillColor=none;collapsible=0;dropTarget=0;points=[[0,0.5],[1,0.5]];portConstraint=eastwest;top=0;left=0;right=0;bottom=0;html=1;fontSize=30;" parent="Tg3Lx0oodnG4xRhlfY1d-10" vertex="1">
          <mxGeometry y="212" width="319" height="40" as="geometry" />
        </mxCell>
        <mxCell id="Tg3Lx0oodnG4xRhlfY1d-32" value="" style="shape=partialRectangle;connectable=0;fillColor=none;top=0;left=0;bottom=0;right=0;editable=1;overflow=hidden;html=1;whiteSpace=wrap;fontSize=25;" parent="Tg3Lx0oodnG4xRhlfY1d-31" vertex="1">
          <mxGeometry width="117.99999999999989" height="40" as="geometry">
            <mxRectangle width="117.99999999999989" height="40" as="alternateBounds" />
          </mxGeometry>
        </mxCell>
        <mxCell id="Tg3Lx0oodnG4xRhlfY1d-33" value="EndDate" style="shape=partialRectangle;connectable=0;fillColor=none;top=0;left=0;bottom=0;right=0;align=left;spacingLeft=6;overflow=hidden;html=1;whiteSpace=wrap;fontSize=25;" parent="Tg3Lx0oodnG4xRhlfY1d-31" vertex="1">
          <mxGeometry x="117.99999999999989" width="201.0000000000001" height="40" as="geometry">
            <mxRectangle width="201.0000000000001" height="40" as="alternateBounds" />
          </mxGeometry>
        </mxCell>
        <mxCell id="Tg3Lx0oodnG4xRhlfY1d-34" value="" style="shape=tableRow;horizontal=0;startSize=0;swimlaneHead=0;swimlaneBody=0;fillColor=none;collapsible=0;dropTarget=0;points=[[0,0.5],[1,0.5]];portConstraint=eastwest;top=0;left=0;right=0;bottom=0;html=1;fontSize=30;" parent="Tg3Lx0oodnG4xRhlfY1d-10" vertex="1">
          <mxGeometry y="252" width="319" height="40" as="geometry" />
        </mxCell>
        <mxCell id="Tg3Lx0oodnG4xRhlfY1d-35" value="" style="shape=partialRectangle;connectable=0;fillColor=none;top=0;left=0;bottom=0;right=0;editable=1;overflow=hidden;html=1;whiteSpace=wrap;fontSize=25;" parent="Tg3Lx0oodnG4xRhlfY1d-34" vertex="1">
          <mxGeometry width="117.99999999999989" height="40" as="geometry">
            <mxRectangle width="117.99999999999989" height="40" as="alternateBounds" />
          </mxGeometry>
        </mxCell>
        <mxCell id="Tg3Lx0oodnG4xRhlfY1d-36" value="Channel" style="shape=partialRectangle;connectable=0;fillColor=none;top=0;left=0;bottom=0;right=0;align=left;spacingLeft=6;overflow=hidden;html=1;whiteSpace=wrap;fontSize=25;" parent="Tg3Lx0oodnG4xRhlfY1d-34" vertex="1">
          <mxGeometry x="117.99999999999989" width="201.0000000000001" height="40" as="geometry">
            <mxRectangle width="201.0000000000001" height="40" as="alternateBounds" />
          </mxGeometry>
        </mxCell>
        <mxCell id="Tg3Lx0oodnG4xRhlfY1d-37" value="" style="shape=tableRow;horizontal=0;startSize=0;swimlaneHead=0;swimlaneBody=0;fillColor=none;collapsible=0;dropTarget=0;points=[[0,0.5],[1,0.5]];portConstraint=eastwest;top=0;left=0;right=0;bottom=0;html=1;fontSize=30;" parent="Tg3Lx0oodnG4xRhlfY1d-10" vertex="1">
          <mxGeometry y="292" width="319" height="40" as="geometry" />
        </mxCell>
        <mxCell id="Tg3Lx0oodnG4xRhlfY1d-38" value="" style="shape=partialRectangle;connectable=0;fillColor=none;top=0;left=0;bottom=0;right=0;editable=1;overflow=hidden;html=1;whiteSpace=wrap;fontSize=25;" parent="Tg3Lx0oodnG4xRhlfY1d-37" vertex="1">
          <mxGeometry width="117.99999999999989" height="40" as="geometry">
            <mxRectangle width="117.99999999999989" height="40" as="alternateBounds" />
          </mxGeometry>
        </mxCell>
        <mxCell id="Tg3Lx0oodnG4xRhlfY1d-39" value="Budget" style="shape=partialRectangle;connectable=0;fillColor=none;top=0;left=0;bottom=0;right=0;align=left;spacingLeft=6;overflow=hidden;html=1;whiteSpace=wrap;fontSize=25;" parent="Tg3Lx0oodnG4xRhlfY1d-37" vertex="1">
          <mxGeometry x="117.99999999999989" width="201.0000000000001" height="40" as="geometry">
            <mxRectangle width="201.0000000000001" height="40" as="alternateBounds" />
          </mxGeometry>
        </mxCell>
        <mxCell id="Tg3Lx0oodnG4xRhlfY1d-40" value="" style="shape=tableRow;horizontal=0;startSize=0;swimlaneHead=0;swimlaneBody=0;fillColor=none;collapsible=0;dropTarget=0;points=[[0,0.5],[1,0.5]];portConstraint=eastwest;top=0;left=0;right=0;bottom=0;html=1;fontSize=30;" parent="Tg3Lx0oodnG4xRhlfY1d-10" vertex="1">
          <mxGeometry y="332" width="319" height="40" as="geometry" />
        </mxCell>
        <mxCell id="Tg3Lx0oodnG4xRhlfY1d-41" value="" style="shape=partialRectangle;connectable=0;fillColor=none;top=0;left=0;bottom=0;right=0;editable=1;overflow=hidden;html=1;whiteSpace=wrap;fontSize=25;" parent="Tg3Lx0oodnG4xRhlfY1d-40" vertex="1">
          <mxGeometry width="117.99999999999989" height="40" as="geometry">
            <mxRectangle width="117.99999999999989" height="40" as="alternateBounds" />
          </mxGeometry>
        </mxCell>
        <mxCell id="Tg3Lx0oodnG4xRhlfY1d-42" value="TargetAud" style="shape=partialRectangle;connectable=0;fillColor=none;top=0;left=0;bottom=0;right=0;align=left;spacingLeft=6;overflow=hidden;html=1;whiteSpace=wrap;fontSize=25;" parent="Tg3Lx0oodnG4xRhlfY1d-40" vertex="1">
          <mxGeometry x="117.99999999999989" width="201.0000000000001" height="40" as="geometry">
            <mxRectangle width="201.0000000000001" height="40" as="alternateBounds" />
          </mxGeometry>
        </mxCell>
        <mxCell id="Tg3Lx0oodnG4xRhlfY1d-43" style="edgeStyle=orthogonalEdgeStyle;shape=connector;rounded=0;orthogonalLoop=1;jettySize=auto;html=1;entryX=1.001;entryY=0.054;entryDx=0;entryDy=0;strokeColor=default;strokeWidth=2;align=center;verticalAlign=middle;fontFamily=Helvetica;fontSize=11;fontColor=default;labelBackgroundColor=default;startArrow=ERmandOne;startFill=0;startSize=25;endArrow=ERoneToMany;endFill=0;endSize=25;entryPerimeter=0;" parent="1" source="Tg3Lx0oodnG4xRhlfY1d-14" target="bLDJNGgqcDWYQL39y-sF-392" edge="1">
          <mxGeometry relative="1" as="geometry">
            <Array as="points">
              <mxPoint x="2015" y="1774" />
              <mxPoint x="2015" y="2338" />
            </Array>
          </mxGeometry>
        </mxCell>
        <mxCell id="Tg3Lx0oodnG4xRhlfY1d-44" value="EventsParticipation" style="shape=table;startSize=48;container=1;collapsible=1;childLayout=tableLayout;fixedRows=1;rowLines=0;fontStyle=1;align=center;resizeLast=1;html=1;whiteSpace=wrap;fontSize=30;fillColor=#1ba1e2;fontColor=#ffffff;strokeColor=#006EAF;" parent="1" vertex="1">
          <mxGeometry x="1517.25" y="2714" width="320" height="168" as="geometry" />
        </mxCell>
        <mxCell id="Tg3Lx0oodnG4xRhlfY1d-45" value="" style="shape=tableRow;horizontal=0;startSize=0;swimlaneHead=0;swimlaneBody=0;fillColor=none;collapsible=0;dropTarget=0;points=[[0,0.5],[1,0.5]];portConstraint=eastwest;top=0;left=0;right=0;bottom=0;html=1;fontSize=30;" parent="Tg3Lx0oodnG4xRhlfY1d-44" vertex="1">
          <mxGeometry y="48" width="320" height="40" as="geometry" />
        </mxCell>
        <mxCell id="Tg3Lx0oodnG4xRhlfY1d-46" value="PK, FK1" style="shape=partialRectangle;connectable=0;fillColor=none;top=0;left=0;bottom=0;right=0;fontStyle=1;overflow=hidden;html=1;whiteSpace=wrap;fontSize=25;" parent="Tg3Lx0oodnG4xRhlfY1d-45" vertex="1">
          <mxGeometry width="117.99999999999989" height="40" as="geometry">
            <mxRectangle width="117.99999999999989" height="40" as="alternateBounds" />
          </mxGeometry>
        </mxCell>
        <mxCell id="Tg3Lx0oodnG4xRhlfY1d-47" value="EventID" style="shape=partialRectangle;connectable=0;fillColor=none;top=0;left=0;bottom=0;right=0;align=left;spacingLeft=6;fontStyle=1;overflow=hidden;html=1;whiteSpace=wrap;fontSize=25;" parent="Tg3Lx0oodnG4xRhlfY1d-45" vertex="1">
          <mxGeometry x="117.99999999999989" width="202.0000000000001" height="40" as="geometry">
            <mxRectangle width="202.0000000000001" height="40" as="alternateBounds" />
          </mxGeometry>
        </mxCell>
        <mxCell id="Zhs_z-DNXPEyejbQO6yQ-1" value="" style="shape=tableRow;horizontal=0;startSize=0;swimlaneHead=0;swimlaneBody=0;fillColor=none;collapsible=0;dropTarget=0;points=[[0,0.5],[1,0.5]];portConstraint=eastwest;top=0;left=0;right=0;bottom=0;html=1;fontSize=30;" parent="Tg3Lx0oodnG4xRhlfY1d-44" vertex="1">
          <mxGeometry y="88" width="320" height="40" as="geometry" />
        </mxCell>
        <mxCell id="Zhs_z-DNXPEyejbQO6yQ-2" value="PK, FK2" style="shape=partialRectangle;connectable=0;fillColor=none;top=0;left=0;bottom=0;right=0;fontStyle=1;overflow=hidden;html=1;whiteSpace=wrap;fontSize=25;" parent="Zhs_z-DNXPEyejbQO6yQ-1" vertex="1">
          <mxGeometry width="117.99999999999989" height="40" as="geometry">
            <mxRectangle width="117.99999999999989" height="40" as="alternateBounds" />
          </mxGeometry>
        </mxCell>
        <mxCell id="Zhs_z-DNXPEyejbQO6yQ-3" value="PersonID" style="shape=partialRectangle;connectable=0;fillColor=none;top=0;left=0;bottom=0;right=0;align=left;spacingLeft=6;fontStyle=1;overflow=hidden;html=1;whiteSpace=wrap;fontSize=25;" parent="Zhs_z-DNXPEyejbQO6yQ-1" vertex="1">
          <mxGeometry x="117.99999999999989" width="202.0000000000001" height="40" as="geometry">
            <mxRectangle width="202.0000000000001" height="40" as="alternateBounds" />
          </mxGeometry>
        </mxCell>
        <mxCell id="Tg3Lx0oodnG4xRhlfY1d-48" value="" style="shape=tableRow;horizontal=0;startSize=0;swimlaneHead=0;swimlaneBody=0;fillColor=none;collapsible=0;dropTarget=0;points=[[0,0.5],[1,0.5]];portConstraint=eastwest;top=0;left=0;right=0;bottom=0;html=1;fontSize=30;" parent="Tg3Lx0oodnG4xRhlfY1d-44" vertex="1">
          <mxGeometry y="128" width="320" height="40" as="geometry" />
        </mxCell>
        <mxCell id="Tg3Lx0oodnG4xRhlfY1d-49" value="PK, FK3" style="shape=partialRectangle;connectable=0;fillColor=none;top=0;left=0;bottom=0;right=0;fontStyle=1;overflow=hidden;html=1;whiteSpace=wrap;fontSize=25;" parent="Tg3Lx0oodnG4xRhlfY1d-48" vertex="1">
          <mxGeometry width="117.99999999999989" height="40" as="geometry">
            <mxRectangle width="117.99999999999989" height="40" as="alternateBounds" />
          </mxGeometry>
        </mxCell>
        <mxCell id="Tg3Lx0oodnG4xRhlfY1d-50" value="OrgID" style="shape=partialRectangle;connectable=0;fillColor=none;top=0;left=0;bottom=0;right=0;align=left;spacingLeft=6;fontStyle=1;overflow=hidden;html=1;whiteSpace=wrap;fontSize=25;" parent="Tg3Lx0oodnG4xRhlfY1d-48" vertex="1">
          <mxGeometry x="117.99999999999989" width="202.0000000000001" height="40" as="geometry">
            <mxRectangle width="202.0000000000001" height="40" as="alternateBounds" />
          </mxGeometry>
        </mxCell>
        <mxCell id="pW0G1pyP3qnJ51zfqLpa-1" style="edgeStyle=orthogonalEdgeStyle;shape=connector;rounded=0;orthogonalLoop=1;jettySize=auto;html=1;entryX=0;entryY=0.5;entryDx=0;entryDy=0;strokeColor=default;strokeWidth=2;align=center;verticalAlign=middle;fontFamily=Helvetica;fontSize=11;fontColor=default;labelBackgroundColor=default;startArrow=ERmandOne;startFill=0;startSize=25;endArrow=ERoneToMany;endFill=0;endSize=25;" parent="1" source="bLDJNGgqcDWYQL39y-sF-241" target="Zhs_z-DNXPEyejbQO6yQ-1" edge="1">
          <mxGeometry relative="1" as="geometry" />
        </mxCell>
        <mxCell id="pW0G1pyP3qnJ51zfqLpa-2" style="edgeStyle=orthogonalEdgeStyle;shape=connector;rounded=0;orthogonalLoop=1;jettySize=auto;html=1;strokeColor=default;strokeWidth=2;align=center;verticalAlign=middle;fontFamily=Helvetica;fontSize=11;fontColor=default;labelBackgroundColor=default;startArrow=ERmandOne;startFill=0;startSize=25;endArrow=ERoneToMany;endFill=0;endSize=25;" parent="1" source="bLDJNGgqcDWYQL39y-sF-485" target="bLDJNGgqcDWYQL39y-sF-458" edge="1">
          <mxGeometry relative="1" as="geometry" />
        </mxCell>
        <mxCell id="Zhs_z-DNXPEyejbQO6yQ-5" style="edgeStyle=orthogonalEdgeStyle;shape=connector;rounded=0;orthogonalLoop=1;jettySize=auto;html=1;entryX=1;entryY=0.5;entryDx=0;entryDy=0;strokeColor=default;strokeWidth=2;align=center;verticalAlign=middle;fontFamily=Helvetica;fontSize=11;fontColor=default;labelBackgroundColor=default;startArrow=ERmandOne;startFill=0;startSize=25;endArrow=ERoneToMany;endFill=0;endSize=25;" parent="1" source="bLDJNGgqcDWYQL39y-sF-445" target="Tg3Lx0oodnG4xRhlfY1d-45" edge="1">
          <mxGeometry relative="1" as="geometry" />
        </mxCell>
      </root>
    </mxGraphModel>
  </diagram>
</mxfile>
